<?xml version="1.0" encoding="utf-8"?>
<!-- Generator: Adobe Illustrator 22.1.0, SVG Export Plug-In . SVG Version: 6.00 Build 0)  -->
<svg version="1.1"
	 id="Layer_1" inkscape:output_extension="org.inkscape.output.svg.inkscape" inkscape:version="0.46" sodipodi:docname="Fullmetal_Alchemist_Anime_Logo.svg" sodipodi:version="0.32" xmlns:cc="http://creativecommons.org/ns#" xmlns:dc="http://purl.org/dc/elements/1.1/" xmlns:inkscape="http://www.inkscape.org/namespaces/inkscape" xmlns:rdf="http://www.w3.org/1999/02/22-rdf-syntax-ns#" xmlns:sodipodi="http://sodipodi.sourceforge.net/DTD/sodipodi-0.dtd" xmlns:svg="http://www.w3.org/2000/svg"
	 xmlns="http://www.w3.org/2000/svg" xmlns:xlink="http://www.w3.org/1999/xlink" x="0px" y="0px" viewBox="0 0 200 203.7"
	 style="enable-background:new 0 0 200 203.7;" xml:space="preserve">
<defs>
	
	
		<inkscape:perspective  id="perspective32" inkscape:persp3d-origin="200.7345 : 136.292 : 1" inkscape:vp_x="0 : 204.438 : 1" inkscape:vp_y="0 : 1000 : 0" inkscape:vp_z="401.46899 : 204.438 : 1" sodipodi:type="inkscape:persp3d">
		</inkscape:perspective>
</defs>
<sodipodi:namedview  bordercolor="#666666" borderopacity="1.0" gridtolerance="10.0" guidetolerance="10.0" id="base" inkscape:current-layer="Layer_1" inkscape:cx="200.7345" inkscape:cy="204.438" inkscape:pageopacity="0.0" inkscape:pageshadow="2" inkscape:window-height="669" inkscape:window-width="640" inkscape:window-x="115" inkscape:window-y="95" inkscape:zoom="1.1299269" objecttolerance="10.0" pagecolor="#ffffff" showgrid="false">
	</sodipodi:namedview>
<g>
	<path id="path5" style="fill:#000303;" d="M0,1c0,0,27.1,16.3,43.4,14.6c0,0,6.2,23.2,19.8,28.8c0-0.3-22.2-7.6-29.1-4.5
		c-0.3,0,9.4-16.7-22.2-19.1c0,0.3,7.6-9-11.4-16.3C0.7,4.9,0,1,0,1z"/>
	<path id="path7" style="fill:#000303;" d="M200,0c0,0-27.1,16.3-43.4,14.6c0,0-6.2,23.2-19.8,28.8c0-0.3,22.2-7.6,29.1-4.5
		c0.3,0-9.4-16.7,22.2-19.1c0,0.3-7.6-9,11.4-16.3C199.3,3.8,200,0,200,0z"/>
	<path id="path9" style="fill:#000303;" d="M16,145.9c0,0-8.3-19.3,3.1-55.2c0,0-19.8-13-17.2-15.6c1-5.2,21.9,8.8,23.4,5.2
		C26.9,76.7,2.9,55.9,5,50.7S33.3,71.1,36.4,69c3.1-2.1-9.9-19.8-7.1-21.7c1.4-0.9,16.5,13.9,19.6,12.8c3.1-1,41.5-25.7,84.1-3.3
		c0,0,15.4-10.9,16.4-9.9c1.6,1.6-8.3,16.4-8.3,16.4s0.8,3.4,3.4,3.9c2.6,0.5,20.3-14.1,21.9-11.7c1.6,2.3-15.6,17.4-10.9,21.6
		c4.7,4.2,20.3-9.9,22.9-6.5c2.6,3.4-14.8,14.1-14.3,16.9c47.6,128.3-139.3,162.8-128,39.3c0,0-2.7,72.9,67.7,65.7
		c66-8.7,60.8-89.9,14.9-104.9c-50.5-13.4-64.9,23.5-64.9,23.7c-3.4,8.2-2.5,24.6,0.4,28.1c3.1,3.8-13.3-2.9-13.3-2.9l4.9-6.5
		l-5.3-4.4l3-3l-4.7-6.2l4.9-5.7l-12.2-6.5l4.3,7.5l-7.4,8.6l4.4,5.7l-4.7,6l2.1,4.7l-4.7,5.3L16,145.9z M23.4,106.9
		c-2.1,0-3.8,1.7-3.8,3.8c0,2.1,1.7,3.8,3.8,3.8s3.8-1.7,3.8-3.8C27.1,108.5,25.5,106.9,23.4,106.9z"/>
	<g id="g11">
		<polygon id="polygon13" style="fill:#000303;" points="143.5,165.7 122.9,130.4 117.6,133.6 121.4,140.2 110.6,158.9 104.3,158.9 
			104.2,165.8 		"/>
		<polygon id="polygon15" style="fill:#000303;" points="95,158.9 89.1,158.9 78.3,140.2 81.4,134.9 75.8,131.8 56.3,166 
			94.9,165.9 		"/>
		<polygon id="polygon17" style="fill:#000303;" points="86.1,126.8 89.1,121.6 110.6,121.6 112.9,125.5 118.2,122.4 99.5,90.3 
			80.5,123.7 		"/>
	</g>
	<g id="g19">
		<polygon id="polygon21" style="fill:#000303;" points="88.1,169 99.3,186.7 110.4,168.9 		"/>
		<polygon id="polygon23" style="fill:#000303;" points="130.3,136.9 142.6,117.2 118.9,117.3 		"/>
		<polygon id="polygon25" style="fill:#000303;" points="80.4,117.5 55.4,117.6 68.6,138.2 		"/>
	</g>
</g>
</svg>
