<svg xmlns="http://www.w3.org/2000/svg" width="1440" height="900"><path d="M769,553L677,704L873,586Z" fill="#5cb769" stroke="#5cb769" stroke-width="1.51"/><path d="M677,704L887,741L873,586Z" fill="#51b163" stroke="#51b163" stroke-width="1.51"/><path d="M745,922L869,903L887,741Z" fill="#43a257" stroke="#43a257" stroke-width="1.51"/><path d="M677,704L745,922L887,741Z" fill="#4da95e" stroke="#4da95e" stroke-width="1.51"/><path d="M769,553L564,503L677,704Z" fill="#68be71" stroke="#68be71" stroke-width="1.51"/><path d="M677,704L491,731L745,922Z" fill="#5aaf66" stroke="#5aaf66" stroke-width="1.51"/><path d="M564,503L491,731L677,704Z" fill="#69bd73" stroke="#69bd73" stroke-width="1.51"/><path d="M887,741L1082,791L873,586Z" fill="#42a85b" stroke="#42a85b" stroke-width="1.51"/><path d="M869,903L1082,791L887,741Z" fill="#3b9f55" stroke="#3b9f55" stroke-width="1.51"/><path d="M887,349L769,553L873,586Z" fill="#64bc6d" stroke="#64bc6d" stroke-width="1.51"/><path d="M887,349L668,363L769,553Z" fill="#73c376" stroke="#73c376" stroke-width="1.51"/><path d="M769,553L668,363L564,503Z" fill="#76c578" stroke="#76c578" stroke-width="1.51"/><path d="M1153,509L887,349L873,586Z" fill="#5ab668" stroke="#5ab668" stroke-width="1.51"/><path d="M668,363L528,394L564,503Z" fill="#83cb82" stroke="#83cb82" stroke-width="1.51"/><path d="M564,503L351,696L491,731Z" fill="#73c27b" stroke="#73c27b" stroke-width="1.51"/><path d="M1082,791L1153,509L873,586Z" fill="#42a95c" stroke="#42a95c" stroke-width="1.51"/><path d="M491,731L486,990L745,922Z" fill="#5aaa64" stroke="#5aaa64" stroke-width="1.51"/><path d="M312,529L351,696L564,503Z" fill="#80c883" stroke="#80c883" stroke-width="1.51"/><path d="M313,955L486,990L491,731Z" fill="#66ae6d" stroke="#66ae6d" stroke-width="1.51"/><path d="M935,1183L1149,929L869,903Z" fill="#298f47" stroke="#298f47" stroke-width="1.51"/><path d="M1082,791L1295,597L1153,509Z" fill="#3aa156" stroke="#3aa156" stroke-width="1.51"/><path d="M869,903L1149,929L1082,791Z" fill="#2f964d" stroke="#2f964d" stroke-width="1.51"/><path d="M747,1185L869,903L745,922Z" fill="#3f9850" stroke="#3f9850" stroke-width="1.51"/><path d="M1153,509L1138,376L887,349Z" fill="#5eb56a" stroke="#5eb56a" stroke-width="1.51"/><path d="M528,394L312,529L564,503Z" fill="#87cc85" stroke="#87cc85" stroke-width="1.51"/><path d="M1326,711L1295,597L1082,791Z" fill="#31984f" stroke="#31984f" stroke-width="1.51"/><path d="M1153,509L1289,346L1138,376Z" fill="#57ad64" stroke="#57ad64" stroke-width="1.51"/><path d="M486,990L747,1185L745,922Z" fill="#499b54" stroke="#499b54" stroke-width="1.51"/><path d="M887,349L759,143L668,363Z" fill="#83cb83" stroke="#83cb83" stroke-width="1.51"/><path d="M668,363L504,101L528,394Z" fill="#94d390" stroke="#94d390" stroke-width="1.51"/><path d="M528,394L298,380L312,529Z" fill="#92d28e" stroke="#92d28e" stroke-width="1.51"/><path d="M885,134L759,143L887,349Z" fill="#85cb87" stroke="#85cb87" stroke-width="1.51"/><path d="M747,1185L935,1183L869,903Z" fill="#358c48" stroke="#358c48" stroke-width="1.51"/><path d="M1149,929L1326,711L1082,791Z" fill="#2b924a" stroke="#2b924a" stroke-width="1.51"/><path d="M1140,153L885,134L887,349Z" fill="#7ac580" stroke="#7ac580" stroke-width="1.51"/><path d="M486,990L477,1114L747,1185Z" fill="#4f9757" stroke="#4f9757" stroke-width="1.51"/><path d="M313,955L477,1114L486,990Z" fill="#5fa465" stroke="#5fa465" stroke-width="1.51"/><path d="M167,730L313,955L351,696Z" fill="#77bb7d" stroke="#77bb7d" stroke-width="1.51"/><path d="M351,696L313,955L491,731Z" fill="#6fb876" stroke="#6fb876" stroke-width="1.51"/><path d="M306,143L298,380L528,394Z" fill="#a0d89b" stroke="#a0d89b" stroke-width="1.51"/><path d="M312,529L167,730L351,696Z" fill="#80c787" stroke="#80c787" stroke-width="1.51"/><path d="M1149,929L1290,956L1326,711Z" fill="#228a44" stroke="#228a44" stroke-width="1.51"/><path d="M1315,1122L1290,956L1149,929Z" fill="#19803b" stroke="#19803b" stroke-width="1.51"/><path d="M1138,376L1140,153L887,349Z" fill="#6cbc75" stroke="#6cbc75" stroke-width="1.51"/><path d="M1295,597L1289,346L1153,509Z" fill="#4ba65c" stroke="#4ba65c" stroke-width="1.51"/><path d="M1520,539L1289,346L1295,597Z" fill="#449e55" stroke="#449e55" stroke-width="1.51"/><path d="M1289,346L1140,153L1138,376Z" fill="#66b46f" stroke="#66b46f" stroke-width="1.51"/><path d="M96,551L167,730L312,529Z" fill="#8ccd90" stroke="#8ccd90" stroke-width="1.51"/><path d="M935,1183L1137,1189L1149,929Z" fill="#1f803e" stroke="#1f803e" stroke-width="1.51"/><path d="M1093,1342L1137,1189L935,1183Z" fill="#1d7338" stroke="#1d7338" stroke-width="1.51"/><path d="M677,1333L869,1293L747,1185Z" fill="#387f44" stroke="#387f44" stroke-width="1.51"/><path d="M747,1185L869,1293L935,1183Z" fill="#317e42" stroke="#317e42" stroke-width="1.51"/><path d="M877,-7L759,143L885,134Z" fill="#91d092" stroke="#91d092" stroke-width="1.51"/><path d="M766,-15L504,101L759,143Z" fill="#a0d79c" stroke="#a0d79c" stroke-width="1.51"/><path d="M759,143L504,101L668,363Z" fill="#96d492" stroke="#96d492" stroke-width="1.51"/><path d="M477,1114L677,1333L747,1185Z" fill="#45884d" stroke="#45884d" stroke-width="1.51"/><path d="M531,1370L677,1333L477,1114Z" fill="#4a8750" stroke="#4a8750" stroke-width="1.51"/><path d="M167,730L158,918L313,955Z" fill="#77b77d" stroke="#77b77d" stroke-width="1.51"/><path d="M313,955L273,1110L477,1114Z" fill="#62a367" stroke="#62a367" stroke-width="1.51"/><path d="M158,918L273,1110L313,955Z" fill="#6dab72" stroke="#6dab72" stroke-width="1.51"/><path d="M1140,153L877,-7L885,134Z" fill="#87ca8b" stroke="#87ca8b" stroke-width="1.51"/><path d="M877,-7L766,-15L759,143Z" fill="#99d498" stroke="#99d498" stroke-width="1.51"/><path d="M1326,711L1475,723L1295,597Z" fill="#2c934a" stroke="#2c934a" stroke-width="1.51"/><path d="M1485,924L1475,723L1326,711Z" fill="#208741" stroke="#208741" stroke-width="1.51"/><path d="M1485,924L1326,711L1290,956Z" fill="#1d843f" stroke="#1d843f" stroke-width="1.51"/><path d="M1137,1189L1315,1122L1149,929Z" fill="#187b3a" stroke="#187b3a" stroke-width="1.51"/><path d="M1333,1374L1315,1122L1137,1189Z" fill="#116830" stroke="#116830" stroke-width="1.51"/><path d="M137,301L96,551L298,380Z" fill="#a3d99e" stroke="#a3d99e" stroke-width="1.51"/><path d="M298,380L96,551L312,529Z" fill="#96d394" stroke="#96d394" stroke-width="1.51"/><path d="M167,730L-33,773L158,918Z" fill="#82be88" stroke="#82be88" stroke-width="1.51"/><path d="M504,101L306,143L528,394Z" fill="#a5db9e" stroke="#a5db9e" stroke-width="1.51"/><path d="M275,-46L306,143L504,101Z" fill="#b9e3b2" stroke="#b9e3b2" stroke-width="1.51"/><path d="M1289,346L1262,128L1140,153Z" fill="#6db674" stroke="#6db674" stroke-width="1.51"/><path d="M1140,153L1126,-84L877,-7Z" fill="#88c88d" stroke="#88c88d" stroke-width="1.51"/><path d="M1479,139L1262,128L1289,346Z" fill="#68af6f" stroke="#68af6f" stroke-width="1.51"/><path d="M869,1293L1093,1342L935,1183Z" fill="#24763b" stroke="#24763b" stroke-width="1.51"/><path d="M677,1333L1093,1342L869,1293Z" fill="#2d7a3f" stroke="#2d7a3f" stroke-width="1.51"/><path d="M1315,1122L1485,924L1290,956Z" fill="#117936" stroke="#117936" stroke-width="1.51"/><path d="M1475,723L1520,539L1295,597Z" fill="#2f944b" stroke="#2f944b" stroke-width="1.51"/><path d="M1687,760L1520,539L1475,723Z" fill="#238741" stroke="#238741" stroke-width="1.51"/><path d="M677,1333L531,1370L1093,1342Z" fill="#387f44" stroke="#387f44" stroke-width="1.51"/><path d="M325,1294L531,1370L477,1114Z" fill="#538b57" stroke="#538b57" stroke-width="1.51"/><path d="M306,143L137,301L298,380Z" fill="#addea6" stroke="#addea6" stroke-width="1.51"/><path d="M273,1110L325,1294L477,1114Z" fill="#5d9560" stroke="#5d9560" stroke-width="1.51"/><path d="M148,1162L325,1294L273,1110Z" fill="#639766" stroke="#639766" stroke-width="1.51"/><path d="M-83,1118L148,1162L158,918Z" fill="#74a977" stroke="#74a977" stroke-width="1.51"/><path d="M158,918L148,1162L273,1110Z" fill="#6ea771" stroke="#6ea771" stroke-width="1.51"/><path d="M306,143L161,107L137,301Z" fill="#b9e4b2" stroke="#b9e4b2" stroke-width="1.51"/><path d="M766,-15L475,-92L504,101Z" fill="#aedea9" stroke="#aedea9" stroke-width="1.51"/><path d="M750,-218L475,-92L766,-15Z" fill="#b0deab" stroke="#b0deab" stroke-width="1.51"/><path d="M877,-7L750,-218L766,-15Z" fill="#a2d7a2" stroke="#a2d7a2" stroke-width="1.51"/><path d="M1293,-7L1126,-84L1140,153Z" fill="#81bf87" stroke="#81bf87" stroke-width="1.51"/><path d="M96,551L-33,773L167,730Z" fill="#8cc991" stroke="#8cc991" stroke-width="1.51"/><path d="M-76,571L-33,773L96,551Z" fill="#95cf99" stroke="#95cf99" stroke-width="1.51"/><path d="M1262,128L1293,-7L1140,153Z" fill="#79ba7f" stroke="#79ba7f" stroke-width="1.51"/><path d="M1520,539L1555,339L1289,346Z" fill="#4c9e57" stroke="#4c9e57" stroke-width="1.51"/><path d="M1724,365L1555,339L1520,539Z" fill="#469451" stroke="#469451" stroke-width="1.51"/><path d="M1479,139L1293,-7L1262,128Z" fill="#75b37a" stroke="#75b37a" stroke-width="1.51"/><path d="M275,-46L161,107L306,143Z" fill="#c1e7b9" stroke="#c1e7b9" stroke-width="1.51"/><path d="M-60,319L-76,571L96,551Z" fill="#a6d9a3" stroke="#a6d9a3" stroke-width="1.51"/><path d="M1485,924L1687,760L1475,723Z" fill="#187e3a" stroke="#187e3a" stroke-width="1.51"/><path d="M1315,1122L1490,1176L1485,924Z" fill="#08702f" stroke="#08702f" stroke-width="1.51"/><path d="M1467,1317L1490,1176L1315,1122Z" fill="#07622a" stroke="#07622a" stroke-width="1.51"/><path d="M1555,339L1479,139L1289,346Z" fill="#5da664" stroke="#5da664" stroke-width="1.51"/><path d="M-60,319L96,551L137,301Z" fill="#acdca7" stroke="#acdca7" stroke-width="1.51"/><path d="M475,-92L275,-46L504,101Z" fill="#bbe4b5" stroke="#bbe4b5" stroke-width="1.51"/><path d="M916,-258L750,-218L877,-7Z" fill="#a5d7a5" stroke="#a5d7a5" stroke-width="1.51"/><path d="M475,-92L349,-255L275,-46Z" fill="#c8e9c2" stroke="#c8e9c2" stroke-width="1.51"/><path d="M1093,1342L1333,1374L1137,1189Z" fill="#156b33" stroke="#156b33" stroke-width="1.51"/><path d="M531,1370L1333,1374L1093,1342Z" fill="#21763b" stroke="#21763b" stroke-width="1.51"/><path d="M-33,773L-78,915L158,918Z" fill="#83bb88" stroke="#83bb88" stroke-width="1.51"/><path d="M-280,760L-78,915L-33,773Z" fill="#8ec393" stroke="#8ec393" stroke-width="1.51"/><path d="M1690,967L1687,760L1485,924Z" fill="#107233" stroke="#107233" stroke-width="1.51"/><path d="M-88,162L137,301L161,107Z" fill="#c0e6b9" stroke="#c0e6b9" stroke-width="1.51"/><path d="M-88,162L-60,319L137,301Z" fill="#bde5b7" stroke="#bde5b7" stroke-width="1.51"/><path d="M1126,-84L916,-258L877,-7Z" fill="#98d09c" stroke="#98d09c" stroke-width="1.51"/><path d="M1131,-291L916,-258L1126,-84Z" fill="#98cd9d" stroke="#98cd9d" stroke-width="1.51"/><path d="M1490,1176L1690,967L1485,924Z" fill="#026d2d" stroke="#026d2d" stroke-width="1.51"/><path d="M1333,1374L1467,1317L1315,1122Z" fill="#0a612b" stroke="#0a612b" stroke-width="1.51"/><path d="M1743,1091L1690,967L1490,1176Z" fill="#006127" stroke="#006127" stroke-width="1.51"/><path d="M148,1162L141,1362L325,1294Z" fill="#649266" stroke="#649266" stroke-width="1.51"/><path d="M325,1294L141,1362L531,1370Z" fill="#5b8e5f" stroke="#5b8e5f" stroke-width="1.51"/><path d="M-84,1318L141,1362L148,1162Z" fill="#6c956e" stroke="#6c956e" stroke-width="1.51"/><path d="M-78,915L-83,1118L158,918Z" fill="#7db381" stroke="#7db381" stroke-width="1.51"/><path d="M-311,935L-83,1118L-78,915Z" fill="#84b588" stroke="#84b588" stroke-width="1.51"/><path d="M1687,760L1761,527L1520,539Z" fill="#2a8442" stroke="#2a8442" stroke-width="1.51"/><path d="M1555,339L1710,174L1479,139Z" fill="#5e9f63" stroke="#5e9f63" stroke-width="1.51"/><path d="M1861,791L1761,527L1687,760Z" fill="#1e7539" stroke="#1e7539" stroke-width="1.51"/><path d="M1761,527L1724,365L1520,539Z" fill="#3c8b4a" stroke="#3c8b4a" stroke-width="1.51"/><path d="M1664,-18L1481,-34L1479,139Z" fill="#71aa75" stroke="#71aa75" stroke-width="1.51"/><path d="M1479,139L1481,-34L1293,-7Z" fill="#76b17a" stroke="#76b17a" stroke-width="1.51"/><path d="M1305,-291L1131,-291L1126,-84Z" fill="#92c697" stroke="#92c697" stroke-width="1.51"/><path d="M750,-218L487,-271L475,-92Z" fill="#bce4b7" stroke="#bce4b7" stroke-width="1.51"/><path d="M916,-258L487,-271L750,-218Z" fill="#b3dfb0" stroke="#b3dfb0" stroke-width="1.51"/><path d="M275,-46L105,-58L161,107Z" fill="#cbebc4" stroke="#cbebc4" stroke-width="1.51"/><path d="M111,-263L105,-58L275,-46Z" fill="#d5efce" stroke="#d5efce" stroke-width="1.51"/><path d="M105,-58L-88,162L161,107Z" fill="#ccebc5" stroke="#ccebc5" stroke-width="1.51"/><path d="M-295,569L-280,760L-76,571Z" fill="#9ed3a2" stroke="#9ed3a2" stroke-width="1.51"/><path d="M-76,571L-280,760L-33,773Z" fill="#95cc9b" stroke="#95cc9b" stroke-width="1.51"/><path d="M916,-258L1131,-291L487,-271Z" fill="#aadaab" stroke="#aadaab" stroke-width="1.51"/><path d="M1305,-291L1126,-84L1293,-7Z" fill="#8bc190" stroke="#8bc190" stroke-width="1.51"/><path d="M487,-271L349,-255L475,-92Z" fill="#c7e9c1" stroke="#c7e9c1" stroke-width="1.51"/><path d="M1690,967L1861,791L1687,760Z" fill="#126c32" stroke="#126c32" stroke-width="1.51"/><path d="M1719,1353L1743,1091L1490,1176Z" fill="#005321" stroke="#005321" stroke-width="1.51"/><path d="M1896,189L1710,174L1724,365Z" fill="#558e59" stroke="#558e59" stroke-width="1.51"/><path d="M1724,365L1710,174L1555,339Z" fill="#539659" stroke="#539659" stroke-width="1.51"/><path d="M-295,569L-76,571L-259,342Z" fill="#addbab" stroke="#addbab" stroke-width="1.51"/><path d="M1761,527L1868,500L1724,365Z" fill="#3b8346" stroke="#3b8346" stroke-width="1.51"/><path d="M1922,911L1861,791L1690,967Z" fill="#0d632c" stroke="#0d632c" stroke-width="1.51"/><path d="M-308,1119L-84,1318L-83,1118Z" fill="#79a07c" stroke="#79a07c" stroke-width="1.51"/><path d="M-83,1118L-84,1318L148,1162Z" fill="#729c74" stroke="#729c74" stroke-width="1.51"/><path d="M-259,342L-76,571L-60,319Z" fill="#b3dfaf" stroke="#b3dfaf" stroke-width="1.51"/><path d="M1555,-221L1305,-291L1481,-34Z" fill="#84b688" stroke="#84b688" stroke-width="1.51"/><path d="M1481,-34L1305,-291L1293,-7Z" fill="#84b989" stroke="#84b989" stroke-width="1.51"/><path d="M1861,791L1868,500L1761,527Z" fill="#27783d" stroke="#27783d" stroke-width="1.51"/><path d="M-322,164L-259,342L-88,162Z" fill="#caeac5" stroke="#caeac5" stroke-width="1.51"/><path d="M-88,162L-259,342L-60,319Z" fill="#c2e7bd" stroke="#c2e7bd" stroke-width="1.51"/><path d="M1710,174L1664,-18L1479,139Z" fill="#68a16c" stroke="#68a16c" stroke-width="1.51"/><path d="M1866,-21L1664,-18L1710,174Z" fill="#68986b" stroke="#68986b" stroke-width="1.51"/><path d="M-280,760L-311,935L-78,915Z" fill="#8dbf93" stroke="#8dbf93" stroke-width="1.51"/><path d="M-295,569L-311,935L-280,760Z" fill="#97ca9d" stroke="#97ca9d" stroke-width="1.51"/><path d="M105,-58L-106,-59L-88,162Z" fill="#d6efcf" stroke="#d6efcf" stroke-width="1.51"/><path d="M349,-255L111,-263L275,-46Z" fill="#d3eece" stroke="#d3eece" stroke-width="1.51"/><path d="M487,-271L111,-263L349,-255Z" fill="#d2edcd" stroke="#d2edcd" stroke-width="1.51"/><path d="M-112,-288L111,-263L487,-271Z" fill="#ddf2d8" stroke="#ddf2d8" stroke-width="1.51"/><path d="M111,-263L-106,-59L105,-58Z" fill="#dcf2d6" stroke="#dcf2d6" stroke-width="1.51"/><path d="M1743,1091L1922,911L1690,967Z" fill="#045e27" stroke="#045e27" stroke-width="1.51"/><path d="M1467,1317L1719,1353L1490,1176Z" fill="#005723" stroke="#005723" stroke-width="1.51"/><path d="M1333,1374L1719,1353L1467,1317Z" fill="#015a25" stroke="#015a25" stroke-width="1.51"/><path d="M1873,1104L1922,911L1743,1091Z" fill="#015924" stroke="#015924" stroke-width="1.51"/><path d="M1861,791L1922,911L1868,500Z" fill="#1a6f35" stroke="#1a6f35" stroke-width="1.51"/><path d="M1886,1323L1873,1104L1743,1091Z" fill="#004b1e" stroke="#004b1e" stroke-width="1.51"/><path d="M1922,911L1920,356L1868,500Z" fill="#2a793e" stroke="#2a793e" stroke-width="1.51"/><path d="M1868,500L1920,356L1724,365Z" fill="#41844a" stroke="#41844a" stroke-width="1.51"/><path d="M1753,-248L1555,-221L1664,-18Z" fill="#7ba67e" stroke="#7ba67e" stroke-width="1.51"/><path d="M1664,-18L1555,-221L1481,-34Z" fill="#79ac7c" stroke="#79ac7c" stroke-width="1.51"/><path d="M-311,935L-308,1119L-83,1118Z" fill="#83b086" stroke="#83b086" stroke-width="1.51"/><path d="M1920,356L1896,189L1724,365Z" fill="#4d8953" stroke="#4d8953" stroke-width="1.51"/><path d="M-295,569L-322,164L-311,935Z" fill="#aad9ab" stroke="#aad9ab" stroke-width="1.51"/><path d="M-259,342L-322,164L-295,569Z" fill="#bee4ba" stroke="#bee4ba" stroke-width="1.51"/><path d="M-239,-17L-322,164L-88,162Z" fill="#d6efd0" stroke="#d6efd0" stroke-width="1.51"/><path d="M-106,-59L-239,-17L-88,162Z" fill="#daf1d4" stroke="#daf1d4" stroke-width="1.51"/><path d="M-112,-288L-239,-17L-106,-59Z" fill="#e6f5e0" stroke="#e6f5e0" stroke-width="1.51"/><path d="M-84,1318L-276,1368L141,1362Z" fill="#739875" stroke="#739875" stroke-width="1.51"/><path d="M141,1362L-276,1368L531,1370Z" fill="#68946a" stroke="#68946a" stroke-width="1.51"/><path d="M531,1370L-276,1368L1333,1374Z" fill="#4c8852" stroke="#4c8852" stroke-width="1.51"/><path d="M-308,1119L-276,1368L-84,1318Z" fill="#789a7b" stroke="#789a7b" stroke-width="1.51"/><path d="M1719,1353L1886,1323L1743,1091Z" fill="#00461c" stroke="#00461c" stroke-width="1.51"/><path d="M1873,1104L1886,1323L1922,911Z" fill="#005120" stroke="#005120" stroke-width="1.51"/><path d="M1950,-269L1866,-21L1896,189Z" fill="#6c956f" stroke="#6c956f" stroke-width="1.51"/><path d="M1896,189L1866,-21L1710,174Z" fill="#609063" stroke="#609063" stroke-width="1.51"/><path d="M111,-263L-112,-288L-106,-59Z" fill="#e4f5df" stroke="#e4f5df" stroke-width="1.51"/><path d="M1131,-291L-112,-288L487,-271Z" fill="#c6e8c1" stroke="#c6e8c1" stroke-width="1.51"/><path d="M1866,-21L1753,-248L1664,-18Z" fill="#739b75" stroke="#739b75" stroke-width="1.51"/><path d="M1555,-221L1753,-248L1305,-291Z" fill="#84b287" stroke="#84b287" stroke-width="1.51"/><path d="M-112,-288L-315,-294L-239,-17Z" fill="#ecf8e8" stroke="#ecf8e8" stroke-width="1.51"/><path d="M-239,-17L-315,-294L-322,164Z" fill="#e5f5e0" stroke="#e5f5e0" stroke-width="1.51"/><path d="M1131,-291L-315,-294L-112,-288Z" fill="#d9f0d4" stroke="#d9f0d4" stroke-width="1.51"/><path d="M1305,-291L-315,-294L1131,-291Z" fill="#b6e0b3" stroke="#b6e0b3" stroke-width="1.51"/><path d="M1866,-21L1950,-269L1753,-248Z" fill="#769979" stroke="#769979" stroke-width="1.51"/><path d="M1753,-248L1950,-269L1305,-291Z" fill="#7fa783" stroke="#7fa783" stroke-width="1.51"/><path d="M1920,356L1950,-269L1896,189Z" fill="#629165" stroke="#629165" stroke-width="1.51"/><path d="M1922,911L1950,-269L1920,356Z" fill="#4a8750" stroke="#4a8750" stroke-width="1.51"/></svg>