<?xml version="1.0" encoding="utf-8"?>
<!-- Generator: Adobe Illustrator 22.1.0, SVG Export Plug-In . SVG Version: 6.00 Build 0)  -->
<svg version="1.1" id="Livello_1" xmlns="http://www.w3.org/2000/svg" xmlns:xlink="http://www.w3.org/1999/xlink" x="0px" y="0px"
	 viewBox="0 0 1485 1485" style="enable-background:new 0 0 1485 1485;" xml:space="preserve">
<style type="text/css">
	.st0{clip-path:url(#SVGID_2_);fill:none;}
	.st1{clip-path:url(#SVGID_4_);fill:none;}
	.st2{clip-path:url(#SVGID_6_);fill:#1A1A1A;}
	.st3{clip-path:url(#SVGID_8_);fill:#1A1A1A;}
</style>
<g>
	<g>
		<g>
			<g>
				<defs>
					<rect id="SVGID_1_" y="-1" width="1485" height="1485.8"/>
				</defs>
				<clipPath id="SVGID_2_">
					<use xlink:href="#SVGID_1_"  style="overflow:visible;"/>
				</clipPath>
				<rect y="-1" class="st0" width="1485" height="1485.8"/>
			</g>
		</g>
	</g>
</g>
<g>
	<g>
		<g>
			<g>
				<defs>
					<rect id="SVGID_3_" y="-1" width="1485" height="1485"/>
				</defs>
				<clipPath id="SVGID_4_">
					<use xlink:href="#SVGID_3_"  style="overflow:visible;"/>
				</clipPath>
				<rect y="-1" class="st1" width="1485" height="1485"/>
			</g>
		</g>
	</g>
</g>
<g>
	<g>
		<g>
			<g>
				<defs>
					<polygon id="SVGID_5_" points="0,792.2 105.2,1484 788.3,1484 1485,1378.1 1485,695 1379.2,-1 691,-1 0,104.1 					"/>
				</defs>
				<clipPath id="SVGID_6_">
					<use xlink:href="#SVGID_5_"  style="overflow:visible;"/>
				</clipPath>
				<path class="st2" d="M809.1,1181.8c-243,36.9-470.7-130.7-507.6-373.6s130.7-470.7,373.6-507.6
					c243-36.9,470.7,130.7,507.6,373.6C1219.7,917.1,1052.1,1144.8,809.1,1181.8z M1399.1,817.3l85.9-32.9l-0.3-92l-84.8-31.8
					l-68.6-19l-7.7-38.2l54.8-43.3l66.7-63.2l-35.5-84.8l-90.6,3l-70.6,8.7l-21.8-32.3l34-61l37.5-84l-65.3-64.8l-82.5,37.5
					l-61.9,35.1l-32.5-21.5l8.1-69.4l2.5-91.9l-85.1-34.9l-61.9,66.2l-43.8,56.1l-38.3-7.5l-19-67.2l-33-85.9l-92,0.3l-31.8,84.8
					l-19,68.6l-38.2,7.7L561.1,105l-63.2-66.7L413,73.8l3,90.6l8.7,70.6l-32.3,21.8l-61-34l-84-37.5l-64.8,65.3l37.5,82.5l35.1,61.9
					l-21.5,32.5l-69.4-8.1l-91.9-2.5L37.5,502l66.2,61.9l56.1,43.8l-7.5,38.3l-67.2,19l-85.9,32.9l0.3,92l84.8,31.9l68.6,19
					l7.7,38.2L106,922.1l-66.7,63.3l35.5,84.8l90.6-3l70.6-8.7l21.8,32.3l-34,61l-37.5,84l65.3,64.8l82.5-37.5L396,1228l32.5,21.5
					l-8.1,69.4l-2.5,91.9l85.1,34.9l61.9-66.2l43.8-56.1l38.3,7.5l19,67.2l32.9,85.9l92-0.3l31.9-84.8l19-68.6l38.2-7.7l43.3,54.8
					l63.3,66.7l84.8-35.5l-3-90.6l-8.7-70.6l32.3-21.8l61,34l84,37.5l64.8-65.3l-37.5-82.5l-35.1-61.9l21.5-32.5l69.4,8.1l91.9,2.5
					l34.9-85.1l-66.2-61.9l-56.1-43.8l7.5-38.3L1399.1,817.3z"/>
			</g>
		</g>
	</g>
	<g>
		<g>
			<g>
				<defs>
					<polygon id="SVGID_7_" points="0,792.2 105.2,1484 788.3,1484 1485,1378.1 1485,695 1379.2,-1 691,-1 0,104.1 					"/>
				</defs>
				<clipPath id="SVGID_8_">
					<use xlink:href="#SVGID_7_"  style="overflow:visible;"/>
				</clipPath>
				<path class="st3" d="M783.7,1014.7c-150.8,22.9-292.2-81.1-315.1-231.9s81.1-292.2,231.9-315.1s292.2,81.1,315.1,231.9
					C1038.6,850.4,934.5,991.7,783.7,1014.7z M679.6,329.8c-226.8,34.5-383.3,247-348.8,473.8s247,383.3,473.8,348.8
					s383.3-247,348.8-473.8C1119,451.8,906.4,295.3,679.6,329.8z"/>
			</g>
		</g>
	</g>
</g>
</svg>
