<?xml version="1.0" encoding="utf-8"?>
<!-- Generator: Adobe Illustrator 22.1.0, SVG Export Plug-In . SVG Version: 6.00 Build 0)  -->
<svg version="1.1"
	 id="Layer_1" inkscape:output_extension="org.inkscape.output.svg.inkscape" inkscape:version="0.46" sodipodi:docname="Fullmetal_Alchemist_Anime_Logo.svg" sodipodi:version="0.32" xmlns:cc="http://creativecommons.org/ns#" xmlns:dc="http://purl.org/dc/elements/1.1/" xmlns:inkscape="http://www.inkscape.org/namespaces/inkscape" xmlns:rdf="http://www.w3.org/1999/02/22-rdf-syntax-ns#" xmlns:sodipodi="http://sodipodi.sourceforge.net/DTD/sodipodi-0.dtd" xmlns:svg="http://www.w3.org/2000/svg"
	 xmlns="http://www.w3.org/2000/svg" xmlns:xlink="http://www.w3.org/1999/xlink" x="0px" y="0px" viewBox="0 0 2449.7 2494.9"
	 style="enable-background:new 0 0 2449.7 2494.9;" xml:space="preserve">
<style type="text/css">
	.st0{fill:#D20303;}
</style>
<defs>
	
	
		<inkscape:perspective  id="perspective32" inkscape:persp3d-origin="200.7345 : 136.292 : 1" inkscape:vp_x="0 : 204.438 : 1" inkscape:vp_y="0 : 1000 : 0" inkscape:vp_z="401.46899 : 204.438 : 1" sodipodi:type="inkscape:persp3d">
		</inkscape:perspective>
</defs>
<sodipodi:namedview  bordercolor="#666666" borderopacity="1.0" gridtolerance="10.0" guidetolerance="10.0" id="base" inkscape:current-layer="Layer_1" inkscape:cx="200.7345" inkscape:cy="204.438" inkscape:pageopacity="0.0" inkscape:pageshadow="2" inkscape:window-height="669" inkscape:window-width="640" inkscape:window-x="115" inkscape:window-y="95" inkscape:zoom="1.1299269" objecttolerance="10.0" pagecolor="#ffffff" showgrid="false">
	</sodipodi:namedview>
<path id="path5" class="st0" d="M0,12.7c0,0,331.4,199.7,531.2,178.5c0,0,76.5,284.7,242.2,352.7c0-4.2-272-93.5-356.9-55.2
	c-4.3,0,114.7-204-272-233.7c0,4.2,93.5-110.5-140.2-199.7C8.5,59.5,0,12.7,0,12.7z"/>
<path id="path7" class="st0" d="M2449.7,0c0,0-331.4,199.7-531.1,178.5c0,0-76.5,284.7-242.2,352.7c0-4.2,271.9-93.5,356.9-55.2
	c4.2,0-114.7-204,271.9-233.7c0,4.2-93.5-110.5,140.2-199.7C2441.2,46.7,2449.7,0,2449.7,0z"/>
<path id="path9" class="st0" d="M195.5,1786.8c0,0-102-235.8,38.2-675.7c0,0-242.2-159.3-210.3-191.2
	c12.7-63.7,267.7,108.4,286.8,63.7c19.1-44.6-274.1-299.6-248.6-363.3s346.3,250.7,384.6,225.2c38.2-25.5-121.1-242.2-87.1-265.6
	c16.6-11.4,201.8,170,240.1,157.2c38.2-12.7,507.8-314.4,1030.4-40.4c0,0,188-133.9,200.8-121.1c19.1,19.1-102,200.8-102,200.8
	s9.6,41.4,41.4,47.8c31.9,6.4,248.6-172.1,267.7-143.4c19.1,28.7-191.2,213.5-133.9,264.5c57.4,51,248.6-121.1,280.5-79.7
	c31.9,41.4-181.7,172.1-175.3,207.2c583,1571.8-1705.6,1994.3-1568,481.2c0,0-32.9,893.4,829.7,804.2
	c808.4-106.2,744.7-1100.6,182.7-1285.4c-618.2-163.6-794.7,288.1-795,290.5c-42.1,100.4-31.1,301,4.7,344.7
	c38.2,46.8-163.1-36.1-163.1-36.1l60.5-79.7l-65.3-54.2l36.6-36.6l-57.4-76.5l60.6-70.1l-149.8-79.7l52.6,92.4l-90.8,105.2L401,1543
	l-57.4,73.3l25.5,57.4l-57.4,65.3L195.5,1786.8z M286.3,1308.8c-25.5,0-46.2,20.7-46.2,46.2c0,25.5,20.7,46.2,46.2,46.2
	c25.5,0,46.2-20.7,46.2-46.2C332.5,1329.5,311.8,1308.8,286.3,1308.8z"/>
<g id="g11">
	<polygon id="polygon13" class="st0" points="1757.1,2029 1505.2,1597.2 1439.8,1636 1487.1,1717.8 1355.1,1946.2 1277.2,1946.2 
		1276.3,2031.2 	"/>
	<polygon id="polygon15" class="st0" points="1163,1946.2 1091,1946.2 959,1717.8 997,1651.9 928.9,1613.9 689,2033.8 
		1162.2,2031.7 	"/>
	<polygon id="polygon17" class="st0" points="1054.2,1553.1 1091,1489.4 1355.1,1489.4 1382.7,1537.1 1447.7,1498.6 1218.9,1106.4 
		985.6,1514.8 	"/>
</g>
<g id="g19">
	<polygon id="polygon21" class="st0" points="1079.4,2070.3 1216.7,2286.4 1352.1,2069.1 	"/>
	<polygon id="polygon23" class="st0" points="1596.2,1677.4 1747,1435.4 1455.8,1436.7 	"/>
	<polygon id="polygon25" class="st0" points="984.9,1438.8 678.9,1440.2 839.6,1693.1 	"/>
</g>
</svg>
