<svg xmlns="http://www.w3.org/2000/svg" width="1440" height="900"><path d="M702,607L709,252L330,330Z" fill="#59bdc1" stroke="#59bdc1" stroke-width="1.51"/><path d="M330,330L292,578L702,607Z" fill="#5fbcc0" stroke="#5fbcc0" stroke-width="1.51"/><path d="M702,607L1026,207L709,252Z" fill="#4cb4c2" stroke="#4cb4c2" stroke-width="1.51"/><path d="M292,578L294,953L702,607Z" fill="#58aebe" stroke="#58aebe" stroke-width="1.51"/><path d="M330,330L32,599L292,578Z" fill="#7dc6bd" stroke="#7dc6bd" stroke-width="1.51"/><path d="M330,330L-2,241L32,599Z" fill="#90d0bc" stroke="#90d0bc" stroke-width="1.51"/><path d="M334,-121L-2,241L330,330Z" fill="#9ad6b9" stroke="#9ad6b9" stroke-width="1.51"/><path d="M334,-121L330,330L709,252Z" fill="#7fccbc" stroke="#7fccbc" stroke-width="1.51"/><path d="M1026,207L777,-111L709,252Z" fill="#6cbdbf" stroke="#6cbdbf" stroke-width="1.51"/><path d="M32,599L294,953L292,578Z" fill="#78b8bc" stroke="#78b8bc" stroke-width="1.51"/><path d="M777,-111L334,-121L709,252Z" fill="#89cebc" stroke="#89cebc" stroke-width="1.51"/><path d="M702,607L1129,643L1026,207Z" fill="#35a6c3" stroke="#35a6c3" stroke-width="1.51"/><path d="M294,953L659,1016L702,607Z" fill="#4c9cba" stroke="#4c9cba" stroke-width="1.51"/><path d="M1104,999L1129,643L702,607Z" fill="#2392c0" stroke="#2392c0" stroke-width="1.51"/><path d="M1026,207L1022,-38L777,-111Z" fill="#79bcbd" stroke="#79bcbd" stroke-width="1.51"/><path d="M1507,-72L1022,-38L1026,207Z" fill="#73a9b7" stroke="#73a9b7" stroke-width="1.51"/><path d="M334,-121L4,-75L-2,241Z" fill="#b7e2b6" stroke="#b7e2b6" stroke-width="1.51"/><path d="M389,1368L729,1360L659,1016Z" fill="#4c79ab" stroke="#4c79ab" stroke-width="1.51"/><path d="M32,599L48,1018L294,953Z" fill="#81acb6" stroke="#81acb6" stroke-width="1.51"/><path d="M-367,670L48,1018L32,599Z" fill="#93bcb9" stroke="#93bcb9" stroke-width="1.51"/><path d="M659,1016L1104,999L702,607Z" fill="#308fbb" stroke="#308fbb" stroke-width="1.51"/><path d="M-2,241L-311,222L32,599Z" fill="#a4d8ba" stroke="#a4d8ba" stroke-width="1.51"/><path d="M4,-75L-311,222L-2,241Z" fill="#b8e2b6" stroke="#b8e2b6" stroke-width="1.51"/><path d="M334,-121L-54,-481L4,-75Z" fill="#d0ecb4" stroke="#d0ecb4" stroke-width="1.51"/><path d="M4,-75L-405,-79L-311,222Z" fill="#cceab5" stroke="#cceab5" stroke-width="1.51"/><path d="M700,-458L364,-450L334,-121Z" fill="#b4dfb8" stroke="#b4dfb8" stroke-width="1.51"/><path d="M700,-458L334,-121L777,-111Z" fill="#a2d7bb" stroke="#a2d7bb" stroke-width="1.51"/><path d="M1094,-492L700,-458L777,-111Z" fill="#a1cebb" stroke="#a1cebb" stroke-width="1.51"/><path d="M1022,-38L1094,-492L777,-111Z" fill="#93c3bb" stroke="#93c3bb" stroke-width="1.51"/><path d="M1129,643L1469,297L1026,207Z" fill="#4198bb" stroke="#4198bb" stroke-width="1.51"/><path d="M1460,706L1469,297L1129,643Z" fill="#3182b6" stroke="#3182b6" stroke-width="1.51"/><path d="M-311,222L-367,670L32,599Z" fill="#a3d2bb" stroke="#a3d2bb" stroke-width="1.51"/><path d="M389,1368L659,1016L294,953Z" fill="#5889af" stroke="#5889af" stroke-width="1.51"/><path d="M659,1016L1016,1353L1104,999Z" fill="#3073b0" stroke="#3073b0" stroke-width="1.51"/><path d="M1420,989L1129,643L1104,999Z" fill="#2373b2" stroke="#2373b2" stroke-width="1.51"/><path d="M1420,989L1460,706L1129,643Z" fill="#2373b2" stroke="#2373b2" stroke-width="1.51"/><path d="M48,1018L389,1368L294,953Z" fill="#7190ad" stroke="#7190ad" stroke-width="1.51"/><path d="M-52,1326L389,1368L48,1018Z" fill="#7f8aa8" stroke="#7f8aa8" stroke-width="1.51"/><path d="M1479,1381L1420,989L1104,999Z" fill="#2556a4" stroke="#2556a4" stroke-width="1.51"/><path d="M729,1360L1016,1353L659,1016Z" fill="#3a70ad" stroke="#3a70ad" stroke-width="1.51"/><path d="M700,-458L-54,-481L364,-450Z" fill="#c4e7bd" stroke="#c4e7bd" stroke-width="1.51"/><path d="M1507,-72L1094,-492L1022,-38Z" fill="#8eafb5" stroke="#8eafb5" stroke-width="1.51"/><path d="M-311,222L-405,-79L-367,670Z" fill="#b6e0c0" stroke="#b6e0c0" stroke-width="1.51"/><path d="M-54,-481L-405,-79L4,-75Z" fill="#def2b3" stroke="#def2b3" stroke-width="1.51"/><path d="M-345,1285L-52,1326L48,1018Z" fill="#9193a8" stroke="#9193a8" stroke-width="1.51"/><path d="M1469,297L1507,-72L1026,207Z" fill="#6097b3" stroke="#6097b3" stroke-width="1.51"/><path d="M1765,200L1507,-72L1469,297Z" fill="#6386ab" stroke="#6386ab" stroke-width="1.51"/><path d="M364,-450L-54,-481L334,-121Z" fill="#cceab4" stroke="#cceab4" stroke-width="1.51"/><path d="M1094,-492L-54,-481L700,-458Z" fill="#b2ddc2" stroke="#b2ddc2" stroke-width="1.51"/><path d="M-367,670L-440,989L48,1018Z" fill="#9ab2b5" stroke="#9ab2b5" stroke-width="1.51"/><path d="M-405,-79L-440,989L-367,670Z" fill="#a7d3c6" stroke="#a7d3c6" stroke-width="1.51"/><path d="M729,1360L736,1642L1016,1353Z" fill="#2d6496" stroke="#2d6496" stroke-width="1.51"/><path d="M1755,1360L1757,948L1420,989Z" fill="#26439b" stroke="#26439b" stroke-width="1.51"/><path d="M389,1368L736,1642L729,1360Z" fill="#3e6c95" stroke="#3e6c95" stroke-width="1.51"/><path d="M358,1773L736,1642L389,1368Z" fill="#446c8a" stroke="#446c8a" stroke-width="1.51"/><path d="M-440,989L-345,1285L48,1018Z" fill="#989ead" stroke="#989ead" stroke-width="1.51"/><path d="M10,1762L358,1773L389,1368Z" fill="#5e7588" stroke="#5e7588" stroke-width="1.51"/><path d="M1814,591L1469,297L1460,706Z" fill="#3874af" stroke="#3874af" stroke-width="1.51"/><path d="M1814,591L1765,200L1469,297Z" fill="#4976aa" stroke="#4976aa" stroke-width="1.51"/><path d="M1767,-125L1457,-464L1507,-72Z" fill="#8d93a9" stroke="#8d93a9" stroke-width="1.51"/><path d="M1507,-72L1457,-464L1094,-492Z" fill="#97a6af" stroke="#97a6af" stroke-width="1.51"/><path d="M1757,948L1814,591L1460,706Z" fill="#2b5fa9" stroke="#2b5fa9" stroke-width="1.51"/><path d="M-54,-481L-348,-489L-405,-79Z" fill="#edf8b3" stroke="#edf8b3" stroke-width="1.51"/><path d="M1094,-492L-348,-489L-54,-481Z" fill="#cfecbd" stroke="#cfecbd" stroke-width="1.51"/><path d="M1420,989L1757,948L1460,706Z" fill="#275ca7" stroke="#275ca7" stroke-width="1.51"/><path d="M1479,1381L1104,999L1016,1353Z" fill="#2956a5" stroke="#2956a5" stroke-width="1.51"/><path d="M1020,1710L1479,1381L1016,1353Z" fill="#1d4c8c" stroke="#1d4c8c" stroke-width="1.51"/><path d="M1765,200L1767,-125L1507,-72Z" fill="#7785a7" stroke="#7785a7" stroke-width="1.51"/><path d="M1806,-395L1767,-125L2212,-148Z" fill="#7d818d" stroke="#7d818d" stroke-width="1.51"/><path d="M10,1762L389,1368L-52,1326Z" fill="#717c8d" stroke="#717c8d" stroke-width="1.51"/><path d="M736,1642L1020,1710L1016,1353Z" fill="#225a8c" stroke="#225a8c" stroke-width="1.51"/><path d="M358,1773L1020,1710L736,1642Z" fill="#2f668d" stroke="#2f668d" stroke-width="1.51"/><path d="M-370,1649L10,1762L-52,1326Z" fill="#7d8086" stroke="#7d8086" stroke-width="1.51"/><path d="M1767,-125L1806,-395L1457,-464Z" fill="#948ea6" stroke="#948ea6" stroke-width="1.51"/><path d="M2212,-148L1767,-125L1765,200Z" fill="#6c7b8f" stroke="#6c7b8f" stroke-width="1.51"/><path d="M1818,1649L1755,1360L1479,1381Z" fill="#1a2b7c" stroke="#1a2b7c" stroke-width="1.51"/><path d="M1479,1381L1755,1360L1420,989Z" fill="#263e99" stroke="#263e99" stroke-width="1.51"/><path d="M2215,618L2179,280L1814,591Z" fill="#2b628c" stroke="#2b628c" stroke-width="1.51"/><path d="M-440,989L-370,1649L-345,1285Z" fill="#978faa" stroke="#978faa" stroke-width="1.51"/><path d="M-345,1285L-370,1649L-52,1326Z" fill="#8c8895" stroke="#8c8895" stroke-width="1.51"/><path d="M1020,1710L1457,1714L1479,1381Z" fill="#173f80" stroke="#173f80" stroke-width="1.51"/><path d="M358,1773L1457,1714L1020,1710Z" fill="#21598b" stroke="#21598b" stroke-width="1.51"/><path d="M2215,618L1814,591L1757,948Z" fill="#1e5790" stroke="#1e5790" stroke-width="1.51"/><path d="M1814,591L2179,280L1765,200Z" fill="#3d6c92" stroke="#3d6c92" stroke-width="1.51"/><path d="M2231,978L2215,618L1757,948Z" fill="#194985" stroke="#194985" stroke-width="1.51"/><path d="M2179,280L2212,-148L1765,200Z" fill="#567288" stroke="#567288" stroke-width="1.51"/><path d="M2215,618L2212,-148L2179,280Z" fill="#456d8a" stroke="#456d8a" stroke-width="1.51"/><path d="M1457,1714L1818,1649L1479,1381Z" fill="#172e78" stroke="#172e78" stroke-width="1.51"/><path d="M2158,1363L2231,978L1757,948Z" fill="#17357b" stroke="#17357b" stroke-width="1.51"/><path d="M2158,1363L1757,948L1755,1360Z" fill="#1c2f80" stroke="#1c2f80" stroke-width="1.51"/><path d="M2215,618L2231,978L2212,-148Z" fill="#2b638d" stroke="#2b638d" stroke-width="1.51"/><path d="M1818,1649L2158,1363L1755,1360Z" fill="#102267" stroke="#102267" stroke-width="1.51"/><path d="M2212,-148L2167,-502L1806,-395Z" fill="#828186" stroke="#828186" stroke-width="1.51"/><path d="M1806,-395L2167,-502L1457,-464Z" fill="#908a9e" stroke="#908a9e" stroke-width="1.51"/><path d="M1457,-464L2167,-502L1094,-492Z" fill="#9a98b1" stroke="#9a98b1" stroke-width="1.51"/><path d="M1094,-492L2167,-502L-348,-489Z" fill="#a2c9c4" stroke="#a2c9c4" stroke-width="1.51"/><path d="M1818,1649L2091,1752L2158,1363Z" fill="#081d58" stroke="#081d58" stroke-width="1.51"/><path d="M2158,1363L2091,1752L2231,978Z" fill="#11246a" stroke="#11246a" stroke-width="1.51"/><path d="M1457,1714L2091,1752L1818,1649Z" fill="#11246a" stroke="#11246a" stroke-width="1.51"/><path d="M358,1773L2091,1752L1457,1714Z" fill="#174081" stroke="#174081" stroke-width="1.51"/></svg>