<svg xmlns="http://www.w3.org/2000/svg" width="1440" height="900"><path d="M593,582L891,600L888,338Z" fill="#eeeef3" stroke="#eeeef3" stroke-width="1.51"/><path d="M888,338L517,290L593,582Z" fill="#faf2e8" stroke="#faf2e8" stroke-width="1.51"/><path d="M888,338L893,13L517,290Z" fill="#fae3ca" stroke="#fae3ca" stroke-width="1.51"/><path d="M1195,567L1138,246L888,338Z" fill="#e2dae0" stroke="#e2dae0" stroke-width="1.51"/><path d="M891,600L1195,567L888,338Z" fill="#e1e2ef" stroke="#e1e2ef" stroke-width="1.51"/><path d="M1138,246L893,13L888,338Z" fill="#eed5c2" stroke="#eed5c2" stroke-width="1.51"/><path d="M593,582L529,908L891,600Z" fill="#e3dee7" stroke="#e3dee7" stroke-width="1.51"/><path d="M891,600L1165,910L1195,567Z" fill="#c9c8e1" stroke="#c9c8e1" stroke-width="1.51"/><path d="M204,579L529,908L593,582Z" fill="#e8d3c8" stroke="#e8d3c8" stroke-width="1.51"/><path d="M529,908L903,952L891,600Z" fill="#d1cee3" stroke="#d1cee3" stroke-width="1.51"/><path d="M893,13L553,2L517,290Z" fill="#ffd7aa" stroke="#ffd7aa" stroke-width="1.51"/><path d="M517,290L204,579L593,582Z" fill="#fae6d0" stroke="#fae6d0" stroke-width="1.51"/><path d="M277,-1L233,314L517,290Z" fill="#ffce93" stroke="#ffce93" stroke-width="1.51"/><path d="M233,314L204,579L517,290Z" fill="#ffdbb3" stroke="#ffdbb3" stroke-width="1.51"/><path d="M903,952L1165,910L891,600Z" fill="#c3c1dd" stroke="#c3c1dd" stroke-width="1.51"/><path d="M893,13L852,-312L553,2Z" fill="#f3bb8b" stroke="#f3bb8b" stroke-width="1.51"/><path d="M1138,246L1171,-11L893,13Z" fill="#e9c0a4" stroke="#e9c0a4" stroke-width="1.51"/><path d="M1545,30L1171,-11L1138,246Z" fill="#d7aa9a" stroke="#d7aa9a" stroke-width="1.51"/><path d="M244,-287L277,-1L553,2Z" fill="#f3aa5a" stroke="#f3aa5a" stroke-width="1.51"/><path d="M553,2L277,-1L517,290Z" fill="#ffcc8d" stroke="#ffcc8d" stroke-width="1.51"/><path d="M204,579L237,924L529,908Z" fill="#dfbcae" stroke="#dfbcae" stroke-width="1.51"/><path d="M529,908L545,1212L903,952Z" fill="#bcadc8" stroke="#bcadc8" stroke-width="1.51"/><path d="M301,1239L545,1212L529,908Z" fill="#b58fa6" stroke="#b58fa6" stroke-width="1.51"/><path d="M903,952L1137,1184L1165,910Z" fill="#a49bc6" stroke="#a49bc6" stroke-width="1.51"/><path d="M545,1212L904,1225L903,952Z" fill="#aa95c4" stroke="#aa95c4" stroke-width="1.51"/><path d="M-49,274L-18,604L233,314Z" fill="#f9c18c" stroke="#f9c18c" stroke-width="1.51"/><path d="M233,314L-18,604L204,579Z" fill="#f9caa0" stroke="#f9caa0" stroke-width="1.51"/><path d="M204,579L-18,604L237,924Z" fill="#e7b798" stroke="#e7b798" stroke-width="1.51"/><path d="M1195,567L1531,337L1138,246Z" fill="#d0c4d4" stroke="#d0c4d4" stroke-width="1.51"/><path d="M1471,925L1523,625L1195,567Z" fill="#aca4cc" stroke="#aca4cc" stroke-width="1.51"/><path d="M1471,925L1195,567L1165,910Z" fill="#aea6cf" stroke="#aea6cf" stroke-width="1.51"/><path d="M1179,-310L852,-312L893,13Z" fill="#dba280" stroke="#dba280" stroke-width="1.51"/><path d="M1523,625L1531,337L1195,567Z" fill="#bbb4d3" stroke="#bbb4d3" stroke-width="1.51"/><path d="M852,-312L570,-320L553,2Z" fill="#e9ad7d" stroke="#e9ad7d" stroke-width="1.51"/><path d="M904,1225L1137,1184L903,952Z" fill="#9f8cc0" stroke="#9f8cc0" stroke-width="1.51"/><path d="M-24,-21L-49,274L233,314Z" fill="#f6b164" stroke="#f6b164" stroke-width="1.51"/><path d="M-24,-21L233,314L277,-1Z" fill="#fab35f" stroke="#fab35f" stroke-width="1.51"/><path d="M1137,1184L1471,925L1165,910Z" fill="#958bbc" stroke="#958bbc" stroke-width="1.51"/><path d="M545,1212L301,1239L904,1225Z" fill="#a682a9" stroke="#a682a9" stroke-width="1.51"/><path d="M237,924L301,1239L529,908Z" fill="#c29b9e" stroke="#c29b9e" stroke-width="1.51"/><path d="M-90,1235L301,1239L237,924Z" fill="#b47277" stroke="#b47277" stroke-width="1.51"/><path d="M1171,-11L1179,-310L893,13Z" fill="#dfa482" stroke="#dfa482" stroke-width="1.51"/><path d="M852,-312L1853,-353L570,-320Z" fill="#c28975" stroke="#c28975" stroke-width="1.51"/><path d="M1524,-299L1179,-310L1171,-11Z" fill="#c18370" stroke="#c18370" stroke-width="1.51"/><path d="M1777,292L1545,30L1531,337Z" fill="#b68a9e" stroke="#b68a9e" stroke-width="1.51"/><path d="M1531,337L1545,30L1138,246Z" fill="#c8a8aa" stroke="#c8a8aa" stroke-width="1.51"/><path d="M570,-320L244,-287L553,2Z" fill="#e8a463" stroke="#e8a463" stroke-width="1.51"/><path d="M-18,604L-66,880L237,924Z" fill="#d9a186" stroke="#d9a186" stroke-width="1.51"/><path d="M-318,598L-66,880L-18,604Z" fill="#d79c7e" stroke="#d79c7e" stroke-width="1.51"/><path d="M244,-287L-24,-21L277,-1Z" fill="#ec9738" stroke="#ec9738" stroke-width="1.51"/><path d="M1784,609L1777,292L1531,337Z" fill="#aa8bba" stroke="#aa8bba" stroke-width="1.51"/><path d="M1784,609L1531,337L1523,625Z" fill="#a996c4" stroke="#a996c4" stroke-width="1.51"/><path d="M1825,941L1784,609L1523,625Z" fill="#8f74b3" stroke="#8f74b3" stroke-width="1.51"/><path d="M1471,925L1825,941L1523,625Z" fill="#8c78b4" stroke="#8c78b4" stroke-width="1.51"/><path d="M1137,1184L1467,1253L1471,925Z" fill="#7e68a9" stroke="#7e68a9" stroke-width="1.51"/><path d="M904,1225L1467,1253L1137,1184Z" fill="#856aab" stroke="#856aab" stroke-width="1.51"/><path d="M301,1239L1467,1253L904,1225Z" fill="#987db3" stroke="#987db3" stroke-width="1.51"/><path d="M-397,311L-318,598L-49,274Z" fill="#e0a477" stroke="#e0a477" stroke-width="1.51"/><path d="M-49,274L-318,598L-18,604Z" fill="#e9af85" stroke="#e9af85" stroke-width="1.51"/><path d="M1545,30L1524,-299L1171,-11Z" fill="#c18171" stroke="#c18171" stroke-width="1.51"/><path d="M1854,-6L1524,-299L1545,30Z" fill="#ac6063" stroke="#ac6063" stroke-width="1.51"/><path d="M-359,22L-397,311L-49,274Z" fill="#dc9554" stroke="#dc9554" stroke-width="1.51"/><path d="M244,-287L-16,-353L-24,-21Z" fill="#d97f22" stroke="#d97f22" stroke-width="1.51"/><path d="M570,-320L-16,-353L244,-287Z" fill="#d6893f" stroke="#d6893f" stroke-width="1.51"/><path d="M1853,-353L-16,-353L570,-320Z" fill="#d39c7d" stroke="#d39c7d" stroke-width="1.51"/><path d="M1853,-353L852,-312L1179,-310Z" fill="#b1756b" stroke="#b1756b" stroke-width="1.51"/><path d="M-368,1204L-90,1235L-66,880Z" fill="#a2595d" stroke="#a2595d" stroke-width="1.51"/><path d="M-66,880L-90,1235L237,924Z" fill="#bd7e71" stroke="#bd7e71" stroke-width="1.51"/><path d="M301,1239L-90,1235L1467,1253Z" fill="#a57fa3" stroke="#a57fa3" stroke-width="1.51"/><path d="M-359,22L-49,274L-24,-21Z" fill="#e4943f" stroke="#e4943f" stroke-width="1.51"/><path d="M1467,1253L1825,941L1471,925Z" fill="#725ba0" stroke="#725ba0" stroke-width="1.51"/><path d="M1784,609L1854,-6L1777,292Z" fill="#a37a9b" stroke="#a37a9b" stroke-width="1.51"/><path d="M-349,-308L-359,22L-24,-21Z" fill="#cc7010" stroke="#cc7010" stroke-width="1.51"/><path d="M1825,941L1854,-6L1784,609Z" fill="#987eaf" stroke="#987eaf" stroke-width="1.51"/><path d="M1777,292L1854,-6L1545,30Z" fill="#ae6e80" stroke="#ae6e80" stroke-width="1.51"/><path d="M-318,598L-416,867L-66,880Z" fill="#c28673" stroke="#c28673" stroke-width="1.51"/><path d="M-397,311L-416,867L-318,598Z" fill="#c8947a" stroke="#c8947a" stroke-width="1.51"/><path d="M-416,867L-368,1204L-66,880Z" fill="#a76863" stroke="#a76863" stroke-width="1.51"/><path d="M1825,941L1852,1239L1854,-6Z" fill="#8369a2" stroke="#8369a2" stroke-width="1.51"/><path d="M1467,1253L1852,1239L1825,941Z" fill="#5b328d" stroke="#5b328d" stroke-width="1.51"/><path d="M-16,-353L-349,-308L-24,-21Z" fill="#c86b0d" stroke="#c86b0d" stroke-width="1.51"/><path d="M-359,22L-349,-308L-397,311Z" fill="#c97829" stroke="#c97829" stroke-width="1.51"/><path d="M1854,-6L1853,-353L1524,-299Z" fill="#944352" stroke="#944352" stroke-width="1.51"/><path d="M1524,-299L1853,-353L1179,-310Z" fill="#9d5b5d" stroke="#9d5b5d" stroke-width="1.51"/></svg>