<svg xmlns="http://www.w3.org/2000/svg" width="1440" height="900"><path d="M754,507L674,571L827,679Z" fill="#e5eef4" stroke="#e5eef4" stroke-width="1.51"/><path d="M674,571L635,693L827,679Z" fill="#deeaf1" stroke="#deeaf1" stroke-width="1.51"/><path d="M827,679L968,626L754,507Z" fill="#dae9f2" stroke="#dae9f2" stroke-width="1.51"/><path d="M754,507L530,428L674,571Z" fill="#f3f0ee" stroke="#f3f0ee" stroke-width="1.51"/><path d="M1029,376L771,324L754,507Z" fill="#eceeee" stroke="#eceeee" stroke-width="1.51"/><path d="M968,626L1029,376L754,507Z" fill="#dfebf3" stroke="#dfebf3" stroke-width="1.51"/><path d="M827,679L1038,695L968,626Z" fill="#c5deed" stroke="#c5deed" stroke-width="1.51"/><path d="M955,910L1038,695L827,679Z" fill="#b4d6e7" stroke="#b4d6e7" stroke-width="1.51"/><path d="M771,324L530,428L754,507Z" fill="#f9f2ef" stroke="#f9f2ef" stroke-width="1.51"/><path d="M674,571L458,694L635,693Z" fill="#e1e2e3" stroke="#e1e2e3" stroke-width="1.51"/><path d="M530,428L458,694L674,571Z" fill="#eee6e1" stroke="#eee6e1" stroke-width="1.51"/><path d="M756,1050L955,910L827,679Z" fill="#a6c9e1" stroke="#a6c9e1" stroke-width="1.51"/><path d="M1290,565L1029,376L968,626Z" fill="#c4ddeb" stroke="#c4ddeb" stroke-width="1.51"/><path d="M756,1050L827,679L635,693Z" fill="#bfd9e8" stroke="#bfd9e8" stroke-width="1.51"/><path d="M458,694L539,890L635,693Z" fill="#cfd4d8" stroke="#cfd4d8" stroke-width="1.51"/><path d="M458,694L478,890L539,890Z" fill="#c5c7cc" stroke="#c5c7cc" stroke-width="1.51"/><path d="M530,428L372,624L458,694Z" fill="#ecdbd2" stroke="#ecdbd2" stroke-width="1.51"/><path d="M539,890L756,1050L635,693Z" fill="#b6cada" stroke="#b6cada" stroke-width="1.51"/><path d="M149,821L478,890L458,694Z" fill="#c9bab8" stroke="#c9bab8" stroke-width="1.51"/><path d="M530,428L374,344L372,624Z" fill="#f9dcd0" stroke="#f9dcd0" stroke-width="1.51"/><path d="M771,324L593,201L530,428Z" fill="#fbe6d9" stroke="#fbe6d9" stroke-width="1.51"/><path d="M818,81L593,201L771,324Z" fill="#fadbcd" stroke="#fadbcd" stroke-width="1.51"/><path d="M603,1173L756,1050L539,890Z" fill="#a2b1ce" stroke="#a2b1ce" stroke-width="1.51"/><path d="M593,201L374,344L530,428Z" fill="#fdddca" stroke="#fdddca" stroke-width="1.51"/><path d="M1038,695L1290,565L968,626Z" fill="#b5d7e8" stroke="#b5d7e8" stroke-width="1.51"/><path d="M955,910L1231,721L1038,695Z" fill="#9dcae1" stroke="#9dcae1" stroke-width="1.51"/><path d="M1316,947L1231,721L955,910Z" fill="#7cb5d6" stroke="#7cb5d6" stroke-width="1.51"/><path d="M374,344L279,603L372,624Z" fill="#f2cfc0" stroke="#f2cfc0" stroke-width="1.51"/><path d="M372,624L149,821L458,694Z" fill="#d8bfb7" stroke="#d8bfb7" stroke-width="1.51"/><path d="M1072,139L818,81L771,324Z" fill="#edd2c6" stroke="#edd2c6" stroke-width="1.51"/><path d="M1231,721L1290,565L1038,695Z" fill="#a2cae1" stroke="#a2cae1" stroke-width="1.51"/><path d="M1029,376L1072,139L771,324Z" fill="#e5ddd9" stroke="#e5ddd9" stroke-width="1.51"/><path d="M1224,123L1072,139L1029,376Z" fill="#d1c7c5" stroke="#d1c7c5" stroke-width="1.51"/><path d="M756,1050L782,1167L955,910Z" fill="#93b1d5" stroke="#93b1d5" stroke-width="1.51"/><path d="M603,1173L782,1167L756,1050Z" fill="#97a8ce" stroke="#97a8ce" stroke-width="1.51"/><path d="M1290,565L1301,384L1029,376Z" fill="#bbd5e5" stroke="#bbd5e5" stroke-width="1.51"/><path d="M478,890L603,1173L539,890Z" fill="#a9b3c6" stroke="#a9b3c6" stroke-width="1.51"/><path d="M423,1191L603,1173L478,890Z" fill="#a3a1bb" stroke="#a3a1bb" stroke-width="1.51"/><path d="M447,52L374,344L593,201Z" fill="#fbc7ae" stroke="#fbc7ae" stroke-width="1.51"/><path d="M262,157L240,297L374,344Z" fill="#f9bb9f" stroke="#f9bb9f" stroke-width="1.51"/><path d="M374,344L240,297L279,603Z" fill="#f9cab5" stroke="#f9cab5" stroke-width="1.51"/><path d="M818,81L654,-19L593,201Z" fill="#f8c6b3" stroke="#f8c6b3" stroke-width="1.51"/><path d="M853,-102L654,-19L818,81Z" fill="#edb1a4" stroke="#edb1a4" stroke-width="1.51"/><path d="M782,1167L1102,1142L955,910Z" fill="#84a7d0" stroke="#84a7d0" stroke-width="1.51"/><path d="M1231,721L1420,634L1290,565Z" fill="#90bcda" stroke="#90bcda" stroke-width="1.51"/><path d="M654,-19L447,52L593,201Z" fill="#f7bba3" stroke="#f7bba3" stroke-width="1.51"/><path d="M1177,1122L1316,947L955,910Z" fill="#68a4cd" stroke="#68a4cd" stroke-width="1.51"/><path d="M1290,565L1386,396L1301,384Z" fill="#a8c6de" stroke="#a8c6de" stroke-width="1.51"/><path d="M-38,554L149,821L279,603Z" fill="#d9a59e" stroke="#d9a59e" stroke-width="1.51"/><path d="M279,603L149,821L372,624Z" fill="#dcb9b0" stroke="#dcb9b0" stroke-width="1.51"/><path d="M1420,634L1386,396L1290,565Z" fill="#99bddb" stroke="#99bddb" stroke-width="1.51"/><path d="M1301,384L1224,123L1029,376Z" fill="#c4cbd1" stroke="#c4cbd1" stroke-width="1.51"/><path d="M1464,767L1420,634L1231,721Z" fill="#7cafd3" stroke="#7cafd3" stroke-width="1.51"/><path d="M1102,1142L1177,1122L955,910Z" fill="#70a0cc" stroke="#70a0cc" stroke-width="1.51"/><path d="M1072,139L853,-102L818,81Z" fill="#e5b6aa" stroke="#e5b6aa" stroke-width="1.51"/><path d="M1527,166L1224,123L1301,384Z" fill="#adacb9" stroke="#adacb9" stroke-width="1.51"/><path d="M447,52L262,157L374,344Z" fill="#f8b798" stroke="#f8b798" stroke-width="1.51"/><path d="M240,297L0,374L279,603Z" fill="#f3b7a6" stroke="#f3b7a6" stroke-width="1.51"/><path d="M603,1173L847,1328L782,1167Z" fill="#8996b7" stroke="#8996b7" stroke-width="1.51"/><path d="M221,1144L423,1191L478,890Z" fill="#a592a7" stroke="#a592a7" stroke-width="1.51"/><path d="M654,-19L403,-108L447,52Z" fill="#efa18a" stroke="#efa18a" stroke-width="1.51"/><path d="M1036,-142L853,-102L1072,139Z" fill="#d8a39b" stroke="#d8a39b" stroke-width="1.51"/><path d="M1316,947L1464,767L1231,721Z" fill="#68a8cf" stroke="#68a8cf" stroke-width="1.51"/><path d="M1420,634L1617,629L1386,396Z" fill="#91afd4" stroke="#91afd4" stroke-width="1.51"/><path d="M1517,979L1464,767L1316,947Z" fill="#4b90c2" stroke="#4b90c2" stroke-width="1.51"/><path d="M782,1167L847,1328L1102,1142Z" fill="#7b91b7" stroke="#7b91b7" stroke-width="1.51"/><path d="M1102,1142L1097,1378L1177,1122Z" fill="#5983ae" stroke="#5983ae" stroke-width="1.51"/><path d="M633,1457L847,1328L603,1173Z" fill="#858ba7" stroke="#858ba7" stroke-width="1.51"/><path d="M149,821L143,1020L478,890Z" fill="#b49b9f" stroke="#b49b9f" stroke-width="1.51"/><path d="M143,1020L221,1144L478,890Z" fill="#a98f9c" stroke="#a98f9c" stroke-width="1.51"/><path d="M423,1191L397,1326L603,1173Z" fill="#918499" stroke="#918499" stroke-width="1.51"/><path d="M1167,-81L1036,-142L1072,139Z" fill="#cb9d98" stroke="#cb9d98" stroke-width="1.51"/><path d="M1224,123L1167,-81L1072,139Z" fill="#c7a8a5" stroke="#c7a8a5" stroke-width="1.51"/><path d="M1369,-119L1167,-81L1224,123Z" fill="#b48c90" stroke="#b48c90" stroke-width="1.51"/><path d="M447,52L249,-112L262,157Z" fill="#ed9676" stroke="#ed9676" stroke-width="1.51"/><path d="M361,-248L403,-108L571,-335Z" fill="#d77869" stroke="#d77869" stroke-width="1.51"/><path d="M571,-335L654,-19L853,-102Z" fill="#e5998f" stroke="#e5998f" stroke-width="1.51"/><path d="M-41,153L240,297L262,157Z" fill="#ee9a7f" stroke="#ee9a7f" stroke-width="1.51"/><path d="M-41,153L0,374L240,297Z" fill="#eb9983" stroke="#eb9983" stroke-width="1.51"/><path d="M149,821L-19,967L143,1020Z" fill="#a87e88" stroke="#a87e88" stroke-width="1.51"/><path d="M0,374L-38,554L279,603Z" fill="#e7a79b" stroke="#e7a79b" stroke-width="1.51"/><path d="M221,1144L397,1326L423,1191Z" fill="#937787" stroke="#937787" stroke-width="1.51"/><path d="M-38,554L-24,818L149,821Z" fill="#c8918f" stroke="#c8918f" stroke-width="1.51"/><path d="M143,1020L42,1221L221,1144Z" fill="#99687f" stroke="#99687f" stroke-width="1.51"/><path d="M1464,767L1617,629L1420,634Z" fill="#7ba3ce" stroke="#7ba3ce" stroke-width="1.51"/><path d="M1436,1229L1517,979L1316,947Z" fill="#347cb8" stroke="#347cb8" stroke-width="1.51"/><path d="M1436,1229L1316,947L1177,1122Z" fill="#3e82bb" stroke="#3e82bb" stroke-width="1.51"/><path d="M847,1328L1097,1378L1102,1142Z" fill="#647ea2" stroke="#647ea2" stroke-width="1.51"/><path d="M633,1457L1097,1378L847,1328Z" fill="#7887a7" stroke="#7887a7" stroke-width="1.51"/><path d="M1713,688L1617,629L1464,767Z" fill="#7095c0" stroke="#7095c0" stroke-width="1.51"/><path d="M1386,396L1527,166L1301,384Z" fill="#a7b1c7" stroke="#a7b1c7" stroke-width="1.51"/><path d="M397,1326L633,1457L603,1173Z" fill="#898197" stroke="#898197" stroke-width="1.51"/><path d="M-24,818L-19,967L149,821Z" fill="#b18187" stroke="#b18187" stroke-width="1.51"/><path d="M221,1144L242,1431L397,1326Z" fill="#8a6471" stroke="#8a6471" stroke-width="1.51"/><path d="M-247,895L-19,967L-24,818Z" fill="#a46c79" stroke="#a46c79" stroke-width="1.51"/><path d="M1685,352L1527,166L1386,396Z" fill="#a0a2bf" stroke="#a0a2bf" stroke-width="1.51"/><path d="M403,-108L249,-112L447,52Z" fill="#e78a6f" stroke="#e78a6f" stroke-width="1.51"/><path d="M361,-248L249,-112L403,-108Z" fill="#dc7560" stroke="#dc7560" stroke-width="1.51"/><path d="M1036,-142L890,-271L853,-102Z" fill="#d4908c" stroke="#d4908c" stroke-width="1.51"/><path d="M978,-294L890,-271L1036,-142Z" fill="#c58485" stroke="#c58485" stroke-width="1.51"/><path d="M1266,1385L1436,1229L1177,1122Z" fill="#366b9c" stroke="#366b9c" stroke-width="1.51"/><path d="M571,-335L403,-108L654,-19Z" fill="#e38f7f" stroke="#e38f7f" stroke-width="1.51"/><path d="M1177,-304L978,-294L1036,-142Z" fill="#b77c81" stroke="#b77c81" stroke-width="1.51"/><path d="M1177,-304L1036,-142L1167,-81Z" fill="#bb8185" stroke="#bb8185" stroke-width="1.51"/><path d="M15,-90L-41,153L262,157Z" fill="#e0785e" stroke="#e0785e" stroke-width="1.51"/><path d="M0,374L-252,536L-38,554Z" fill="#dd918b" stroke="#dd918b" stroke-width="1.51"/><path d="M1097,1378L1266,1385L1177,1122Z" fill="#49719b" stroke="#49719b" stroke-width="1.51"/><path d="M633,1457L1266,1385L1097,1378Z" fill="#677fa3" stroke="#677fa3" stroke-width="1.51"/><path d="M1527,166L1369,-119L1224,123Z" fill="#ab8d98" stroke="#ab8d98" stroke-width="1.51"/><path d="M249,-112L15,-90L262,157Z" fill="#e0755b" stroke="#e0755b" stroke-width="1.51"/><path d="M571,-335L853,-102L890,-271Z" fill="#d68d89" stroke="#d68d89" stroke-width="1.51"/><path d="M1617,629L1685,352L1386,396Z" fill="#96a9d0" stroke="#96a9d0" stroke-width="1.51"/><path d="M1517,979L1713,688L1464,767Z" fill="#5a8ec0" stroke="#5a8ec0" stroke-width="1.51"/><path d="M1721,1040L1713,688L1517,979Z" fill="#3c75a9" stroke="#3c75a9" stroke-width="1.51"/><path d="M397,1326L242,1431L633,1457Z" fill="#8a7586" stroke="#8a7586" stroke-width="1.51"/><path d="M-19,967L42,1221L143,1020Z" fill="#9a667c" stroke="#9a667c" stroke-width="1.51"/><path d="M1527,166L1607,-16L1369,-119Z" fill="#a07689" stroke="#a07689" stroke-width="1.51"/><path d="M1916,491L1685,352L1617,629Z" fill="#828dad" stroke="#828dad" stroke-width="1.51"/><path d="M978,-294L571,-335L890,-271Z" fill="#c38485" stroke="#c38485" stroke-width="1.51"/><path d="M1693,1157L1721,1040L1517,979Z" fill="#23619f" stroke="#23619f" stroke-width="1.51"/><path d="M1266,1385L1434,1319L1436,1229Z" fill="#245c8f" stroke="#245c8f" stroke-width="1.51"/><path d="M42,1221L242,1431L221,1144Z" fill="#865566" stroke="#865566" stroke-width="1.51"/><path d="M1685,352L1633,140L1527,166Z" fill="#9a8ba1" stroke="#9a8ba1" stroke-width="1.51"/><path d="M1369,-119L1177,-304L1167,-81Z" fill="#ac767f" stroke="#ac767f" stroke-width="1.51"/><path d="M978,-294L1177,-304L571,-335Z" fill="#b98083" stroke="#b98083" stroke-width="1.51"/><path d="M-302,310L-252,536L0,374Z" fill="#d08782" stroke="#d08782" stroke-width="1.51"/><path d="M-38,554L-244,761L-24,818Z" fill="#c28283" stroke="#c28283" stroke-width="1.51"/><path d="M-19,967L-223,1098L42,1221Z" fill="#90536f" stroke="#90536f" stroke-width="1.51"/><path d="M-252,536L-244,761L-38,554Z" fill="#c28384" stroke="#c28384" stroke-width="1.51"/><path d="M148,-254L15,-90L249,-112Z" fill="#ce5547" stroke="#ce5547" stroke-width="1.51"/><path d="M-41,153L-302,310L0,374Z" fill="#dd8173" stroke="#dd8173" stroke-width="1.51"/><path d="M1369,-119L1426,-202L1177,-304Z" fill="#9c6675" stroke="#9c6675" stroke-width="1.51"/><path d="M1607,-16L1426,-202L1369,-119Z" fill="#996579" stroke="#996579" stroke-width="1.51"/><path d="M1819,194L1607,-16L1633,140Z" fill="#926f7e" stroke="#926f7e" stroke-width="1.51"/><path d="M1633,140L1607,-16L1527,166Z" fill="#9d7b8e" stroke="#9d7b8e" stroke-width="1.51"/><path d="M1693,1157L1517,979L1436,1229Z" fill="#2065aa" stroke="#2065aa" stroke-width="1.51"/><path d="M-244,761L-247,895L-24,818Z" fill="#a26f7a" stroke="#a26f7a" stroke-width="1.51"/><path d="M-302,310L-247,895L-244,761Z" fill="#aa787f" stroke="#aa787f" stroke-width="1.51"/><path d="M361,-248L148,-254L249,-112Z" fill="#d25f4f" stroke="#d25f4f" stroke-width="1.51"/><path d="M-18,-343L148,-254L361,-248Z" fill="#ba4841" stroke="#ba4841" stroke-width="1.51"/><path d="M1685,352L1785,307L1633,140Z" fill="#91859b" stroke="#91859b" stroke-width="1.51"/><path d="M1916,491L1785,307L1685,352Z" fill="#8787a1" stroke="#8787a1" stroke-width="1.51"/><path d="M1916,491L1617,629L1713,688Z" fill="#7486a8" stroke="#7486a8" stroke-width="1.51"/><path d="M1631,1377L1693,1157L1436,1229Z" fill="#134a85" stroke="#134a85" stroke-width="1.51"/><path d="M-247,895L-223,1098L-19,967Z" fill="#8c596f" stroke="#8c596f" stroke-width="1.51"/><path d="M42,1221L-27,1398L242,1431Z" fill="#7f4758" stroke="#7f4758" stroke-width="1.51"/><path d="M-252,536L-302,310L-244,761Z" fill="#b78082" stroke="#b78082" stroke-width="1.51"/><path d="M-221,56L-302,310L-41,153Z" fill="#c96a5d" stroke="#c96a5d" stroke-width="1.51"/><path d="M1880,1026L1867,816L1721,1040Z" fill="#265e90" stroke="#265e90" stroke-width="1.51"/><path d="M1721,1040L1867,816L1713,688Z" fill="#436d98" stroke="#436d98" stroke-width="1.51"/><path d="M-223,1098L-27,1398L42,1221Z" fill="#7b3a53" stroke="#7b3a53" stroke-width="1.51"/><path d="M-269,-138L-221,56L15,-90Z" fill="#ba3c39" stroke="#ba3c39" stroke-width="1.51"/><path d="M15,-90L-221,56L-41,153Z" fill="#d05a4b" stroke="#d05a4b" stroke-width="1.51"/><path d="M1785,307L1819,194L1633,140Z" fill="#8c7788" stroke="#8c7788" stroke-width="1.51"/><path d="M1607,-16L1626,-359L1426,-202Z" fill="#8d4d6c" stroke="#8d4d6c" stroke-width="1.51"/><path d="M1916,491L1819,194L1785,307Z" fill="#89839a" stroke="#89839a" stroke-width="1.51"/><path d="M1867,816L1916,491L1713,688Z" fill="#6880a4" stroke="#6880a4" stroke-width="1.51"/><path d="M1434,1319L1631,1377L1436,1229Z" fill="#194f88" stroke="#194f88" stroke-width="1.51"/><path d="M1693,1157L1809,1175L1721,1040Z" fill="#134b87" stroke="#134b87" stroke-width="1.51"/><path d="M1266,1385L1631,1377L1434,1319Z" fill="#1f558b" stroke="#1f558b" stroke-width="1.51"/><path d="M1940,1431L1631,1377L1266,1385Z" fill="#0f427b" stroke="#0f427b" stroke-width="1.51"/><path d="M1631,1377L1809,1175L1693,1157Z" fill="#0c3d72" stroke="#0c3d72" stroke-width="1.51"/><path d="M1809,1175L1880,1026L1721,1040Z" fill="#184e88" stroke="#184e88" stroke-width="1.51"/><path d="M1867,816L1880,1026L1916,491Z" fill="#52769e" stroke="#52769e" stroke-width="1.51"/><path d="M148,-254L-18,-343L15,-90Z" fill="#bd3837" stroke="#bd3837" stroke-width="1.51"/><path d="M571,-335L-18,-343L361,-248Z" fill="#be5e50" stroke="#be5e50" stroke-width="1.51"/><path d="M-27,1398L-141,1465L242,1431Z" fill="#7b3f53" stroke="#7b3f53" stroke-width="1.51"/><path d="M242,1431L-141,1465L633,1457Z" fill="#875e6b" stroke="#875e6b" stroke-width="1.51"/><path d="M-223,1098L-141,1465L-27,1398Z" fill="#6e2c46" stroke="#6e2c46" stroke-width="1.51"/><path d="M-18,-343L-269,-138L15,-90Z" fill="#b7252f" stroke="#b7252f" stroke-width="1.51"/><path d="M-221,56L-269,-138L-302,310Z" fill="#b35349" stroke="#b35349" stroke-width="1.51"/><path d="M1914,-124L1626,-359L1607,-16Z" fill="#7c3b53" stroke="#7c3b53" stroke-width="1.51"/><path d="M1426,-202L1626,-359L1177,-304Z" fill="#83546d" stroke="#83546d" stroke-width="1.51"/><path d="M1177,-304L1626,-359L571,-335Z" fill="#996f7a" stroke="#996f7a" stroke-width="1.51"/><path d="M571,-335L1626,-359L-18,-343Z" fill="#bd8284" stroke="#bd8284" stroke-width="1.51"/><path d="M1819,194L1914,-124L1607,-16Z" fill="#845464" stroke="#845464" stroke-width="1.51"/><path d="M1916,491L1914,-124L1819,194Z" fill="#8b7180" stroke="#8b7180" stroke-width="1.51"/><path d="M-18,-343L-289,-343L-269,-138Z" fill="#950e26" stroke="#950e26" stroke-width="1.51"/><path d="M-269,-138L-289,-343L-302,310Z" fill="#a23435" stroke="#a23435" stroke-width="1.51"/><path d="M1626,-359L-289,-343L-18,-343Z" fill="#ba6c63" stroke="#ba6c63" stroke-width="1.51"/><path d="M1916,491L1920,-251L1914,-124Z" fill="#865867" stroke="#865867" stroke-width="1.51"/><path d="M1914,-124L1920,-251L1626,-359Z" fill="#6b2b46" stroke="#6b2b46" stroke-width="1.51"/><path d="M1631,1377L1940,1431L1809,1175Z" fill="#053061" stroke="#053061" stroke-width="1.51"/><path d="M1809,1175L1940,1431L1880,1026Z" fill="#0b3b70" stroke="#0b3b70" stroke-width="1.51"/><path d="M1880,1026L1940,1431L1916,491Z" fill="#235b8e" stroke="#235b8e" stroke-width="1.51"/><path d="M1916,491L1940,1431L1920,-251Z" fill="#7887a8" stroke="#7887a8" stroke-width="1.51"/><path d="M633,1457L1940,1431L1266,1385Z" fill="#366694" stroke="#366694" stroke-width="1.51"/></svg>