<svg xmlns="http://www.w3.org/2000/svg" width="1440" height="900"><path d="M586,418L635,250L283,160Z" fill="#99b8d7" stroke="#99b8d7" stroke-width="1.51"/><path d="M283,160L188,347L586,418Z" fill="#a1bbda" stroke="#a1bbda" stroke-width="1.51"/><path d="M635,250L574,-64L283,160Z" fill="#a7bddb" stroke="#a7bddb" stroke-width="1.51"/><path d="M635,250L795,143L574,-64Z" fill="#99b8d8" stroke="#99b8d8" stroke-width="1.51"/><path d="M892,556L795,143L635,250Z" fill="#7dabd1" stroke="#7dabd1" stroke-width="1.51"/><path d="M188,347L362,743L586,418Z" fill="#8db2d5" stroke="#8db2d5" stroke-width="1.51"/><path d="M586,418L892,556L635,250Z" fill="#7aabd1" stroke="#7aabd1" stroke-width="1.51"/><path d="M188,347L-9,695L362,743Z" fill="#94b4d6" stroke="#94b4d6" stroke-width="1.51"/><path d="M-86,92L-34,412L188,347Z" fill="#b9c7e1" stroke="#b9c7e1" stroke-width="1.51"/><path d="M362,743L589,751L586,418Z" fill="#74a7ce" stroke="#74a7ce" stroke-width="1.51"/><path d="M589,751L801,661L586,418Z" fill="#69a3cc" stroke="#69a3cc" stroke-width="1.51"/><path d="M801,661L892,556L586,418Z" fill="#67a3cb" stroke="#67a3cb" stroke-width="1.51"/><path d="M574,-64L222,-228L283,160Z" fill="#bfc8e2" stroke="#bfc8e2" stroke-width="1.51"/><path d="M283,160L-86,92L188,347Z" fill="#bbc7e1" stroke="#bbc7e1" stroke-width="1.51"/><path d="M10,-96L-86,92L283,160Z" fill="#cacfe5" stroke="#cacfe5" stroke-width="1.51"/><path d="M222,-228L10,-96L283,160Z" fill="#cdcfe6" stroke="#cdcfe6" stroke-width="1.51"/><path d="M-34,412L-9,695L188,347Z" fill="#a5bedb" stroke="#a5bedb" stroke-width="1.51"/><path d="M-266,660L-9,695L-34,412Z" fill="#a4bedc" stroke="#a4bedc" stroke-width="1.51"/><path d="M795,143L953,-188L574,-64Z" fill="#9eb9d9" stroke="#9eb9d9" stroke-width="1.51"/><path d="M574,-64L366,-507L222,-228Z" fill="#c9d1e6" stroke="#c9d1e6" stroke-width="1.51"/><path d="M1225,193L953,-188L795,143Z" fill="#85add1" stroke="#85add1" stroke-width="1.51"/><path d="M-86,92L-302,213L-34,412Z" fill="#c4cfe5" stroke="#c4cfe5" stroke-width="1.51"/><path d="M-360,-240L-302,213L-86,92Z" fill="#dadbeb" stroke="#dadbeb" stroke-width="1.51"/><path d="M892,556L1225,193L795,143Z" fill="#6ea4cc" stroke="#6ea4cc" stroke-width="1.51"/><path d="M1157,734L1147,531L892,556Z" fill="#4392c2" stroke="#4392c2" stroke-width="1.51"/><path d="M1157,734L892,556L801,661Z" fill="#4795c3" stroke="#4795c3" stroke-width="1.51"/><path d="M1147,531L1225,193L892,556Z" fill="#5999c6" stroke="#5999c6" stroke-width="1.51"/><path d="M222,-228L55,-416L10,-96Z" fill="#dcdaeb" stroke="#dcdaeb" stroke-width="1.51"/><path d="M10,-96L-360,-240L-86,92Z" fill="#dfdcec" stroke="#dfdcec" stroke-width="1.51"/><path d="M489,-536L366,-507L574,-64Z" fill="#c8d2e7" stroke="#c8d2e7" stroke-width="1.51"/><path d="M366,-507L55,-416L222,-228Z" fill="#dbdbec" stroke="#dbdbec" stroke-width="1.51"/><path d="M-344,513L-266,660L-34,412Z" fill="#aec5df" stroke="#aec5df" stroke-width="1.51"/><path d="M953,-188L864,-411L574,-64Z" fill="#a7c0dc" stroke="#a7c0dc" stroke-width="1.51"/><path d="M1211,-384L864,-411L953,-188Z" fill="#9cbbd9" stroke="#9cbbd9" stroke-width="1.51"/><path d="M-302,213L-344,513L-34,412Z" fill="#bbcce3" stroke="#bbcce3" stroke-width="1.51"/><path d="M864,-411L489,-536L574,-64Z" fill="#b9cbe3" stroke="#b9cbe3" stroke-width="1.51"/><path d="M589,751L923,1121L801,661Z" fill="#4d92c2" stroke="#4d92c2" stroke-width="1.51"/><path d="M362,743L492,1115L589,751Z" fill="#6999c8" stroke="#6999c8" stroke-width="1.51"/><path d="M356,1115L492,1115L362,743Z" fill="#6b95c4" stroke="#6b95c4" stroke-width="1.51"/><path d="M356,1115L362,743L6,1042Z" fill="#7a9cc9" stroke="#7a9cc9" stroke-width="1.51"/><path d="M6,1042L362,743L-9,695Z" fill="#88a9d0" stroke="#88a9d0" stroke-width="1.51"/><path d="M1486,389L1398,82L1225,193Z" fill="#6692c1" stroke="#6692c1" stroke-width="1.51"/><path d="M923,1121L1157,734L801,661Z" fill="#3689be" stroke="#3689be" stroke-width="1.51"/><path d="M-323,957L6,1042L-9,695Z" fill="#91acd2" stroke="#91acd2" stroke-width="1.51"/><path d="M1225,193L1228,-223L953,-188Z" fill="#89a9d0" stroke="#89a9d0" stroke-width="1.51"/><path d="M6,1042L331,1230L356,1115Z" fill="#7694bd" stroke="#7694bd" stroke-width="1.51"/><path d="M356,1115L331,1230L492,1115Z" fill="#688eb9" stroke="#688eb9" stroke-width="1.51"/><path d="M492,1115L923,1121L589,751Z" fill="#518cbe" stroke="#518cbe" stroke-width="1.51"/><path d="M-302,213L-360,-240L-344,513Z" fill="#d1d8ea" stroke="#d1d8ea" stroke-width="1.51"/><path d="M55,-416L-360,-240L10,-96Z" fill="#e5e1ef" stroke="#e5e1ef" stroke-width="1.51"/><path d="M673,1394L923,1121L492,1115Z" fill="#4a82af" stroke="#4a82af" stroke-width="1.51"/><path d="M1225,193L1345,-138L1228,-223Z" fill="#83a1cc" stroke="#83a1cc" stroke-width="1.51"/><path d="M1486,389L1225,193L1147,531Z" fill="#5790c2" stroke="#5790c2" stroke-width="1.51"/><path d="M1398,82L1345,-138L1225,193Z" fill="#789ac8" stroke="#789ac8" stroke-width="1.51"/><path d="M-266,660L-323,957L-9,695Z" fill="#9bb7d8" stroke="#9bb7d8" stroke-width="1.51"/><path d="M6,1042L-2,1375L331,1230Z" fill="#7c94ba" stroke="#7c94ba" stroke-width="1.51"/><path d="M-344,513L-323,957L-266,660Z" fill="#a1bedc" stroke="#a1bedc" stroke-width="1.51"/><path d="M1345,-138L1211,-384L1228,-223Z" fill="#8ea9d1" stroke="#8ea9d1" stroke-width="1.51"/><path d="M1228,-223L1211,-384L953,-188Z" fill="#94b1d5" stroke="#94b1d5" stroke-width="1.51"/><path d="M864,-411L1559,-529L489,-536Z" fill="#a6c2dd" stroke="#a6c2dd" stroke-width="1.51"/><path d="M1493,832L1486,389L1147,531Z" fill="#3983b7" stroke="#3983b7" stroke-width="1.51"/><path d="M923,1121L1210,956L1157,734Z" fill="#217db7" stroke="#217db7" stroke-width="1.51"/><path d="M1493,832L1147,531L1157,734Z" fill="#2982b9" stroke="#2982b9" stroke-width="1.51"/><path d="M1398,82L1773,-144L1345,-138Z" fill="#7d97bf" stroke="#7d97bf" stroke-width="1.51"/><path d="M923,1121L1108,1225L1210,956Z" fill="#1e76ac" stroke="#1e76ac" stroke-width="1.51"/><path d="M331,1230L673,1394L492,1115Z" fill="#5c85af" stroke="#5c85af" stroke-width="1.51"/><path d="M-2,1375L673,1394L331,1230Z" fill="#6784a8" stroke="#6784a8" stroke-width="1.51"/><path d="M55,-416L-361,-528L-360,-240Z" fill="#f1ebf5" stroke="#f1ebf5" stroke-width="1.51"/><path d="M366,-507L-361,-528L55,-416Z" fill="#e9e5f1" stroke="#e9e5f1" stroke-width="1.51"/><path d="M489,-536L-361,-528L366,-507Z" fill="#e3e1ef" stroke="#e3e1ef" stroke-width="1.51"/><path d="M871,1382L1108,1225L923,1121Z" fill="#2875a5" stroke="#2875a5" stroke-width="1.51"/><path d="M1210,956L1493,832L1157,734Z" fill="#1a78b5" stroke="#1a78b5" stroke-width="1.51"/><path d="M-399,1316L-2,1375L6,1042Z" fill="#869bbc" stroke="#869bbc" stroke-width="1.51"/><path d="M673,1394L871,1382L923,1121Z" fill="#3a76a2" stroke="#3a76a2" stroke-width="1.51"/><path d="M1535,1014L1493,832L1210,956Z" fill="#0b6eaa" stroke="#0b6eaa" stroke-width="1.51"/><path d="M1345,-138L1559,-529L1211,-384Z" fill="#90a8cd" stroke="#90a8cd" stroke-width="1.51"/><path d="M1486,389L1715,263L1398,82Z" fill="#608bb7" stroke="#608bb7" stroke-width="1.51"/><path d="M1759,503L1715,263L1486,389Z" fill="#4d7faa" stroke="#4d7faa" stroke-width="1.51"/><path d="M1722,718L1759,503L1486,389Z" fill="#3b78a6" stroke="#3b78a6" stroke-width="1.51"/><path d="M1367,1312L1535,1014L1210,956Z" fill="#0568a3" stroke="#0568a3" stroke-width="1.51"/><path d="M1367,1312L1210,956L1108,1225Z" fill="#106ba4" stroke="#106ba4" stroke-width="1.51"/><path d="M-361,-528L-399,1316L-360,-240Z" fill="#d1d8ea" stroke="#d1d8ea" stroke-width="1.51"/><path d="M-360,-240L-399,1316L-344,513Z" fill="#b2c9e1" stroke="#b2c9e1" stroke-width="1.51"/><path d="M-344,513L-399,1316L-323,957Z" fill="#99b1d5" stroke="#99b1d5" stroke-width="1.51"/><path d="M-323,957L-399,1316L6,1042Z" fill="#8fa5c8" stroke="#8fa5c8" stroke-width="1.51"/><path d="M1722,718L1486,389L1493,832Z" fill="#2d78aa" stroke="#2d78aa" stroke-width="1.51"/><path d="M1535,1014L1722,718L1493,832Z" fill="#146ca3" stroke="#146ca3" stroke-width="1.51"/><path d="M1716,-340L1559,-529L1345,-138Z" fill="#8ba0c3" stroke="#8ba0c3" stroke-width="1.51"/><path d="M1211,-384L1559,-529L864,-411Z" fill="#99b3d6" stroke="#99b3d6" stroke-width="1.51"/><path d="M871,1382L1367,1312L1108,1225Z" fill="#18699a" stroke="#18699a" stroke-width="1.51"/><path d="M1535,1014L1693,1111L1722,718Z" fill="#07639a" stroke="#07639a" stroke-width="1.51"/><path d="M1715,263L1773,-144L1398,82Z" fill="#6e8db3" stroke="#6e8db3" stroke-width="1.51"/><path d="M1759,503L1773,-144L1715,263Z" fill="#5d7fa4" stroke="#5d7fa4" stroke-width="1.51"/><path d="M1773,-144L1716,-340L1345,-138Z" fill="#8298bb" stroke="#8298bb" stroke-width="1.51"/><path d="M1367,1312L1693,1111L1535,1014Z" fill="#045f96" stroke="#045f96" stroke-width="1.51"/><path d="M1722,718L1789,1261L1759,503Z" fill="#156393" stroke="#156393" stroke-width="1.51"/><path d="M1693,1111L1789,1261L1722,718Z" fill="#045a8d" stroke="#045a8d" stroke-width="1.51"/><path d="M1759,503L1789,1261L1773,-144Z" fill="#38719a" stroke="#38719a" stroke-width="1.51"/><path d="M1367,1312L1789,1261L1693,1111Z" fill="#04588a" stroke="#04588a" stroke-width="1.51"/><path d="M871,1382L1789,1261L1367,1312Z" fill="#045d92" stroke="#045d92" stroke-width="1.51"/></svg>