<svg xmlns="http://www.w3.org/2000/svg" width="1440" height="900"><path d="M819,555L823,345L622,550Z" fill="#9a95c6" stroke="#9a95c6" stroke-width="1.51"/><path d="M823,345L614,353L622,550Z" fill="#a39fcb" stroke="#a39fcb" stroke-width="1.51"/><path d="M614,353L417,562L622,550Z" fill="#a5a3cd" stroke="#a5a3cd" stroke-width="1.51"/><path d="M620,127L412,349L614,353Z" fill="#b4b4d7" stroke="#b4b4d7" stroke-width="1.51"/><path d="M412,349L417,562L614,353Z" fill="#aeacd2" stroke="#aeacd2" stroke-width="1.51"/><path d="M622,550L614,757L819,555Z" fill="#9490c4" stroke="#9490c4" stroke-width="1.51"/><path d="M417,562L614,757L622,550Z" fill="#9b99c9" stroke="#9b99c9" stroke-width="1.51"/><path d="M1038,552L1038,347L823,345Z" fill="#938fc3" stroke="#938fc3" stroke-width="1.51"/><path d="M1038,552L823,345L819,555Z" fill="#928ec3" stroke="#928ec3" stroke-width="1.51"/><path d="M823,345L620,127L614,353Z" fill="#acabd2" stroke="#acabd2" stroke-width="1.51"/><path d="M1039,141L819,131L823,345Z" fill="#a6a4cf" stroke="#a6a4cf" stroke-width="1.51"/><path d="M1033,767L1038,552L819,555Z" fill="#8480bc" stroke="#8480bc" stroke-width="1.51"/><path d="M614,757L824,767L819,555Z" fill="#8c86be" stroke="#8c86be" stroke-width="1.51"/><path d="M819,131L620,127L823,345Z" fill="#aeacd2" stroke="#aeacd2" stroke-width="1.51"/><path d="M1236,346L1039,141L1038,347Z" fill="#978fc4" stroke="#978fc4" stroke-width="1.51"/><path d="M1038,347L1039,141L823,345Z" fill="#9d9bca" stroke="#9d9bca" stroke-width="1.51"/><path d="M824,767L1033,767L819,555Z" fill="#837ebb" stroke="#837ebb" stroke-width="1.51"/><path d="M620,127L402,131L412,349Z" fill="#bebedd" stroke="#bebedd" stroke-width="1.51"/><path d="M196,758L398,768L417,562Z" fill="#a39fcd" stroke="#a39fcd" stroke-width="1.51"/><path d="M614,757L814,976L824,767Z" fill="#8577b7" stroke="#8577b7" stroke-width="1.51"/><path d="M824,767L1030,973L1033,767Z" fill="#786bb0" stroke="#786bb0" stroke-width="1.51"/><path d="M417,562L398,768L614,757Z" fill="#9b97c9" stroke="#9b97c9" stroke-width="1.51"/><path d="M189,559L417,562L412,349Z" fill="#b1afd4" stroke="#b1afd4" stroke-width="1.51"/><path d="M1038,552L1233,544L1038,347Z" fill="#887fbb" stroke="#887fbb" stroke-width="1.51"/><path d="M1231,755L1233,544L1038,552Z" fill="#7c70b4" stroke="#7c70b4" stroke-width="1.51"/><path d="M1233,544L1236,346L1038,347Z" fill="#8a7ebb" stroke="#8a7ebb" stroke-width="1.51"/><path d="M1031,-68L829,-65L819,131Z" fill="#b4b1d6" stroke="#b4b1d6" stroke-width="1.51"/><path d="M819,131L829,-65L620,127Z" fill="#b7b5d7" stroke="#b7b5d7" stroke-width="1.51"/><path d="M620,127L605,-80L402,131Z" fill="#c4c4df" stroke="#c4c4df" stroke-width="1.51"/><path d="M610,979L814,976L614,757Z" fill="#8574b5" stroke="#8574b5" stroke-width="1.51"/><path d="M829,-65L605,-80L620,127Z" fill="#c0bedc" stroke="#c0bedc" stroke-width="1.51"/><path d="M398,768L610,979L614,757Z" fill="#9184bf" stroke="#9184bf" stroke-width="1.51"/><path d="M203,139L191,338L412,349Z" fill="#c4c4e0" stroke="#c4c4e0" stroke-width="1.51"/><path d="M203,139L412,349L402,131Z" fill="#c6c6e1" stroke="#c6c6e1" stroke-width="1.51"/><path d="M191,338L189,559L412,349Z" fill="#bab9d9" stroke="#bab9d9" stroke-width="1.51"/><path d="M1233,544L1450,351L1236,346Z" fill="#8573b5" stroke="#8573b5" stroke-width="1.51"/><path d="M1033,767L1231,755L1038,552Z" fill="#7a6fb2" stroke="#7a6fb2" stroke-width="1.51"/><path d="M1240,965L1231,755L1033,767Z" fill="#6f5ba8" stroke="#6f5ba8" stroke-width="1.51"/><path d="M1039,141L1031,-68L819,131Z" fill="#aca9d2" stroke="#aca9d2" stroke-width="1.51"/><path d="M827,-291L615,-290L605,-80Z" fill="#cac7e1" stroke="#cac7e1" stroke-width="1.51"/><path d="M1235,-74L1031,-68L1039,141Z" fill="#aaa1ce" stroke="#aaa1ce" stroke-width="1.51"/><path d="M1236,346L1239,136L1039,141Z" fill="#998ec4" stroke="#998ec4" stroke-width="1.51"/><path d="M1453,139L1239,136L1236,346Z" fill="#9482be" stroke="#9482be" stroke-width="1.51"/><path d="M192,-65L203,139L402,131Z" fill="#d4d3e8" stroke="#d4d3e8" stroke-width="1.51"/><path d="M814,976L1030,973L824,767Z" fill="#7968af" stroke="#7968af" stroke-width="1.51"/><path d="M826,1180L1030,973L814,976Z" fill="#735ba9" stroke="#735ba9" stroke-width="1.51"/><path d="M189,559L196,758L417,562Z" fill="#aca9d2" stroke="#aca9d2" stroke-width="1.51"/><path d="M398,768L402,970L610,979Z" fill="#9182bd" stroke="#9182bd" stroke-width="1.51"/><path d="M605,-80L408,-77L402,131Z" fill="#cccce4" stroke="#cccce4" stroke-width="1.51"/><path d="M189,974L402,970L398,768Z" fill="#9989c1" stroke="#9989c1" stroke-width="1.51"/><path d="M610,979L606,1169L814,976Z" fill="#7f67af" stroke="#7f67af" stroke-width="1.51"/><path d="M407,1171L606,1169L610,979Z" fill="#846ab1" stroke="#846ab1" stroke-width="1.51"/><path d="M1030,973L1240,965L1033,767Z" fill="#6f5aa8" stroke="#6f5aa8" stroke-width="1.51"/><path d="M1454,553L1450,351L1233,544Z" fill="#7d68af" stroke="#7d68af" stroke-width="1.51"/><path d="M1036,1171L1240,965L1030,973Z" fill="#684ca1" stroke="#684ca1" stroke-width="1.51"/><path d="M827,-291L605,-80L829,-65Z" fill="#c3bfdd" stroke="#c3bfdd" stroke-width="1.51"/><path d="M1239,136L1235,-74L1039,141Z" fill="#a397c9" stroke="#a397c9" stroke-width="1.51"/><path d="M1239,136L1453,139L1235,-74Z" fill="#9e8cc3" stroke="#9e8cc3" stroke-width="1.51"/><path d="M1454,553L1233,544L1440,756Z" fill="#7360ab" stroke="#7360ab" stroke-width="1.51"/><path d="M1440,756L1233,544L1231,755Z" fill="#715faa" stroke="#715faa" stroke-width="1.51"/><path d="M408,-77L192,-65L402,131Z" fill="#d4d4e8" stroke="#d4d4e8" stroke-width="1.51"/><path d="M-16,144L-11,341L191,338Z" fill="#cecde5" stroke="#cecde5" stroke-width="1.51"/><path d="M191,338L-11,341L189,559Z" fill="#c1bfdd" stroke="#c1bfdd" stroke-width="1.51"/><path d="M606,1169L826,1180L814,976Z" fill="#785da9" stroke="#785da9" stroke-width="1.51"/><path d="M-16,144L191,338L203,139Z" fill="#d0d0e6" stroke="#d0d0e6" stroke-width="1.51"/><path d="M189,559L-3,770L196,758Z" fill="#aea9d2" stroke="#aea9d2" stroke-width="1.51"/><path d="M605,-80L409,-290L408,-77Z" fill="#d3d3e7" stroke="#d3d3e7" stroke-width="1.51"/><path d="M408,-77L200,-277L192,-65Z" fill="#dedeed" stroke="#dedeed" stroke-width="1.51"/><path d="M827,-291L829,-65L1024,-286Z" fill="#bebadb" stroke="#bebadb" stroke-width="1.51"/><path d="M1024,-286L829,-65L1031,-68Z" fill="#b7b3d7" stroke="#b7b3d7" stroke-width="1.51"/><path d="M196,758L189,974L398,768Z" fill="#a194c7" stroke="#a194c7" stroke-width="1.51"/><path d="M402,970L407,1171L610,979Z" fill="#8b74b6" stroke="#8b74b6" stroke-width="1.51"/><path d="M-11,341L-16,563L189,559Z" fill="#bfbcdb" stroke="#bfbcdb" stroke-width="1.51"/><path d="M-3,770L189,974L196,758Z" fill="#a899cb" stroke="#a899cb" stroke-width="1.51"/><path d="M1240,965L1440,756L1231,755Z" fill="#6a51a3" stroke="#6a51a3" stroke-width="1.51"/><path d="M826,1180L1036,1171L1030,973Z" fill="#6b52a3" stroke="#6b52a3" stroke-width="1.51"/><path d="M197,1173L407,1171L402,970Z" fill="#9076b8" stroke="#9076b8" stroke-width="1.51"/><path d="M613,1394L833,1380L826,1180Z" fill="#7051a1" stroke="#7051a1" stroke-width="1.51"/><path d="M1450,351L1453,139L1236,346Z" fill="#8c78b8" stroke="#8c78b8" stroke-width="1.51"/><path d="M1652,354L1453,139L1450,351Z" fill="#876db3" stroke="#876db3" stroke-width="1.51"/><path d="M1235,-74L1024,-286L1031,-68Z" fill="#b2a7d2" stroke="#b2a7d2" stroke-width="1.51"/><path d="M1241,-290L1024,-286L1235,-74Z" fill="#b2a4d0" stroke="#b2a4d0" stroke-width="1.51"/><path d="M-16,563L-3,770L189,559Z" fill="#b5b1d6" stroke="#b5b1d6" stroke-width="1.51"/><path d="M-11,341L-212,354L-16,563Z" fill="#c9c6e0" stroke="#c9c6e0" stroke-width="1.51"/><path d="M192,-65L-16,144L203,139Z" fill="#dad9eb" stroke="#dad9eb" stroke-width="1.51"/><path d="M192,-65L-13,-80L-16,144Z" fill="#e1e0ef" stroke="#e1e0ef" stroke-width="1.51"/><path d="M615,-290L409,-290L605,-80Z" fill="#d2d1e6" stroke="#d2d1e6" stroke-width="1.51"/><path d="M827,-291L409,-290L615,-290Z" fill="#d0cee4" stroke="#d0cee4" stroke-width="1.51"/><path d="M1441,1190L1443,967L1240,965Z" fill="#5c3695" stroke="#5c3695" stroke-width="1.51"/><path d="M1240,965L1443,967L1440,756Z" fill="#63449d" stroke="#63449d" stroke-width="1.51"/><path d="M1664,546L1652,354L1454,553Z" fill="#755aa8" stroke="#755aa8" stroke-width="1.51"/><path d="M409,-290L200,-277L408,-77Z" fill="#dddded" stroke="#dddded" stroke-width="1.51"/><path d="M1036,1171L1233,1184L1240,965Z" fill="#61419a" stroke="#61419a" stroke-width="1.51"/><path d="M1025,1381L1233,1184L1036,1171Z" fill="#5e3e98" stroke="#5e3e98" stroke-width="1.51"/><path d="M189,974L197,1173L402,970Z" fill="#977fbd" stroke="#977fbd" stroke-width="1.51"/><path d="M613,1394L826,1180L606,1169Z" fill="#7657a5" stroke="#7657a5" stroke-width="1.51"/><path d="M-2,1181L197,1173L189,974Z" fill="#9b7ebd" stroke="#9b7ebd" stroke-width="1.51"/><path d="M1024,-286L1241,-290L827,-291Z" fill="#b9b3d8" stroke="#b9b3d8" stroke-width="1.51"/><path d="M1441,-290L1241,-290L1235,-74Z" fill="#ac98ca" stroke="#ac98ca" stroke-width="1.51"/><path d="M200,-277L-13,-80L192,-65Z" fill="#e5e4f1" stroke="#e5e4f1" stroke-width="1.51"/><path d="M1648,127L1460,-82L1453,139Z" fill="#977cbc" stroke="#977cbc" stroke-width="1.51"/><path d="M1453,139L1460,-82L1235,-74Z" fill="#9f89c3" stroke="#9f89c3" stroke-width="1.51"/><path d="M-211,967L-14,979L-3,770Z" fill="#ac99ca" stroke="#ac99ca" stroke-width="1.51"/><path d="M-3,770L-14,979L189,974Z" fill="#a694c8" stroke="#a694c8" stroke-width="1.51"/><path d="M1454,553L1652,354L1450,351Z" fill="#7d62ad" stroke="#7d62ad" stroke-width="1.51"/><path d="M1664,546L1454,553L1655,768Z" fill="#6b51a2" stroke="#6b51a2" stroke-width="1.51"/><path d="M826,1180L1025,1381L1036,1171Z" fill="#65499d" stroke="#65499d" stroke-width="1.51"/><path d="M613,1394L606,1169L413,1398Z" fill="#7c5da9" stroke="#7c5da9" stroke-width="1.51"/><path d="M-16,144L-212,354L-11,341Z" fill="#d3d2e7" stroke="#d3d2e7" stroke-width="1.51"/><path d="M-16,563L-210,761L-3,770Z" fill="#b6b0d6" stroke="#b6b0d6" stroke-width="1.51"/><path d="M-209,129L-212,354L-16,144Z" fill="#dad9eb" stroke="#dad9eb" stroke-width="1.51"/><path d="M-212,354L-216,558L-16,563Z" fill="#c5c2de" stroke="#c5c2de" stroke-width="1.51"/><path d="M1655,768L1454,553L1440,756Z" fill="#694fa2" stroke="#694fa2" stroke-width="1.51"/><path d="M413,1398L606,1169L407,1171Z" fill="#8265ad" stroke="#8265ad" stroke-width="1.51"/><path d="M1652,354L1648,127L1453,139Z" fill="#8a6fb3" stroke="#8a6fb3" stroke-width="1.51"/><path d="M1662,-62L1648,127L1876,139Z" fill="#8f70b3" stroke="#8f70b3" stroke-width="1.51"/><path d="M613,1394L1025,1381L833,1380Z" fill="#6c4d9f" stroke="#6c4d9f" stroke-width="1.51"/><path d="M833,1380L1025,1381L826,1180Z" fill="#67499e" stroke="#67499e" stroke-width="1.51"/><path d="M-216,558L-210,761L-16,563Z" fill="#bcb8da" stroke="#bcb8da" stroke-width="1.51"/><path d="M1665,979L1655,768L1443,967Z" fill="#5a3594" stroke="#5a3594" stroke-width="1.51"/><path d="M1443,967L1655,768L1440,756Z" fill="#61409a" stroke="#61409a" stroke-width="1.51"/><path d="M-212,354L-213,-291L-216,558Z" fill="#dcdbec" stroke="#dcdbec" stroke-width="1.51"/><path d="M-13,-80L-209,129L-16,144Z" fill="#e2e2ef" stroke="#e2e2ef" stroke-width="1.51"/><path d="M205,1386L413,1398L407,1171Z" fill="#8869b0" stroke="#8869b0" stroke-width="1.51"/><path d="M205,1386L407,1171L197,1173Z" fill="#8e6fb4" stroke="#8e6fb4" stroke-width="1.51"/><path d="M1460,-82L1441,-290L1235,-74Z" fill="#a790c6" stroke="#a790c6" stroke-width="1.51"/><path d="M1241,-290L1661,-291L827,-291Z" fill="#b1a0ce" stroke="#b1a0ce" stroke-width="1.51"/><path d="M1661,-291L1441,-290L1460,-82Z" fill="#a588c3" stroke="#a588c3" stroke-width="1.51"/><path d="M-14,979L-2,1181L189,974Z" fill="#a086c1" stroke="#a086c1" stroke-width="1.51"/><path d="M-227,1185L-2,1181L-14,979Z" fill="#a285c1" stroke="#a285c1" stroke-width="1.51"/><path d="M1233,1184L1441,1190L1240,965Z" fill="#5b3595" stroke="#5b3595" stroke-width="1.51"/><path d="M1245,1393L1441,1190L1233,1184Z" fill="#542b8e" stroke="#542b8e" stroke-width="1.51"/><path d="M-13,-80L-209,-75L-209,129Z" fill="#e8e7f2" stroke="#e8e7f2" stroke-width="1.51"/><path d="M200,-277L-11,-289L-13,-80Z" fill="#ebeaf3" stroke="#ebeaf3" stroke-width="1.51"/><path d="M409,-290L-11,-289L200,-277Z" fill="#e8e7f2" stroke="#e8e7f2" stroke-width="1.51"/><path d="M-213,-291L-11,-289L409,-290Z" fill="#edecf4" stroke="#edecf4" stroke-width="1.51"/><path d="M1648,127L1662,-62L1460,-82Z" fill="#987bbb" stroke="#987bbb" stroke-width="1.51"/><path d="M1869,339L1648,127L1652,354Z" fill="#8063ac" stroke="#8063ac" stroke-width="1.51"/><path d="M-210,761L-211,967L-3,770Z" fill="#b1a2cf" stroke="#b1a2cf" stroke-width="1.51"/><path d="M-227,1185L-211,967L-210,761Z" fill="#ac95c9" stroke="#ac95c9" stroke-width="1.51"/><path d="M-209,129L-213,-291L-212,354Z" fill="#e6e5f1" stroke="#e6e5f1" stroke-width="1.51"/><path d="M-213,-291L-209,-75L-13,-80Z" fill="#efeef6" stroke="#efeef6" stroke-width="1.51"/><path d="M-2,1181L205,1386L197,1173Z" fill="#9475b6" stroke="#9475b6" stroke-width="1.51"/><path d="M1025,1381L1245,1393L1233,1184Z" fill="#5a3593" stroke="#5a3593" stroke-width="1.51"/><path d="M613,1394L1245,1393L1025,1381Z" fill="#63469c" stroke="#63469c" stroke-width="1.51"/><path d="M413,1398L1245,1393L613,1394Z" fill="#7051a1" stroke="#7051a1" stroke-width="1.51"/><path d="M1666,1177L1443,967L1441,1190Z" fill="#52248d" stroke="#52248d" stroke-width="1.51"/><path d="M1666,1177L1665,979L1443,967Z" fill="#53268d" stroke="#53268d" stroke-width="1.51"/><path d="M1655,768L1864,557L1664,546Z" fill="#66499d" stroke="#66499d" stroke-width="1.51"/><path d="M1865,768L1864,557L1655,768Z" fill="#604199" stroke="#604199" stroke-width="1.51"/><path d="M1664,546L1869,339L1652,354Z" fill="#7657a5" stroke="#7657a5" stroke-width="1.51"/><path d="M1864,557L1869,339L1664,546Z" fill="#7051a1" stroke="#7051a1" stroke-width="1.51"/><path d="M1864,557L1873,962L1869,339Z" fill="#65479d" stroke="#65479d" stroke-width="1.51"/><path d="M1665,979L1865,768L1655,768Z" fill="#593492" stroke="#593492" stroke-width="1.51"/><path d="M1662,1378L1666,1177L1441,1190Z" fill="#481384" stroke="#481384" stroke-width="1.51"/><path d="M1665,979L1873,962L1865,768Z" fill="#532b8e" stroke="#532b8e" stroke-width="1.51"/><path d="M-11,-289L-213,-291L-13,-80Z" fill="#f1eff7" stroke="#f1eff7" stroke-width="1.51"/><path d="M-209,-75L-213,-291L-209,129Z" fill="#edecf5" stroke="#edecf5" stroke-width="1.51"/><path d="M827,-291L-213,-291L409,-290Z" fill="#e0dfee" stroke="#e0dfee" stroke-width="1.51"/><path d="M-221,1391L-4,1394L-2,1181Z" fill="#9b79b9" stroke="#9b79b9" stroke-width="1.51"/><path d="M-2,1181L-4,1394L205,1386Z" fill="#9675b6" stroke="#9675b6" stroke-width="1.51"/><path d="M205,1386L-4,1394L413,1398Z" fill="#9070b4" stroke="#9070b4" stroke-width="1.51"/><path d="M1869,339L1876,139L1648,127Z" fill="#8465ae" stroke="#8465ae" stroke-width="1.51"/><path d="M1662,-62L1661,-291L1460,-82Z" fill="#9f81be" stroke="#9f81be" stroke-width="1.51"/><path d="M1873,962L1876,139L1869,339Z" fill="#7051a1" stroke="#7051a1" stroke-width="1.51"/><path d="M1441,-290L1661,-291L1241,-290Z" fill="#a98fc6" stroke="#a98fc6" stroke-width="1.51"/><path d="M1866,-75L1661,-291L1662,-62Z" fill="#9a79b9" stroke="#9a79b9" stroke-width="1.51"/><path d="M1245,1393L1454,1395L1441,1190Z" fill="#50228a" stroke="#50228a" stroke-width="1.51"/><path d="M413,1398L1454,1395L1245,1393Z" fill="#5f4099" stroke="#5f4099" stroke-width="1.51"/><path d="M-213,-291L-227,1185L-216,558Z" fill="#c8c4e0" stroke="#c8c4e0" stroke-width="1.51"/><path d="M-216,558L-227,1185L-210,761Z" fill="#b3a4d0" stroke="#b3a4d0" stroke-width="1.51"/><path d="M-211,967L-227,1185L-14,979Z" fill="#a78dc5" stroke="#a78dc5" stroke-width="1.51"/><path d="M1876,139L1866,-75L1662,-62Z" fill="#9271b5" stroke="#9271b5" stroke-width="1.51"/><path d="M1865,768L1873,962L1864,557Z" fill="#5c3a96" stroke="#5c3a96" stroke-width="1.51"/><path d="M1858,1185L1873,962L1665,979Z" fill="#4c1b87" stroke="#4c1b87" stroke-width="1.51"/><path d="M1666,1177L1858,1185L1665,979Z" fill="#491585" stroke="#491585" stroke-width="1.51"/><path d="M1454,1395L1662,1378L1441,1190Z" fill="#491585" stroke="#491585" stroke-width="1.51"/><path d="M-227,1185L-221,1391L-2,1181Z" fill="#9e7dbc" stroke="#9e7dbc" stroke-width="1.51"/><path d="M1876,139L1859,-286L1866,-75Z" fill="#9675b6" stroke="#9675b6" stroke-width="1.51"/><path d="M1866,-75L1859,-286L1661,-291Z" fill="#9c7aba" stroke="#9c7aba" stroke-width="1.51"/><path d="M1662,1378L1858,1185L1666,1177Z" fill="#43077f" stroke="#43077f" stroke-width="1.51"/><path d="M1662,1378L1872,1383L1858,1185Z" fill="#3f007d" stroke="#3f007d" stroke-width="1.51"/><path d="M1858,1185L1872,1383L1873,962Z" fill="#450c81" stroke="#450c81" stroke-width="1.51"/><path d="M1873,962L1872,1383L1876,139Z" fill="#583392" stroke="#583392" stroke-width="1.51"/><path d="M1454,1395L1872,1383L1662,1378Z" fill="#430980" stroke="#430980" stroke-width="1.51"/></svg>