<svg xmlns="http://www.w3.org/2000/svg" width="1440" height="900"><path d="M670,438L593,327L554,448Z" fill="#d779b9" stroke="#d779b9" stroke-width="1.51"/><path d="M670,438L703,304L593,327Z" fill="#d77cba" stroke="#d77cba" stroke-width="1.51"/><path d="M593,327L439,322L554,448Z" fill="#d187bf" stroke="#d187bf" stroke-width="1.51"/><path d="M619,257L563,265L593,327Z" fill="#cf8cc2" stroke="#cf8cc2" stroke-width="1.51"/><path d="M703,304L619,257L593,327Z" fill="#d185bf" stroke="#d185bf" stroke-width="1.51"/><path d="M703,304L806,181L619,257Z" fill="#d685bf" stroke="#d685bf" stroke-width="1.51"/><path d="M670,438L772,318L703,304Z" fill="#d975b7" stroke="#d975b7" stroke-width="1.51"/><path d="M554,448L568,577L670,438Z" fill="#dc6eb1" stroke="#dc6eb1" stroke-width="1.51"/><path d="M670,438L816,486L772,318Z" fill="#de68af" stroke="#de68af" stroke-width="1.51"/><path d="M563,265L439,322L593,327Z" fill="#cc8fc4" stroke="#cc8fc4" stroke-width="1.51"/><path d="M554,448L416,464L568,577Z" fill="#d876b5" stroke="#d876b5" stroke-width="1.51"/><path d="M431,115L466,257L563,265Z" fill="#cc9ecc" stroke="#cc9ecc" stroke-width="1.51"/><path d="M563,265L466,257L439,322Z" fill="#ca96c8" stroke="#ca96c8" stroke-width="1.51"/><path d="M439,322L416,464L554,448Z" fill="#d386bf" stroke="#d386bf" stroke-width="1.51"/><path d="M568,577L706,600L670,438Z" fill="#df60a8" stroke="#df60a8" stroke-width="1.51"/><path d="M706,600L816,486L670,438Z" fill="#e25ba8" stroke="#e25ba8" stroke-width="1.51"/><path d="M816,486L870,368L772,318Z" fill="#de65ac" stroke="#de65ac" stroke-width="1.51"/><path d="M568,577L668,712L706,600Z" fill="#e0559c" stroke="#e0559c" stroke-width="1.51"/><path d="M430,603L519,654L568,577Z" fill="#dc68a6" stroke="#dc68a6" stroke-width="1.51"/><path d="M416,464L430,603L568,577Z" fill="#da74b0" stroke="#da74b0" stroke-width="1.51"/><path d="M337,351L352,486L416,464Z" fill="#d78bc1" stroke="#d78bc1" stroke-width="1.51"/><path d="M337,351L416,464L439,322Z" fill="#d391c4" stroke="#d391c4" stroke-width="1.51"/><path d="M352,486L430,603L416,464Z" fill="#db7db7" stroke="#db7db7" stroke-width="1.51"/><path d="M816,486L912,446L870,368Z" fill="#e159a4" stroke="#e159a4" stroke-width="1.51"/><path d="M706,600L815,578L816,486Z" fill="#e44e9e" stroke="#e44e9e" stroke-width="1.51"/><path d="M815,671L815,578L706,600Z" fill="#e44496" stroke="#e44496" stroke-width="1.51"/><path d="M334,250L337,351L439,322Z" fill="#cd9ccb" stroke="#cd9ccb" stroke-width="1.51"/><path d="M772,318L806,181L703,304Z" fill="#d87eb9" stroke="#d87eb9" stroke-width="1.51"/><path d="M870,368L848,260L772,318Z" fill="#da71b0" stroke="#da71b0" stroke-width="1.51"/><path d="M848,260L806,181L772,318Z" fill="#da7cb6" stroke="#da7cb6" stroke-width="1.51"/><path d="M619,257L571,73L563,265Z" fill="#d297c8" stroke="#d297c8" stroke-width="1.51"/><path d="M806,181L673,101L619,257Z" fill="#d98ec3" stroke="#d98ec3" stroke-width="1.51"/><path d="M466,257L334,250L439,322Z" fill="#cc9dcb" stroke="#cc9dcb" stroke-width="1.51"/><path d="M907,520L912,446L816,486Z" fill="#e34e9e" stroke="#e34e9e" stroke-width="1.51"/><path d="M870,368L987,359L848,260Z" fill="#dd68a9" stroke="#dd68a9" stroke-width="1.51"/><path d="M431,115L334,250L466,257Z" fill="#cea5d0" stroke="#cea5d0" stroke-width="1.51"/><path d="M519,654L668,712L568,577Z" fill="#dd5c9c" stroke="#dd5c9c" stroke-width="1.51"/><path d="M815,578L907,520L816,486Z" fill="#e44b9c" stroke="#e44b9c" stroke-width="1.51"/><path d="M865,647L907,520L815,578Z" fill="#e63e94" stroke="#e63e94" stroke-width="1.51"/><path d="M673,101L571,73L619,257Z" fill="#d69ac9" stroke="#d69ac9" stroke-width="1.51"/><path d="M571,73L431,115L563,265Z" fill="#d0a3ce" stroke="#d0a3ce" stroke-width="1.51"/><path d="M459,756L585,756L519,654Z" fill="#d56092" stroke="#d56092" stroke-width="1.51"/><path d="M519,654L585,756L668,712Z" fill="#d95891" stroke="#d95891" stroke-width="1.51"/><path d="M352,486L327,590L430,603Z" fill="#de7bb2" stroke="#de7bb2" stroke-width="1.51"/><path d="M184,588L327,590L352,486Z" fill="#e082b6" stroke="#e082b6" stroke-width="1.51"/><path d="M205,376L352,486L337,351Z" fill="#d795c7" stroke="#d795c7" stroke-width="1.51"/><path d="M668,712L815,671L706,600Z" fill="#e04892" stroke="#e04892" stroke-width="1.51"/><path d="M815,671L865,647L815,578Z" fill="#e43c8f" stroke="#e43c8f" stroke-width="1.51"/><path d="M417,715L519,654L430,603Z" fill="#da6aa0" stroke="#da6aa0" stroke-width="1.51"/><path d="M668,712L746,811L815,671Z" fill="#db4285" stroke="#db4285" stroke-width="1.51"/><path d="M327,590L417,715L430,603Z" fill="#dd71a6" stroke="#dd71a6" stroke-width="1.51"/><path d="M687,17L525,18L571,73Z" fill="#dbaad2" stroke="#dbaad2" stroke-width="1.51"/><path d="M806,181L813,84L673,101Z" fill="#df90c2" stroke="#df90c2" stroke-width="1.51"/><path d="M854,80L813,84L806,181Z" fill="#e18cbd" stroke="#e18cbd" stroke-width="1.51"/><path d="M854,80L806,181L1008,215Z" fill="#e180b4" stroke="#e180b4" stroke-width="1.51"/><path d="M912,446L987,359L870,368Z" fill="#e05aa3" stroke="#e05aa3" stroke-width="1.51"/><path d="M1044,467L987,359L912,446Z" fill="#e1509b" stroke="#e1509b" stroke-width="1.51"/><path d="M1044,467L912,446L907,520Z" fill="#e44798" stroke="#e44798" stroke-width="1.51"/><path d="M334,250L249,257L337,351Z" fill="#cea4cf" stroke="#cea4cf" stroke-width="1.51"/><path d="M316,72L249,257L334,250Z" fill="#d1b0d5" stroke="#d1b0d5" stroke-width="1.51"/><path d="M585,756L633,785L668,712Z" fill="#d75188" stroke="#d75188" stroke-width="1.51"/><path d="M904,776L968,674L865,647Z" fill="#df2a7d" stroke="#df2a7d" stroke-width="1.51"/><path d="M552,872L633,785L585,756Z" fill="#cd5385" stroke="#cd5385" stroke-width="1.51"/><path d="M417,715L459,756L519,654Z" fill="#d66797" stroke="#d66797" stroke-width="1.51"/><path d="M431,115L316,72L334,250Z" fill="#d2b1d5" stroke="#d2b1d5" stroke-width="1.51"/><path d="M571,73L525,18L431,115Z" fill="#d4aed4" stroke="#d4aed4" stroke-width="1.51"/><path d="M687,17L571,73L673,101Z" fill="#dda2ce" stroke="#dda2ce" stroke-width="1.51"/><path d="M813,84L687,17L673,101Z" fill="#e19ac9" stroke="#e19ac9" stroke-width="1.51"/><path d="M1008,215L806,181L848,260Z" fill="#de79b1" stroke="#de79b1" stroke-width="1.51"/><path d="M813,84L786,-34L687,17Z" fill="#e59dc9" stroke="#e59dc9" stroke-width="1.51"/><path d="M249,257L205,376L337,351Z" fill="#d2a2ce" stroke="#d2a2ce" stroke-width="1.51"/><path d="M128,427L178,428L205,376Z" fill="#dd9fcc" stroke="#dd9fcc" stroke-width="1.51"/><path d="M205,376L178,428L352,486Z" fill="#dc96c7" stroke="#dc96c7" stroke-width="1.51"/><path d="M327,590L280,699L417,715Z" fill="#dd74a3" stroke="#dd74a3" stroke-width="1.51"/><path d="M633,785L746,811L668,712Z" fill="#d74983" stroke="#d74983" stroke-width="1.51"/><path d="M687,861L746,811L633,785Z" fill="#cd457f" stroke="#cd457f" stroke-width="1.51"/><path d="M320,35L316,72L431,115Z" fill="#d6b9da" stroke="#d6b9da" stroke-width="1.51"/><path d="M80,352L128,427L205,376Z" fill="#dda5cf" stroke="#dda5cf" stroke-width="1.51"/><path d="M987,359L1008,215L848,260Z" fill="#dc6ca9" stroke="#dc6ca9" stroke-width="1.51"/><path d="M1048,527L1044,467L907,520Z" fill="#e24090" stroke="#e24090" stroke-width="1.51"/><path d="M987,359L1088,223L1008,215Z" fill="#d96a9f" stroke="#d96a9f" stroke-width="1.51"/><path d="M968,674L907,520L865,647Z" fill="#e62f8b" stroke="#e62f8b" stroke-width="1.51"/><path d="M184,588L280,699L327,590Z" fill="#e27dad" stroke="#e27dad" stroke-width="1.51"/><path d="M417,715L349,830L459,756Z" fill="#d3698f" stroke="#d3698f" stroke-width="1.51"/><path d="M904,776L865,647L815,671Z" fill="#df3381" stroke="#df3381" stroke-width="1.51"/><path d="M968,674L1048,527L907,520Z" fill="#e5318b" stroke="#e5318b" stroke-width="1.51"/><path d="M1036,101L884,29L854,80Z" fill="#e789b7" stroke="#e789b7" stroke-width="1.51"/><path d="M854,80L884,29L813,84Z" fill="#e590be" stroke="#e590be" stroke-width="1.51"/><path d="M316,72L195,123L249,257Z" fill="#d4b8d9" stroke="#d4b8d9" stroke-width="1.51"/><path d="M401,-47L320,35L431,115Z" fill="#d8bcdc" stroke="#d8bcdc" stroke-width="1.51"/><path d="M178,428L184,588L352,486Z" fill="#e08ec0" stroke="#e08ec0" stroke-width="1.51"/><path d="M1048,527L1073,442L1044,467Z" fill="#df438c" stroke="#df438c" stroke-width="1.51"/><path d="M1044,467L1073,442L987,359Z" fill="#df4f94" stroke="#df4f94" stroke-width="1.51"/><path d="M884,29L786,-34L813,84Z" fill="#e897c3" stroke="#e897c3" stroke-width="1.51"/><path d="M687,17L562,-125L525,18Z" fill="#e0b2d6" stroke="#e0b2d6" stroke-width="1.51"/><path d="M525,18L401,-47L431,115Z" fill="#d6b8d9" stroke="#d6b8d9" stroke-width="1.51"/><path d="M746,811L904,776L815,671Z" fill="#db377b" stroke="#db377b" stroke-width="1.51"/><path d="M552,872L687,861L633,785Z" fill="#c84d81" stroke="#c84d81" stroke-width="1.51"/><path d="M552,872L585,756L459,756Z" fill="#cd5b88" stroke="#cd5b88" stroke-width="1.51"/><path d="M469,899L552,872L459,756Z" fill="#c35c87" stroke="#c35c87" stroke-width="1.51"/><path d="M961,801L904,776L851,938Z" fill="#cd236e" stroke="#cd236e" stroke-width="1.51"/><path d="M178,428L128,427L184,588Z" fill="#e297c5" stroke="#e297c5" stroke-width="1.51"/><path d="M80,352L205,376L249,257Z" fill="#d6aad2" stroke="#d6aad2" stroke-width="1.51"/><path d="M417,-119L401,-47L525,18Z" fill="#dbc0de" stroke="#dbc0de" stroke-width="1.51"/><path d="M246,-27L195,123L316,72Z" fill="#dac4e0" stroke="#dac4e0" stroke-width="1.51"/><path d="M246,-27L316,72L320,35Z" fill="#dbc4e0" stroke="#dbc4e0" stroke-width="1.51"/><path d="M280,699L349,830L417,715Z" fill="#d76f95" stroke="#d76f95" stroke-width="1.51"/><path d="M205,777L349,830L280,699Z" fill="#d77494" stroke="#d77494" stroke-width="1.51"/><path d="M184,588L195,697L280,699Z" fill="#e27fa9" stroke="#e27fa9" stroke-width="1.51"/><path d="M89,633L195,697L184,588Z" fill="#e686b0" stroke="#e686b0" stroke-width="1.51"/><path d="M1134,327L1088,223L987,359Z" fill="#d76499" stroke="#d76499" stroke-width="1.51"/><path d="M1008,215L1036,101L854,80Z" fill="#e37eaf" stroke="#e37eaf" stroke-width="1.51"/><path d="M1150,698L1084,597L968,674Z" fill="#dd2073" stroke="#dd2073" stroke-width="1.51"/><path d="M968,674L1084,597L1048,527Z" fill="#e32781" stroke="#e32781" stroke-width="1.51"/><path d="M1048,527L1223,454L1073,442Z" fill="#dc4286" stroke="#dc4286" stroke-width="1.51"/><path d="M1073,442L1134,327L987,359Z" fill="#db5794" stroke="#db5794" stroke-width="1.51"/><path d="M349,830L469,899L459,756Z" fill="#c7638b" stroke="#c7638b" stroke-width="1.51"/><path d="M672,1042L756,930L687,861Z" fill="#b83d74" stroke="#b83d74" stroke-width="1.51"/><path d="M741,-107L663,-119L687,17Z" fill="#e8abd2" stroke="#e8abd2" stroke-width="1.51"/><path d="M741,-107L687,17L786,-34Z" fill="#e8a6ce" stroke="#e8a6ce" stroke-width="1.51"/><path d="M1088,223L1036,101L1008,215Z" fill="#dd75a2" stroke="#dd75a2" stroke-width="1.51"/><path d="M920,-132L741,-107L786,-34Z" fill="#eea2c9" stroke="#eea2c9" stroke-width="1.51"/><path d="M920,-132L786,-34L884,29Z" fill="#ed9bc4" stroke="#ed9bc4" stroke-width="1.51"/><path d="M663,-119L562,-125L687,17Z" fill="#e5b1d5" stroke="#e5b1d5" stroke-width="1.51"/><path d="M93,188L80,352L249,257Z" fill="#d5b5d8" stroke="#d5b5d8" stroke-width="1.51"/><path d="M61,582L89,633L184,588Z" fill="#eb8db8" stroke="#eb8db8" stroke-width="1.51"/><path d="M1088,223L1122,97L1036,101Z" fill="#dd78a0" stroke="#dd78a0" stroke-width="1.51"/><path d="M1223,454L1134,327L1073,442Z" fill="#d94e88" stroke="#d94e88" stroke-width="1.51"/><path d="M851,938L904,776L746,811Z" fill="#cc3073" stroke="#cc3073" stroke-width="1.51"/><path d="M904,776L961,801L968,674Z" fill="#dc2072" stroke="#dc2072" stroke-width="1.51"/><path d="M687,861L756,930L746,811Z" fill="#c53d7a" stroke="#c53d7a" stroke-width="1.51"/><path d="M591,1025L687,861L552,872Z" fill="#b94a7c" stroke="#b94a7c" stroke-width="1.51"/><path d="M401,-47L334,-80L320,35Z" fill="#dcc6e1" stroke="#dcc6e1" stroke-width="1.51"/><path d="M417,-119L334,-80L401,-47Z" fill="#dec7e1" stroke="#dec7e1" stroke-width="1.51"/><path d="M562,-125L417,-119L525,18Z" fill="#dcbddc" stroke="#dcbddc" stroke-width="1.51"/><path d="M195,697L205,777L280,699Z" fill="#dd7b9d" stroke="#dd7b9d" stroke-width="1.51"/><path d="M349,830L345,944L469,899Z" fill="#bd6288" stroke="#bd6288" stroke-width="1.51"/><path d="M106,769L205,777L195,697Z" fill="#de7f9c" stroke="#de7f9c" stroke-width="1.51"/><path d="M195,123L93,188L249,257Z" fill="#d6badb" stroke="#d6badb" stroke-width="1.51"/><path d="M109,80L93,188L195,123Z" fill="#dac5e0" stroke="#dac5e0" stroke-width="1.51"/><path d="M334,-80L246,-27L320,35Z" fill="#ddcae3" stroke="#ddcae3" stroke-width="1.51"/><path d="M1036,101L965,-41L884,29Z" fill="#ea8cb6" stroke="#ea8cb6" stroke-width="1.51"/><path d="M61,582L184,588L128,427Z" fill="#e794c1" stroke="#e794c1" stroke-width="1.51"/><path d="M-1,479L61,582L128,427Z" fill="#e89ec8" stroke="#e89ec8" stroke-width="1.51"/><path d="M-1,479L128,427L80,352Z" fill="#e2a7d0" stroke="#e2a7d0" stroke-width="1.51"/><path d="M756,930L851,938L746,811Z" fill="#c23574" stroke="#c23574" stroke-width="1.51"/><path d="M246,-27L109,80L195,123Z" fill="#ddcae3" stroke="#ddcae3" stroke-width="1.51"/><path d="M-62,191L19,320L93,188Z" fill="#dbc2df" stroke="#dbc2df" stroke-width="1.51"/><path d="M93,188L19,320L80,352Z" fill="#d8b9da" stroke="#d8b9da" stroke-width="1.51"/><path d="M1036,101L1104,-18L965,-41Z" fill="#e88bae" stroke="#e88bae" stroke-width="1.51"/><path d="M1194,104L1122,97L1088,223Z" fill="#db779a" stroke="#db779a" stroke-width="1.51"/><path d="M469,899L464,993L552,872Z" fill="#b55781" stroke="#b55781" stroke-width="1.51"/><path d="M751,1056L881,1013L851,938Z" fill="#b02b64" stroke="#b02b64" stroke-width="1.51"/><path d="M251,933L345,944L349,830Z" fill="#bd688a" stroke="#bd688a" stroke-width="1.51"/><path d="M345,944L464,993L469,899Z" fill="#b25c81" stroke="#b25c81" stroke-width="1.51"/><path d="M-9,694L106,769L89,633Z" fill="#e88ca9" stroke="#e88ca9" stroke-width="1.51"/><path d="M19,320L-1,479L80,352Z" fill="#e1aed4" stroke="#e1aed4" stroke-width="1.51"/><path d="M741,-107L920,-132L663,-119Z" fill="#eea7cd" stroke="#eea7cd" stroke-width="1.51"/><path d="M663,-119L920,-132L562,-125Z" fill="#ecacd3" stroke="#ecacd3" stroke-width="1.51"/><path d="M965,-41L920,-132L884,29Z" fill="#ef97be" stroke="#ef97be" stroke-width="1.51"/><path d="M1019,-137L920,-132L965,-41Z" fill="#f297bb" stroke="#f297bb" stroke-width="1.51"/><path d="M1264,566L1223,454L1084,597Z" fill="#d83177" stroke="#d83177" stroke-width="1.51"/><path d="M1084,597L1223,454L1048,527Z" fill="#dd377f" stroke="#dd377f" stroke-width="1.51"/><path d="M1134,327L1237,256L1088,223Z" fill="#d36590" stroke="#d36590" stroke-width="1.51"/><path d="M1140,783L1150,698L968,674Z" fill="#d71b67" stroke="#d71b67" stroke-width="1.51"/><path d="M1140,783L968,674L961,801Z" fill="#d81b68" stroke="#d81b68" stroke-width="1.51"/><path d="M205,777L251,933L349,830Z" fill="#c97090" stroke="#c97090" stroke-width="1.51"/><path d="M89,633L106,769L195,697Z" fill="#e485a7" stroke="#e485a7" stroke-width="1.51"/><path d="M-9,694L89,633L61,582Z" fill="#ec90b5" stroke="#ec90b5" stroke-width="1.51"/><path d="M464,993L591,1025L552,872Z" fill="#b0517a" stroke="#b0517a" stroke-width="1.51"/><path d="M-1,479L-5,536L61,582Z" fill="#ec9dc5" stroke="#ec9dc5" stroke-width="1.51"/><path d="M881,1013L1005,891L851,938Z" fill="#ba1e65" stroke="#ba1e65" stroke-width="1.51"/><path d="M851,938L1005,891L961,801Z" fill="#c61a69" stroke="#c61a69" stroke-width="1.51"/><path d="M464,993L97,1058L591,1025Z" fill="#a75b78" stroke="#a75b78" stroke-width="1.51"/><path d="M345,944L351,977L464,993Z" fill="#b05e7f" stroke="#b05e7f" stroke-width="1.51"/><path d="M251,933L351,977L345,944Z" fill="#b56584" stroke="#b56584" stroke-width="1.51"/><path d="M119,913L251,933L205,777Z" fill="#c87590" stroke="#c87590" stroke-width="1.51"/><path d="M1223,454L1251,372L1134,327Z" fill="#d25085" stroke="#d25085" stroke-width="1.51"/><path d="M1307,419L1251,372L1223,454Z" fill="#cc4880" stroke="#cc4880" stroke-width="1.51"/><path d="M1251,372L1237,256L1134,327Z" fill="#ce5c89" stroke="#ce5c89" stroke-width="1.51"/><path d="M591,1025L672,1042L687,861Z" fill="#b14373" stroke="#b14373" stroke-width="1.51"/><path d="M97,1058L672,1042L591,1025Z" fill="#a25473" stroke="#a25473" stroke-width="1.51"/><path d="M1122,97L1104,-18L1036,101Z" fill="#e383a5" stroke="#e383a5" stroke-width="1.51"/><path d="M1195,26L1104,-18L1122,97Z" fill="#e284a0" stroke="#e284a0" stroke-width="1.51"/><path d="M1237,256L1194,104L1088,223Z" fill="#d66f92" stroke="#d66f92" stroke-width="1.51"/><path d="M1244,666L1264,566L1084,597Z" fill="#d71d6e" stroke="#d71d6e" stroke-width="1.51"/><path d="M1005,891L1140,783L961,801Z" fill="#cb1661" stroke="#cb1661" stroke-width="1.51"/><path d="M109,80L-24,115L93,188Z" fill="#ddcce4" stroke="#ddcce4" stroke-width="1.51"/><path d="M246,-27L101,-39L109,80Z" fill="#e1d4e8" stroke="#e1d4e8" stroke-width="1.51"/><path d="M196,-140L101,-39L246,-27Z" fill="#e4d7ea" stroke="#e4d7ea" stroke-width="1.51"/><path d="M196,-140L246,-27L334,-80Z" fill="#e2d1e7" stroke="#e2d1e7" stroke-width="1.51"/><path d="M751,1056L851,938L756,930Z" fill="#b4316b" stroke="#b4316b" stroke-width="1.51"/><path d="M1005,891L1155,861L1140,783Z" fill="#c31159" stroke="#c31159" stroke-width="1.51"/><path d="M672,1042L751,1056L756,930Z" fill="#ad376b" stroke="#ad376b" stroke-width="1.51"/><path d="M1264,-111L1081,-83L1104,-18Z" fill="#e88ea3" stroke="#e88ea3" stroke-width="1.51"/><path d="M1104,-18L1081,-83L965,-41Z" fill="#eb90af" stroke="#eb90af" stroke-width="1.51"/><path d="M1081,-83L1019,-137L965,-41Z" fill="#ef94b4" stroke="#ef94b4" stroke-width="1.51"/><path d="M98,-154L196,-140L562,-125Z" fill="#e3d3e7" stroke="#e3d3e7" stroke-width="1.51"/><path d="M1244,666L1084,597L1150,698Z" fill="#d81c69" stroke="#d81c69" stroke-width="1.51"/><path d="M98,-154L562,-125L920,-132Z" fill="#e1bedd" stroke="#e1bedd" stroke-width="1.51"/><path d="M562,-125L196,-140L417,-119Z" fill="#e0c9e2" stroke="#e0c9e2" stroke-width="1.51"/><path d="M417,-119L196,-140L334,-80Z" fill="#e2cee5" stroke="#e2cee5" stroke-width="1.51"/><path d="M106,769L119,913L205,777Z" fill="#d47c96" stroke="#d47c96" stroke-width="1.51"/><path d="M-5,536L-9,694L61,582Z" fill="#ef94bc" stroke="#ef94bc" stroke-width="1.51"/><path d="M1227,763L1244,666L1150,698Z" fill="#cf155d" stroke="#cf155d" stroke-width="1.51"/><path d="M-16,33L-24,115L109,80Z" fill="#e2d5e9" stroke="#e2d5e9" stroke-width="1.51"/><path d="M-121,488L-100,519L-1,479Z" fill="#eda5cc" stroke="#eda5cc" stroke-width="1.51"/><path d="M-1,479L-100,519L-5,536Z" fill="#eda1c9" stroke="#eda1c9" stroke-width="1.51"/><path d="M-5,536L-126,657L-9,694Z" fill="#f095b9" stroke="#f095b9" stroke-width="1.51"/><path d="M1347,74L1195,26L1194,104Z" fill="#d57c96" stroke="#d57c96" stroke-width="1.51"/><path d="M1194,104L1195,26L1122,97Z" fill="#de7e99" stroke="#de7e99" stroke-width="1.51"/><path d="M1264,566L1307,419L1223,454Z" fill="#ce3b7a" stroke="#ce3b7a" stroke-width="1.51"/><path d="M1251,372L1314,310L1237,256Z" fill="#c75a87" stroke="#c75a87" stroke-width="1.51"/><path d="M1237,256L1349,236L1194,104Z" fill="#cb6a8e" stroke="#cb6a8e" stroke-width="1.51"/><path d="M1380,542L1307,419L1264,566Z" fill="#c83474" stroke="#c83474" stroke-width="1.51"/><path d="M-24,115L-62,191L93,188Z" fill="#decbe4" stroke="#decbe4" stroke-width="1.51"/><path d="M-15,871L119,913L106,769Z" fill="#d28197" stroke="#d28197" stroke-width="1.51"/><path d="M251,933L167,980L351,977Z" fill="#b66985" stroke="#b66985" stroke-width="1.51"/><path d="M1307,419L1314,310L1251,372Z" fill="#c65082" stroke="#c65082" stroke-width="1.51"/><path d="M-9,694L-13,752L106,769Z" fill="#e68ca3" stroke="#e68ca3" stroke-width="1.51"/><path d="M-126,657L-13,752L-9,694Z" fill="#eb91ac" stroke="#eb91ac" stroke-width="1.51"/><path d="M1116,1056L1155,861L1005,891Z" fill="#b40d54" stroke="#b40d54" stroke-width="1.51"/><path d="M1140,783L1227,763L1150,698Z" fill="#cf1358" stroke="#cf1358" stroke-width="1.51"/><path d="M1155,861L1227,763L1140,783Z" fill="#c71053" stroke="#c71053" stroke-width="1.51"/><path d="M1389,672L1380,542L1264,566Z" fill="#c61d6a" stroke="#c61d6a" stroke-width="1.51"/><path d="M-113,341L-1,479L19,320Z" fill="#e3b2d6" stroke="#e3b2d6" stroke-width="1.51"/><path d="M-174,119L-149,209L-62,191Z" fill="#e3d0e6" stroke="#e3d0e6" stroke-width="1.51"/><path d="M101,-39L-16,33L109,80Z" fill="#e4d9eb" stroke="#e4d9eb" stroke-width="1.51"/><path d="M-27,-121L-16,33L101,-39Z" fill="#e8e3f0" stroke="#e8e3f0" stroke-width="1.51"/><path d="M-62,191L-113,341L19,320Z" fill="#dcbfdd" stroke="#dcbfdd" stroke-width="1.51"/><path d="M-149,209L-113,341L-62,191Z" fill="#dfc6e1" stroke="#dfc6e1" stroke-width="1.51"/><path d="M97,1058L167,980L119,913Z" fill="#b87388" stroke="#b87388" stroke-width="1.51"/><path d="M119,913L167,980L251,933Z" fill="#bc718b" stroke="#bc718b" stroke-width="1.51"/><path d="M351,977L97,1058L464,993Z" fill="#ac637d" stroke="#ac637d" stroke-width="1.51"/><path d="M672,1042L97,1058L751,1056Z" fill="#a04f70" stroke="#a04f70" stroke-width="1.51"/><path d="M-100,519L-126,657L-5,536Z" fill="#f19cc2" stroke="#f19cc2" stroke-width="1.51"/><path d="M-113,341L-121,488L-1,479Z" fill="#e9acd3" stroke="#e9acd3" stroke-width="1.51"/><path d="M1019,-137L98,-154L920,-132Z" fill="#ebb1d5" stroke="#ebb1d5" stroke-width="1.51"/><path d="M196,-140L98,-154L101,-39Z" fill="#e8deed" stroke="#e8deed" stroke-width="1.51"/><path d="M881,1013L990,1052L1005,891Z" fill="#b4145b" stroke="#b4145b" stroke-width="1.51"/><path d="M751,1056L990,1052L881,1013Z" fill="#aa225c" stroke="#aa225c" stroke-width="1.51"/><path d="M1314,310L1349,236L1237,256Z" fill="#c35f88" stroke="#c35f88" stroke-width="1.51"/><path d="M1441,203L1349,236L1484,329Z" fill="#b45b82" stroke="#b45b82" stroke-width="1.51"/><path d="M-121,488L-126,657L-100,519Z" fill="#f29fc5" stroke="#f29fc5" stroke-width="1.51"/><path d="M-13,752L-15,871L106,769Z" fill="#de889d" stroke="#de889d" stroke-width="1.51"/><path d="M-113,341L-149,209L-121,488Z" fill="#e3bbda" stroke="#e3bbda" stroke-width="1.51"/><path d="M-121,488L-147,787L-126,657Z" fill="#f298b7" stroke="#f298b7" stroke-width="1.51"/><path d="M-174,119L-62,191L-24,115Z" fill="#e2d1e7" stroke="#e2d1e7" stroke-width="1.51"/><path d="M-174,119L-24,115L-16,33Z" fill="#e5d7ea" stroke="#e5d7ea" stroke-width="1.51"/><path d="M-147,787L-15,871L-13,752Z" fill="#e08b9e" stroke="#e08b9e" stroke-width="1.51"/><path d="M1484,329L1349,236L1314,310Z" fill="#b75983" stroke="#b75983" stroke-width="1.51"/><path d="M1389,672L1264,566L1244,666Z" fill="#c91765" stroke="#c91765" stroke-width="1.51"/><path d="M1227,763L1345,748L1244,666Z" fill="#c51158" stroke="#c51158" stroke-width="1.51"/><path d="M1155,861L1232,910L1227,763Z" fill="#bc0b4f" stroke="#bc0b4f" stroke-width="1.51"/><path d="M1116,1056L1232,910L1155,861Z" fill="#af084a" stroke="#af084a" stroke-width="1.51"/><path d="M1441,203L1347,74L1349,236Z" fill="#bd688a" stroke="#bd688a" stroke-width="1.51"/><path d="M1349,236L1347,74L1194,104Z" fill="#ca7090" stroke="#ca7090" stroke-width="1.51"/><path d="M1195,26L1264,-111L1104,-18Z" fill="#e48a9f" stroke="#e48a9f" stroke-width="1.51"/><path d="M1081,-83L1264,-111L1019,-137Z" fill="#eb92a8" stroke="#eb92a8" stroke-width="1.51"/><path d="M1232,910L1345,748L1227,763Z" fill="#ba0b4f" stroke="#ba0b4f" stroke-width="1.51"/><path d="M98,-154L-27,-121L101,-39Z" fill="#eae4f1" stroke="#eae4f1" stroke-width="1.51"/><path d="M1345,748L1389,672L1244,666Z" fill="#c1125a" stroke="#c1125a" stroke-width="1.51"/><path d="M1354,-25L1264,-111L1195,26Z" fill="#d9869b" stroke="#d9869b" stroke-width="1.51"/><path d="M751,1056L1116,1056L990,1052Z" fill="#a81353" stroke="#a81353" stroke-width="1.51"/><path d="M990,1052L1116,1056L1005,891Z" fill="#ac1051" stroke="#ac1051" stroke-width="1.51"/><path d="M-149,209L-174,119L-121,488Z" fill="#e0c5e0" stroke="#e0c5e0" stroke-width="1.51"/><path d="M-151,-50L-174,119L-16,33Z" fill="#eae0ef" stroke="#eae0ef" stroke-width="1.51"/><path d="M-20,986L97,1058L119,913Z" fill="#bb788a" stroke="#bb788a" stroke-width="1.51"/><path d="M167,980L97,1058L351,977Z" fill="#b16b82" stroke="#b16b82" stroke-width="1.51"/><path d="M751,1056L97,1058L1116,1056Z" fill="#a43e68" stroke="#a43e68" stroke-width="1.51"/><path d="M-15,871L-20,986L119,913Z" fill="#c67f93" stroke="#c67f93" stroke-width="1.51"/><path d="M-126,657L-147,787L-13,752Z" fill="#eb91a7" stroke="#eb91a7" stroke-width="1.51"/><path d="M-174,119L-147,787L-121,488Z" fill="#eeacd1" stroke="#eeacd1" stroke-width="1.51"/><path d="M1389,672L1424,643L1380,542Z" fill="#be1564" stroke="#be1564" stroke-width="1.51"/><path d="M1484,329L1314,310L1307,419Z" fill="#bc507f" stroke="#bc507f" stroke-width="1.51"/><path d="M1448,813L1424,643L1389,672Z" fill="#b50d53" stroke="#b50d53" stroke-width="1.51"/><path d="M1448,813L1389,672L1345,748Z" fill="#b50a50" stroke="#b50a50" stroke-width="1.51"/><path d="M1483,432L1307,419L1380,542Z" fill="#be3a76" stroke="#be3a76" stroke-width="1.51"/><path d="M1347,74L1354,-25L1195,26Z" fill="#d17e96" stroke="#d17e96" stroke-width="1.51"/><path d="M1483,102L1354,-25L1347,74Z" fill="#c37690" stroke="#c37690" stroke-width="1.51"/><path d="M-144,981L-20,986L-15,871Z" fill="#c68192" stroke="#c68192" stroke-width="1.51"/><path d="M1486,528L1483,432L1380,542Z" fill="#b8316d" stroke="#b8316d" stroke-width="1.51"/><path d="M1483,432L1484,329L1307,419Z" fill="#b74679" stroke="#b74679" stroke-width="1.51"/><path d="M-27,-121L-151,-50L-16,33Z" fill="#ece7f2" stroke="#ece7f2" stroke-width="1.51"/><path d="M1483,432L1541,422L1484,329Z" fill="#af4372" stroke="#af4372" stroke-width="1.51"/><path d="M1424,643L1486,528L1380,542Z" fill="#bc2167" stroke="#bc2167" stroke-width="1.51"/><path d="M1354,-25L1311,-146L1264,-111Z" fill="#d6889b" stroke="#d6889b" stroke-width="1.51"/><path d="M1264,-111L1311,-146L1019,-137Z" fill="#e790a1" stroke="#e790a1" stroke-width="1.51"/><path d="M1019,-137L1490,-156L98,-154Z" fill="#f3a1c6" stroke="#f3a1c6" stroke-width="1.51"/><path d="M1490,-156L1311,-146L1354,-25Z" fill="#ce8597" stroke="#ce8597" stroke-width="1.51"/><path d="M1232,910L1345,937L1345,748Z" fill="#ac054a" stroke="#ac054a" stroke-width="1.51"/><path d="M1424,643L1550,522L1486,528Z" fill="#b42263" stroke="#b42263" stroke-width="1.51"/><path d="M1116,1056L1251,1037L1232,910Z" fill="#a20642" stroke="#a20642" stroke-width="1.51"/><path d="M-27,-121L-120,-147L-151,-50Z" fill="#f1ecf5" stroke="#f1ecf5" stroke-width="1.51"/><path d="M98,-154L-120,-147L-27,-121Z" fill="#efebf4" stroke="#efebf4" stroke-width="1.51"/><path d="M1322,1025L1345,937L1232,910Z" fill="#9e0342" stroke="#9e0342" stroke-width="1.51"/><path d="M-147,787L-166,896L-15,871Z" fill="#d98a9c" stroke="#d98a9c" stroke-width="1.51"/><path d="M-174,119L-166,896L-147,787Z" fill="#f69cc0" stroke="#f69cc0" stroke-width="1.51"/><path d="M1441,203L1483,102L1347,74Z" fill="#ba6c89" stroke="#ba6c89" stroke-width="1.51"/><path d="M1566,220L1483,102L1441,203Z" fill="#b06380" stroke="#b06380" stroke-width="1.51"/><path d="M1566,220L1441,203L1484,329Z" fill="#ac597b" stroke="#ac597b" stroke-width="1.51"/><path d="M1550,522L1541,422L1483,432Z" fill="#af366b" stroke="#af366b" stroke-width="1.51"/><path d="M1550,522L1483,432L1486,528Z" fill="#b13169" stroke="#b13169" stroke-width="1.51"/><path d="M1345,937L1448,813L1345,748Z" fill="#a90549" stroke="#a90549" stroke-width="1.51"/><path d="M1345,937L1418,932L1448,813Z" fill="#9c0144" stroke="#9c0144" stroke-width="1.51"/><path d="M1251,1037L1322,1025L1232,910Z" fill="#9c0440" stroke="#9c0440" stroke-width="1.51"/><path d="M1609,695L1550,522L1424,643Z" fill="#af1358" stroke="#af1358" stroke-width="1.51"/><path d="M-166,896L-144,981L-15,871Z" fill="#cd8597" stroke="#cd8597" stroke-width="1.51"/><path d="M-20,986L-144,981L97,1058Z" fill="#ba7c89" stroke="#ba7c89" stroke-width="1.51"/><path d="M1599,764L1609,695L1424,643Z" fill="#a70d4a" stroke="#a70d4a" stroke-width="1.51"/><path d="M1322,1025L1418,932L1345,937Z" fill="#95013f" stroke="#95013f" stroke-width="1.51"/><path d="M1483,102L1480,-48L1354,-25Z" fill="#c17a8f" stroke="#c17a8f" stroke-width="1.51"/><path d="M1612,374L1566,220L1484,329Z" fill="#a55073" stroke="#a55073" stroke-width="1.51"/><path d="M1612,374L1484,329L1541,422Z" fill="#a9456f" stroke="#a9456f" stroke-width="1.51"/><path d="M1544,-7L1480,-48L1483,102Z" fill="#b97688" stroke="#b97688" stroke-width="1.51"/><path d="M1609,695L1612,374L1550,522Z" fill="#a9275d" stroke="#a9275d" stroke-width="1.51"/><path d="M1550,522L1612,374L1541,422Z" fill="#aa3969" stroke="#aa3969" stroke-width="1.51"/><path d="M1597,71L1483,102L1566,220Z" fill="#ac667d" stroke="#ac667d" stroke-width="1.51"/><path d="M1597,71L1544,-7L1483,102Z" fill="#b27082" stroke="#b27082" stroke-width="1.51"/><path d="M1418,932L1532,867L1448,813Z" fill="#990240" stroke="#990240" stroke-width="1.51"/><path d="M1543,983L1532,867L1418,932Z" fill="#8c003a" stroke="#8c003a" stroke-width="1.51"/><path d="M1612,374L1597,71L1566,220Z" fill="#a35975" stroke="#a35975" stroke-width="1.51"/><path d="M1583,-114L1490,-156L1480,-48Z" fill="#be7f8c" stroke="#be7f8c" stroke-width="1.51"/><path d="M1480,-48L1490,-156L1354,-25Z" fill="#c58092" stroke="#c58092" stroke-width="1.51"/><path d="M1311,-146L1490,-156L1019,-137Z" fill="#de8d9e" stroke="#de8d9e" stroke-width="1.51"/><path d="M1583,-114L1480,-48L1544,-7Z" fill="#ba7b88" stroke="#ba7b88" stroke-width="1.51"/><path d="M1599,764L1424,643L1448,813Z" fill="#ab0a49" stroke="#ab0a49" stroke-width="1.51"/><path d="M1532,867L1599,764L1448,813Z" fill="#9c043f" stroke="#9c043f" stroke-width="1.51"/><path d="M1532,867L1543,983L1599,764Z" fill="#8f0239" stroke="#8f0239" stroke-width="1.51"/><path d="M1322,1025L1454,1034L1418,932Z" fill="#8c0039" stroke="#8c0039" stroke-width="1.51"/><path d="M1251,1037L1454,1034L1322,1025Z" fill="#8d0238" stroke="#8d0238" stroke-width="1.51"/><path d="M1116,1056L1454,1034L1251,1037Z" fill="#930339" stroke="#930339" stroke-width="1.51"/><path d="M1597,71L1583,-114L1544,-7Z" fill="#b37783" stroke="#b37783" stroke-width="1.51"/><path d="M1454,1034L1543,983L1418,932Z" fill="#860036" stroke="#860036" stroke-width="1.51"/></svg>