<svg xmlns="http://www.w3.org/2000/svg" width="1440" height="900"><path d="M829,561L632,675L919,884Z" fill="#62bccd" stroke="#62bccd" stroke-width="1.51"/><path d="M632,675L543,919L919,884Z" fill="#63b6c6" stroke="#63b6c6" stroke-width="1.51"/><path d="M829,561L519,211L632,675Z" fill="#7dccc4" stroke="#7dccc4" stroke-width="1.51"/><path d="M1267,308L853,322L829,561Z" fill="#72c4c9" stroke="#72c4c9" stroke-width="1.51"/><path d="M919,884L1260,634L829,561Z" fill="#53b5d2" stroke="#53b5d2" stroke-width="1.51"/><path d="M919,884L1213,1027L1260,634Z" fill="#41a2ca" stroke="#41a2ca" stroke-width="1.51"/><path d="M850,1345L1213,1027L919,884Z" fill="#3f97c2" stroke="#3f97c2" stroke-width="1.51"/><path d="M543,919L605,1265L919,884Z" fill="#5ba7bf" stroke="#5ba7bf" stroke-width="1.51"/><path d="M853,322L519,211L829,561Z" fill="#83cec2" stroke="#83cec2" stroke-width="1.51"/><path d="M632,675L184,566L543,919Z" fill="#7dc5c5" stroke="#7dc5c5" stroke-width="1.51"/><path d="M605,1265L850,1345L919,884Z" fill="#4e98bb" stroke="#4e98bb" stroke-width="1.51"/><path d="M1260,634L1267,308L829,561Z" fill="#60b9cb" stroke="#60b9cb" stroke-width="1.51"/><path d="M853,322L904,-16L519,211Z" fill="#93d4bf" stroke="#93d4bf" stroke-width="1.51"/><path d="M198,360L184,566L632,675Z" fill="#91d1c0" stroke="#91d1c0" stroke-width="1.51"/><path d="M543,919L227,1214L605,1265Z" fill="#6ba3b6" stroke="#6ba3b6" stroke-width="1.51"/><path d="M184,566L215,1014L543,919Z" fill="#81bec1" stroke="#81bec1" stroke-width="1.51"/><path d="M519,211L198,360L632,675Z" fill="#92d4bd" stroke="#92d4bd" stroke-width="1.51"/><path d="M1260,634L1510,631L1267,308Z" fill="#55aac5" stroke="#55aac5" stroke-width="1.51"/><path d="M1535,938L1510,631L1260,634Z" fill="#3a99c5" stroke="#3a99c5" stroke-width="1.51"/><path d="M850,1345L1290,1280L1213,1027Z" fill="#3187bb" stroke="#3187bb" stroke-width="1.51"/><path d="M1213,1027L1535,938L1260,634Z" fill="#3594c3" stroke="#3594c3" stroke-width="1.51"/><path d="M215,1014L227,1214L543,919Z" fill="#77adb9" stroke="#77adb9" stroke-width="1.51"/><path d="M938,1652L1144,1537L850,1345Z" fill="#3a7aa8" stroke="#3a7aa8" stroke-width="1.51"/><path d="M-136,1007L227,1214L215,1014Z" fill="#83afbd" stroke="#83afbd" stroke-width="1.51"/><path d="M1483,1269L1535,938L1213,1027Z" fill="#2381b9" stroke="#2381b9" stroke-width="1.51"/><path d="M1187,0L904,-16L853,322Z" fill="#8fcdc6" stroke="#8fcdc6" stroke-width="1.51"/><path d="M519,211L224,-19L198,360Z" fill="#aedfb7" stroke="#aedfb7" stroke-width="1.51"/><path d="M1476,-20L1187,0L1267,308Z" fill="#81bac0" stroke="#81bac0" stroke-width="1.51"/><path d="M1267,308L1187,0L853,322Z" fill="#80c4c4" stroke="#80c4c4" stroke-width="1.51"/><path d="M573,-303L547,-55L904,-16Z" fill="#acdec7" stroke="#acdec7" stroke-width="1.51"/><path d="M904,-16L547,-55L519,211Z" fill="#a3dac0" stroke="#a3dac0" stroke-width="1.51"/><path d="M1144,1537L1483,1269L1290,1280Z" fill="#2370a9" stroke="#2370a9" stroke-width="1.51"/><path d="M1290,1280L1483,1269L1213,1027Z" fill="#237db7" stroke="#237db7" stroke-width="1.51"/><path d="M850,1345L1144,1537L1290,1280Z" fill="#317aad" stroke="#317aad" stroke-width="1.51"/><path d="M938,1652L850,1345L565,1682Z" fill="#4980a4" stroke="#4980a4" stroke-width="1.51"/><path d="M1510,631L1583,349L1267,308Z" fill="#5ba8bf" stroke="#5ba8bf" stroke-width="1.51"/><path d="M1814,589L1583,349L1510,631Z" fill="#4d99bd" stroke="#4d99bd" stroke-width="1.51"/><path d="M184,566L-96,636L215,1014Z" fill="#92caca" stroke="#92caca" stroke-width="1.51"/><path d="M198,360L-96,636L184,566Z" fill="#9fd7c6" stroke="#9fd7c6" stroke-width="1.51"/><path d="M-135,214L-96,636L198,360Z" fill="#acdec5" stroke="#acdec5" stroke-width="1.51"/><path d="M565,1682L850,1345L605,1265Z" fill="#5285a3" stroke="#5285a3" stroke-width="1.51"/><path d="M547,-55L224,-19L519,211Z" fill="#b1e1bb" stroke="#b1e1bb" stroke-width="1.51"/><path d="M190,1608L565,1682L605,1265Z" fill="#63899e" stroke="#63899e" stroke-width="1.51"/><path d="M227,1214L190,1608L605,1265Z" fill="#6d92a4" stroke="#6d92a4" stroke-width="1.51"/><path d="M-96,636L-136,1007L215,1014Z" fill="#8fc0c7" stroke="#8fc0c7" stroke-width="1.51"/><path d="M885,-398L573,-303L904,-16Z" fill="#aadccf" stroke="#aadccf" stroke-width="1.51"/><path d="M1583,349L1476,-20L1267,308Z" fill="#74afba" stroke="#74afba" stroke-width="1.51"/><path d="M1583,349L1827,299L1476,-20Z" fill="#71a4b4" stroke="#71a4b4" stroke-width="1.51"/><path d="M1535,938L1814,589L1510,631Z" fill="#3690c1" stroke="#3690c1" stroke-width="1.51"/><path d="M1950,875L1814,589L1535,938Z" fill="#2c82b7" stroke="#2c82b7" stroke-width="1.51"/><path d="M-136,1007L-43,1325L227,1214Z" fill="#83a8bc" stroke="#83a8bc" stroke-width="1.51"/><path d="M-43,1325L190,1608L227,1214Z" fill="#7895a8" stroke="#7895a8" stroke-width="1.51"/><path d="M547,-55L573,-303L224,-19Z" fill="#bae4c2" stroke="#bae4c2" stroke-width="1.51"/><path d="M885,-398L904,-16L1201,-380Z" fill="#a1d4d5" stroke="#a1d4d5" stroke-width="1.51"/><path d="M-96,636L-466,677L-136,1007Z" fill="#9bccd3" stroke="#9bccd3" stroke-width="1.51"/><path d="M224,-19L-135,214L198,360Z" fill="#b9e4bc" stroke="#b9e4bc" stroke-width="1.51"/><path d="M-113,-111L-135,214L224,-19Z" fill="#c9eac4" stroke="#c9eac4" stroke-width="1.51"/><path d="M1814,589L1827,299L1583,349Z" fill="#5798b6" stroke="#5798b6" stroke-width="1.51"/><path d="M1201,-380L904,-16L1187,0Z" fill="#98cdcf" stroke="#98cdcf" stroke-width="1.51"/><path d="M1876,1241L1950,875L1535,938Z" fill="#1970ad" stroke="#1970ad" stroke-width="1.51"/><path d="M1814,589L2161,298L1827,299Z" fill="#568ca9" stroke="#568ca9" stroke-width="1.51"/><path d="M-43,1325L-57,1533L190,1608Z" fill="#7a91a5" stroke="#7a91a5" stroke-width="1.51"/><path d="M-377,1218L-57,1533L-43,1325Z" fill="#829ab2" stroke="#829ab2" stroke-width="1.51"/><path d="M1483,1269L1876,1241L1535,938Z" fill="#1470b0" stroke="#1470b0" stroke-width="1.51"/><path d="M1889,1537L1876,1241L1483,1269Z" fill="#09599c" stroke="#09599c" stroke-width="1.51"/><path d="M1619,1650L1483,1269L1144,1537Z" fill="#1c639e" stroke="#1c639e" stroke-width="1.51"/><path d="M1476,-20L1201,-380L1187,0Z" fill="#91c1c9" stroke="#91c1c9" stroke-width="1.51"/><path d="M1540,-450L1201,-380L1476,-20Z" fill="#92bccc" stroke="#92bccc" stroke-width="1.51"/><path d="M938,1652L1619,1650L1144,1537Z" fill="#286da4" stroke="#286da4" stroke-width="1.51"/><path d="M565,1682L1619,1650L938,1652Z" fill="#3378a9" stroke="#3378a9" stroke-width="1.51"/><path d="M265,-448L224,-19L573,-303Z" fill="#c5e8c7" stroke="#c5e8c7" stroke-width="1.51"/><path d="M265,-448L-113,-111L224,-19Z" fill="#cfecca" stroke="#cfecca" stroke-width="1.51"/><path d="M-463,205L-466,677L-135,214Z" fill="#bae4cf" stroke="#bae4cf" stroke-width="1.51"/><path d="M-135,214L-466,677L-96,636Z" fill="#abdcd0" stroke="#abdcd0" stroke-width="1.51"/><path d="M-136,1007L-377,1218L-43,1325Z" fill="#89aac2" stroke="#89aac2" stroke-width="1.51"/><path d="M-472,930L-377,1218L-136,1007Z" fill="#92b6cb" stroke="#92b6cb" stroke-width="1.51"/><path d="M-466,677L-472,930L-136,1007Z" fill="#9ac5d3" stroke="#9ac5d3" stroke-width="1.51"/><path d="M885,-398L265,-448L573,-303Z" fill="#bde5d0" stroke="#bde5d0" stroke-width="1.51"/><path d="M1540,-450L265,-448L885,-398Z" fill="#aedbd9" stroke="#aedbd9" stroke-width="1.51"/><path d="M2285,889L2221,647L1950,875Z" fill="#2b6fa5" stroke="#2b6fa5" stroke-width="1.51"/><path d="M1619,1650L1889,1537L1483,1269Z" fill="#0e5698" stroke="#0e5698" stroke-width="1.51"/><path d="M-466,677L-487,-381L-472,930Z" fill="#bae4d5" stroke="#bae4d5" stroke-width="1.51"/><path d="M-373,-100L-463,205L-135,214Z" fill="#cdebcc" stroke="#cdebcc" stroke-width="1.51"/><path d="M1827,299L1958,-35L1476,-20Z" fill="#78a1b3" stroke="#78a1b3" stroke-width="1.51"/><path d="M2161,298L1958,-35L1827,299Z" fill="#6a8fa1" stroke="#6a8fa1" stroke-width="1.51"/><path d="M1201,-380L1540,-450L885,-398Z" fill="#a0cbd7" stroke="#a0cbd7" stroke-width="1.51"/><path d="M1799,-451L1540,-450L1476,-20Z" fill="#8eb1c8" stroke="#8eb1c8" stroke-width="1.51"/><path d="M2285,889L1950,875L2211,1297Z" fill="#19609d" stroke="#19609d" stroke-width="1.51"/><path d="M1950,875L2221,647L1814,589Z" fill="#327aad" stroke="#327aad" stroke-width="1.51"/><path d="M2221,647L2161,298L1814,589Z" fill="#4880a5" stroke="#4880a5" stroke-width="1.51"/><path d="M-113,-111L-373,-100L-135,214Z" fill="#d1edcc" stroke="#d1edcc" stroke-width="1.51"/><path d="M-145,-359L-373,-100L-113,-111Z" fill="#daf1d4" stroke="#daf1d4" stroke-width="1.51"/><path d="M265,-448L-145,-359L-113,-111Z" fill="#d8f0d2" stroke="#d8f0d2" stroke-width="1.51"/><path d="M2211,1297L1950,875L1876,1241Z" fill="#105a9a" stroke="#105a9a" stroke-width="1.51"/><path d="M2221,647L2223,-61L2161,298Z" fill="#5e879f" stroke="#5e879f" stroke-width="1.51"/><path d="M1889,1537L2211,1297L1876,1241Z" fill="#094a8c" stroke="#094a8c" stroke-width="1.51"/><path d="M-472,930L-447,1616L-377,1218Z" fill="#8ea7c4" stroke="#8ea7c4" stroke-width="1.51"/><path d="M-377,1218L-447,1616L-57,1533Z" fill="#8394af" stroke="#8394af" stroke-width="1.51"/><path d="M-57,1533L-447,1616L190,1608Z" fill="#7e92a9" stroke="#7e92a9" stroke-width="1.51"/><path d="M190,1608L-447,1616L565,1682Z" fill="#778fa3" stroke="#778fa3" stroke-width="1.51"/><path d="M1540,-450L1799,-451L265,-448Z" fill="#a2ccd9" stroke="#a2ccd9" stroke-width="1.51"/><path d="M1958,-35L1799,-451L1476,-20Z" fill="#86a6bd" stroke="#86a6bd" stroke-width="1.51"/><path d="M2154,-369L1799,-451L1958,-35Z" fill="#8499b3" stroke="#8499b3" stroke-width="1.51"/><path d="M2161,298L2223,-61L1958,-35Z" fill="#718ea1" stroke="#718ea1" stroke-width="1.51"/><path d="M2285,889L2223,-61L2221,647Z" fill="#4a81a4" stroke="#4a81a4" stroke-width="1.51"/><path d="M1619,1650L2213,1601L1889,1537Z" fill="#09488a" stroke="#09488a" stroke-width="1.51"/><path d="M1889,1537L2213,1601L2211,1297Z" fill="#084081" stroke="#084081" stroke-width="1.51"/><path d="M2211,1297L2213,1601L2285,889Z" fill="#094e90" stroke="#094e90" stroke-width="1.51"/><path d="M-373,-100L-487,-381L-463,205Z" fill="#def2d7" stroke="#def2d7" stroke-width="1.51"/><path d="M-463,205L-487,-381L-466,677Z" fill="#ceeccf" stroke="#ceeccf" stroke-width="1.51"/><path d="M-145,-359L-487,-381L-373,-100Z" fill="#e1f3dc" stroke="#e1f3dc" stroke-width="1.51"/><path d="M265,-448L-487,-381L-145,-359Z" fill="#e0f3da" stroke="#e0f3da" stroke-width="1.51"/><path d="M2223,-61L2154,-369L1958,-35Z" fill="#7d92a9" stroke="#7d92a9" stroke-width="1.51"/></svg>