<svg xmlns="http://www.w3.org/2000/svg" width="1440" height="900"><path d="M806,526L938,510L917,396Z" fill="#f2faab" stroke="#f2faab" stroke-width="1.51"/><path d="M917,396L780,364L806,526Z" fill="#f8fab0" stroke="#f8fab0" stroke-width="1.51"/><path d="M938,510L1073,396L917,396Z" fill="#ebf5aa" stroke="#ebf5aa" stroke-width="1.51"/><path d="M931,671L1066,530L938,510Z" fill="#e0f39d" stroke="#e0f39d" stroke-width="1.51"/><path d="M780,364L656,515L806,526Z" fill="#fcfeba" stroke="#fcfeba" stroke-width="1.51"/><path d="M806,526L931,671L938,510Z" fill="#eaf69d" stroke="#eaf69d" stroke-width="1.51"/><path d="M790,671L931,671L806,526Z" fill="#e5f5a1" stroke="#e5f5a1" stroke-width="1.51"/><path d="M1066,530L1073,396L938,510Z" fill="#e1f3ab" stroke="#e1f3ab" stroke-width="1.51"/><path d="M917,396L950,255L780,364Z" fill="#f5ef9a" stroke="#f5ef9a" stroke-width="1.51"/><path d="M656,515L790,671L806,526Z" fill="#f3faac" stroke="#f3faac" stroke-width="1.51"/><path d="M780,364L657,385L656,515Z" fill="#fffab7" stroke="#fffab7" stroke-width="1.51"/><path d="M1073,396L950,255L917,396Z" fill="#ebec9b" stroke="#ebec9b" stroke-width="1.51"/><path d="M780,364L662,240L657,385Z" fill="#fff0a6" stroke="#fff0a6" stroke-width="1.51"/><path d="M950,255L787,228L780,364Z" fill="#f8e895" stroke="#f8e895" stroke-width="1.51"/><path d="M931,671L1065,658L1066,530Z" fill="#d2ec9c" stroke="#d2ec9c" stroke-width="1.51"/><path d="M1066,530L1206,508L1073,396Z" fill="#d4edad" stroke="#d4edad" stroke-width="1.51"/><path d="M787,228L662,240L780,364Z" fill="#fee99e" stroke="#fee99e" stroke-width="1.51"/><path d="M656,515L634,662L790,671Z" fill="#eef6a9" stroke="#eef6a9" stroke-width="1.51"/><path d="M512,532L634,662L656,515Z" fill="#f5f29f" stroke="#f5f29f" stroke-width="1.51"/><path d="M512,532L656,515L657,385Z" fill="#fdf5ad" stroke="#fdf5ad" stroke-width="1.51"/><path d="M921,80L801,105L787,228Z" fill="#face81" stroke="#face81" stroke-width="1.51"/><path d="M1073,396L1067,225L950,255Z" fill="#e4e293" stroke="#e4e293" stroke-width="1.51"/><path d="M790,671L917,796L931,671Z" fill="#d0eca1" stroke="#d0eca1" stroke-width="1.51"/><path d="M931,671L1076,787L1065,658Z" fill="#c0e5a1" stroke="#c0e5a1" stroke-width="1.51"/><path d="M776,808L917,796L790,671Z" fill="#cae9a7" stroke="#cae9a7" stroke-width="1.51"/><path d="M1065,658L1206,508L1066,530Z" fill="#cdeaa2" stroke="#cdeaa2" stroke-width="1.51"/><path d="M1073,396L1216,382L1067,225Z" fill="#d7e29d" stroke="#d7e29d" stroke-width="1.51"/><path d="M649,807L776,808L790,671Z" fill="#cfebaf" stroke="#cfebaf" stroke-width="1.51"/><path d="M490,377L512,532L657,385Z" fill="#fff0a5" stroke="#fff0a5" stroke-width="1.51"/><path d="M1206,508L1216,382L1073,396Z" fill="#cfe9ad" stroke="#cfe9ad" stroke-width="1.51"/><path d="M787,228L665,110L662,240Z" fill="#ffda92" stroke="#ffda92" stroke-width="1.51"/><path d="M921,80L787,228L950,255Z" fill="#f6d783" stroke="#f6d783" stroke-width="1.51"/><path d="M1065,658L1214,682L1206,508Z" fill="#bee49f" stroke="#bee49f" stroke-width="1.51"/><path d="M917,796L1076,787L931,671Z" fill="#bee4a0" stroke="#bee4a0" stroke-width="1.51"/><path d="M1068,929L1076,787L917,796Z" fill="#a4d9a2" stroke="#a4d9a2" stroke-width="1.51"/><path d="M662,240L490,377L657,385Z" fill="#ffe99a" stroke="#ffe99a" stroke-width="1.51"/><path d="M488,230L490,377L662,240Z" fill="#fedd8a" stroke="#fedd8a" stroke-width="1.51"/><path d="M1058,87L921,80L950,255Z" fill="#edca7c" stroke="#edca7c" stroke-width="1.51"/><path d="M634,662L649,807L790,671Z" fill="#daeeac" stroke="#daeeac" stroke-width="1.51"/><path d="M511,821L649,807L634,662Z" fill="#d1e2a2" stroke="#d1e2a2" stroke-width="1.51"/><path d="M801,105L665,110L787,228Z" fill="#ffd28a" stroke="#ffd28a" stroke-width="1.51"/><path d="M777,-47L665,110L801,105Z" fill="#ffbf80" stroke="#ffbf80" stroke-width="1.51"/><path d="M1076,787L1214,682L1065,658Z" fill="#b1dfa3" stroke="#b1dfa3" stroke-width="1.51"/><path d="M1206,508L1349,381L1216,382Z" fill="#c1e2ad" stroke="#c1e2ad" stroke-width="1.51"/><path d="M373,655L494,658L512,532Z" fill="#efe18c" stroke="#efe18c" stroke-width="1.51"/><path d="M512,532L494,658L634,662Z" fill="#eeeb96" stroke="#eeeb96" stroke-width="1.51"/><path d="M1216,382L1212,225L1067,225Z" fill="#d1d793" stroke="#d1d793" stroke-width="1.51"/><path d="M1067,225L1058,87L950,255Z" fill="#e7d083" stroke="#e7d083" stroke-width="1.51"/><path d="M1206,92L1058,87L1067,225Z" fill="#dcc17f" stroke="#dcc17f" stroke-width="1.51"/><path d="M517,105L488,230L662,240Z" fill="#ffce7e" stroke="#ffce7e" stroke-width="1.51"/><path d="M776,808L809,941L917,796Z" fill="#b7e0a7" stroke="#b7e0a7" stroke-width="1.51"/><path d="M652,962L809,941L776,808Z" fill="#b3dab2" stroke="#b3dab2" stroke-width="1.51"/><path d="M1362,517L1349,381L1206,508Z" fill="#b8e1b0" stroke="#b8e1b0" stroke-width="1.51"/><path d="M1216,382L1357,252L1212,225Z" fill="#c4d296" stroke="#c4d296" stroke-width="1.51"/><path d="M490,377L379,386L512,532Z" fill="#ffe69b" stroke="#ffe69b" stroke-width="1.51"/><path d="M488,230L379,386L490,377Z" fill="#ffda88" stroke="#ffda88" stroke-width="1.51"/><path d="M1076,787L1216,816L1214,682Z" fill="#9dd7a4" stroke="#9dd7a4" stroke-width="1.51"/><path d="M1348,673L1362,517L1206,508Z" fill="#b0dda3" stroke="#b0dda3" stroke-width="1.51"/><path d="M1068,929L1216,816L1076,787Z" fill="#93d2a5" stroke="#93d2a5" stroke-width="1.51"/><path d="M1348,673L1206,508L1214,682Z" fill="#afdda0" stroke="#afdda0" stroke-width="1.51"/><path d="M809,941L939,959L917,796Z" fill="#abd8a4" stroke="#abd8a4" stroke-width="1.51"/><path d="M488,230L353,218L379,386Z" fill="#fecd7a" stroke="#fecd7a" stroke-width="1.51"/><path d="M665,110L517,105L662,240Z" fill="#ffcc80" stroke="#ffcc80" stroke-width="1.51"/><path d="M635,-30L517,105L665,110Z" fill="#ffb875" stroke="#ffb875" stroke-width="1.51"/><path d="M649,807L652,962L776,808Z" fill="#bce0af" stroke="#bce0af" stroke-width="1.51"/><path d="M494,658L511,821L634,662Z" fill="#dbe39a" stroke="#dbe39a" stroke-width="1.51"/><path d="M365,805L511,821L494,658Z" fill="#d3d591" stroke="#d3d591" stroke-width="1.51"/><path d="M950,-65L777,-47L921,80Z" fill="#f3b171" stroke="#f3b171" stroke-width="1.51"/><path d="M1212,225L1206,92L1067,225Z" fill="#d4c685" stroke="#d4c685" stroke-width="1.51"/><path d="M1356,78L1206,92L1212,225Z" fill="#c8b780" stroke="#c8b780" stroke-width="1.51"/><path d="M939,959L1068,929L917,796Z" fill="#a1d4a3" stroke="#a1d4a3" stroke-width="1.51"/><path d="M379,386L350,519L512,532Z" fill="#fee195" stroke="#fee195" stroke-width="1.51"/><path d="M921,80L777,-47L801,105Z" fill="#f9bb77" stroke="#f9bb77" stroke-width="1.51"/><path d="M950,-65L921,80L1058,87Z" fill="#edb36f" stroke="#edb36f" stroke-width="1.51"/><path d="M1216,816L1348,673L1214,682Z" fill="#97d4a4" stroke="#97d4a4" stroke-width="1.51"/><path d="M350,519L373,655L512,532Z" fill="#f6de89" stroke="#f6de89" stroke-width="1.51"/><path d="M1349,381L1357,252L1216,382Z" fill="#bcd59e" stroke="#bcd59e" stroke-width="1.51"/><path d="M1504,364L1357,252L1349,381Z" fill="#b5c7a3" stroke="#b5c7a3" stroke-width="1.51"/><path d="M1069,-58L950,-65L1058,87Z" fill="#e2aa71" stroke="#e2aa71" stroke-width="1.51"/><path d="M809,941L944,1086L939,959Z" fill="#a2c2ad" stroke="#a2c2ad" stroke-width="1.51"/><path d="M511,821L652,962L649,807Z" fill="#bdd9a3" stroke="#bdd9a3" stroke-width="1.51"/><path d="M777,-47L635,-30L665,110Z" fill="#feb47c" stroke="#feb47c" stroke-width="1.51"/><path d="M1206,92L1069,-58L1058,87Z" fill="#dbae74" stroke="#dbae74" stroke-width="1.51"/><path d="M1228,-65L1069,-58L1206,92Z" fill="#d1a274" stroke="#d1a274" stroke-width="1.51"/><path d="M371,103L353,218L488,230Z" fill="#febc6c" stroke="#febc6c" stroke-width="1.51"/><path d="M233,364L227,509L350,519Z" fill="#ffce89" stroke="#ffce89" stroke-width="1.51"/><path d="M371,103L488,230L517,105Z" fill="#febc6d" stroke="#febc6d" stroke-width="1.51"/><path d="M1216,816L1377,814L1348,673Z" fill="#83cda5" stroke="#83cda5" stroke-width="1.51"/><path d="M1068,929L1225,949L1216,816Z" fill="#80c7a7" stroke="#80c7a7" stroke-width="1.51"/><path d="M1057,1080L1225,949L1068,929Z" fill="#80b8af" stroke="#80b8af" stroke-width="1.51"/><path d="M511,821L488,955L652,962Z" fill="#b7cca1" stroke="#b7cca1" stroke-width="1.51"/><path d="M373,655L365,805L494,658Z" fill="#ded48b" stroke="#ded48b" stroke-width="1.51"/><path d="M203,670L365,805L373,655Z" fill="#dfc881" stroke="#dfc881" stroke-width="1.51"/><path d="M489,-66L371,103L517,105Z" fill="#fca662" stroke="#fca662" stroke-width="1.51"/><path d="M365,805L488,955L511,821Z" fill="#c0cb92" stroke="#c0cb92" stroke-width="1.51"/><path d="M1517,528L1504,364L1362,517Z" fill="#abcaba" stroke="#abcaba" stroke-width="1.51"/><path d="M1362,517L1504,364L1349,381Z" fill="#b2d0b3" stroke="#b2d0b3" stroke-width="1.51"/><path d="M1225,949L1377,814L1216,816Z" fill="#74c6a5" stroke="#74c6a5" stroke-width="1.51"/><path d="M1357,252L1356,78L1212,225Z" fill="#c1be87" stroke="#c1be87" stroke-width="1.51"/><path d="M1508,105L1356,78L1357,252Z" fill="#baa888" stroke="#baa888" stroke-width="1.51"/><path d="M939,959L1057,1080L1068,929Z" fill="#90bdad" stroke="#90bdad" stroke-width="1.51"/><path d="M798,1102L944,1086L809,941Z" fill="#a3b9b2" stroke="#a3b9b2" stroke-width="1.51"/><path d="M798,1102L809,941L652,962Z" fill="#a9c4bb" stroke="#a9c4bb" stroke-width="1.51"/><path d="M350,519L203,670L373,655Z" fill="#f0ce7c" stroke="#f0ce7c" stroke-width="1.51"/><path d="M233,364L350,519L379,386Z" fill="#ffd48b" stroke="#ffd48b" stroke-width="1.51"/><path d="M233,364L379,386L353,218Z" fill="#ffc978" stroke="#ffc978" stroke-width="1.51"/><path d="M225,230L233,364L353,218Z" fill="#fdb96c" stroke="#fdb96c" stroke-width="1.51"/><path d="M641,1084L798,1102L652,962Z" fill="#abb9ba" stroke="#abb9ba" stroke-width="1.51"/><path d="M935,-201L801,-189L950,-65Z" fill="#e09c73" stroke="#e09c73" stroke-width="1.51"/><path d="M1356,78L1228,-65L1206,92Z" fill="#c8a374" stroke="#c8a374" stroke-width="1.51"/><path d="M1212,1096L1057,1080L944,1086Z" fill="#8ca6ab" stroke="#8ca6ab" stroke-width="1.51"/><path d="M944,1086L1057,1080L939,959Z" fill="#96b4ad" stroke="#96b4ad" stroke-width="1.51"/><path d="M1517,528L1362,517L1517,674Z" fill="#a3c5ac" stroke="#a3c5ac" stroke-width="1.51"/><path d="M801,-189L777,-47L950,-65Z" fill="#eca579" stroke="#eca579" stroke-width="1.51"/><path d="M635,-187L635,-30L777,-47Z" fill="#f4a57f" stroke="#f4a57f" stroke-width="1.51"/><path d="M635,-187L489,-66L635,-30Z" fill="#f29d73" stroke="#f29d73" stroke-width="1.51"/><path d="M635,-30L489,-66L517,105Z" fill="#fba86a" stroke="#fba86a" stroke-width="1.51"/><path d="M1517,674L1362,517L1348,673Z" fill="#9fcba7" stroke="#9fcba7" stroke-width="1.51"/><path d="M935,-201L950,-65L1058,-204Z" fill="#d69872" stroke="#d69872" stroke-width="1.51"/><path d="M503,1078L641,1084L652,962Z" fill="#adb3af" stroke="#adb3af" stroke-width="1.51"/><path d="M1058,-204L950,-65L1069,-58Z" fill="#d89c75" stroke="#d89c75" stroke-width="1.51"/><path d="M68,382L74,505L227,509Z" fill="#ffb87d" stroke="#ffb87d" stroke-width="1.51"/><path d="M203,109L225,230L353,218Z" fill="#fda85f" stroke="#fda85f" stroke-width="1.51"/><path d="M203,109L353,218L371,103Z" fill="#fda75d" stroke="#fda75d" stroke-width="1.51"/><path d="M1356,78L1373,-39L1228,-65Z" fill="#be9974" stroke="#be9974" stroke-width="1.51"/><path d="M1504,364L1510,235L1357,252Z" fill="#b2b89f" stroke="#b2b89f" stroke-width="1.51"/><path d="M1644,252L1510,235L1504,364Z" fill="#afa9a1" stroke="#afa9a1" stroke-width="1.51"/><path d="M1489,789L1517,674L1348,673Z" fill="#87bdad" stroke="#87bdad" stroke-width="1.51"/><path d="M801,-189L635,-187L777,-47Z" fill="#eba082" stroke="#eba082" stroke-width="1.51"/><path d="M514,-207L635,-187L801,-189Z" fill="#e19478" stroke="#e19478" stroke-width="1.51"/><path d="M227,509L203,670L350,519Z" fill="#f7ca7a" stroke="#f7ca7a" stroke-width="1.51"/><path d="M365,805L350,946L488,955Z" fill="#bcbe8f" stroke="#bcbe8f" stroke-width="1.51"/><path d="M74,505L203,670L227,509Z" fill="#f7bc74" stroke="#f7bc74" stroke-width="1.51"/><path d="M1232,-180L1058,-204L1069,-58Z" fill="#c69277" stroke="#c69277" stroke-width="1.51"/><path d="M1374,1085L1364,958L1225,949Z" fill="#57a9b0" stroke="#57a9b0" stroke-width="1.51"/><path d="M1225,949L1364,958L1377,814Z" fill="#62bba9" stroke="#62bba9" stroke-width="1.51"/><path d="M1377,814L1489,789L1348,673Z" fill="#7fc0ab" stroke="#7fc0ab" stroke-width="1.51"/><path d="M1499,951L1489,789L1377,814Z" fill="#62b0ae" stroke="#62b0ae" stroke-width="1.51"/><path d="M488,955L503,1078L652,962Z" fill="#aeb9a8" stroke="#aeb9a8" stroke-width="1.51"/><path d="M237,822L350,946L365,805Z" fill="#c4bc83" stroke="#c4bc83" stroke-width="1.51"/><path d="M641,1084L503,1078L798,1102Z" fill="#afadb1" stroke="#afadb1" stroke-width="1.51"/><path d="M346,1079L503,1078L488,955Z" fill="#b0a69e" stroke="#b0a69e" stroke-width="1.51"/><path d="M1228,-65L1232,-180L1069,-58Z" fill="#c79577" stroke="#c79577" stroke-width="1.51"/><path d="M1486,-37L1373,-39L1356,78Z" fill="#b98d7a" stroke="#b98d7a" stroke-width="1.51"/><path d="M798,1102L1212,1096L944,1086Z" fill="#9aa9a8" stroke="#9aa9a8" stroke-width="1.51"/><path d="M1057,1080L1212,1096L1225,949Z" fill="#76aab0" stroke="#76aab0" stroke-width="1.51"/><path d="M203,670L237,822L365,805Z" fill="#d5bc7e" stroke="#d5bc7e" stroke-width="1.51"/><path d="M1510,235L1508,105L1357,252Z" fill="#b5a992" stroke="#b5a992" stroke-width="1.51"/><path d="M1628,101L1508,105L1510,235Z" fill="#b3928e" stroke="#b3928e" stroke-width="1.51"/><path d="M489,-66L352,-66L371,103Z" fill="#f7955b" stroke="#f7955b" stroke-width="1.51"/><path d="M368,-196L352,-66L489,-66Z" fill="#ed8760" stroke="#ed8760" stroke-width="1.51"/><path d="M1371,-198L1232,-180L1228,-65Z" fill="#b28977" stroke="#b28977" stroke-width="1.51"/><path d="M240,-50L203,109L371,103Z" fill="#f98d51" stroke="#f98d51" stroke-width="1.51"/><path d="M68,382L227,509L233,364Z" fill="#ffbd7e" stroke="#ffbd7e" stroke-width="1.51"/><path d="M635,-187L514,-207L489,-66Z" fill="#e7926e" stroke="#e7926e" stroke-width="1.51"/><path d="M935,-201L514,-207L801,-189Z" fill="#df987e" stroke="#df987e" stroke-width="1.51"/><path d="M1058,-204L514,-207L935,-201Z" fill="#d99576" stroke="#d99576" stroke-width="1.51"/><path d="M1517,528L1639,368L1504,364Z" fill="#abb8b8" stroke="#abb8b8" stroke-width="1.51"/><path d="M1656,513L1639,368L1517,528Z" fill="#acb4b8" stroke="#acb4b8" stroke-width="1.51"/><path d="M1656,513L1517,528L1643,674Z" fill="#a5b0ab" stroke="#a5b0ab" stroke-width="1.51"/><path d="M1643,674L1517,528L1517,674Z" fill="#99b3ac" stroke="#99b3ac" stroke-width="1.51"/><path d="M72,936L215,933L237,822Z" fill="#bfa17a" stroke="#bfa17a" stroke-width="1.51"/><path d="M97,244L233,364L225,230Z" fill="#fdad67" stroke="#fdad67" stroke-width="1.51"/><path d="M1508,105L1486,-37L1356,78Z" fill="#b88e80" stroke="#b88e80" stroke-width="1.51"/><path d="M1373,-39L1371,-198L1228,-65Z" fill="#b48c78" stroke="#b48c78" stroke-width="1.51"/><path d="M1628,101L1486,-37L1508,105Z" fill="#b38184" stroke="#b38184" stroke-width="1.51"/><path d="M1654,807L1643,674L1517,674Z" fill="#87a6ac" stroke="#87a6ac" stroke-width="1.51"/><path d="M1364,958L1499,951L1377,814Z" fill="#5aadae" stroke="#5aadae" stroke-width="1.51"/><path d="M1374,1085L1499,951L1364,958Z" fill="#4b9bb6" stroke="#4b9bb6" stroke-width="1.51"/><path d="M203,109L97,244L225,230Z" fill="#fb9c5a" stroke="#fb9c5a" stroke-width="1.51"/><path d="M237,822L215,933L350,946Z" fill="#bead82" stroke="#bead82" stroke-width="1.51"/><path d="M350,946L346,1079L488,955Z" fill="#b3a997" stroke="#b3a997" stroke-width="1.51"/><path d="M64,788L237,822L203,670Z" fill="#d7ae76" stroke="#d7ae76" stroke-width="1.51"/><path d="M97,244L68,382L233,364Z" fill="#fead6b" stroke="#fead6b" stroke-width="1.51"/><path d="M1212,1096L1374,1085L1225,949Z" fill="#62a3af" stroke="#62a3af" stroke-width="1.51"/><path d="M218,1071L346,1079L350,946Z" fill="#b39690" stroke="#b39690" stroke-width="1.51"/><path d="M503,1078L78,1106L798,1102Z" fill="#b29b9a" stroke="#b29b9a" stroke-width="1.51"/><path d="M1654,807L1517,674L1489,789Z" fill="#79aaaf" stroke="#79aaaf" stroke-width="1.51"/><path d="M1789,387L1644,252L1639,368Z" fill="#b49ba1" stroke="#b49ba1" stroke-width="1.51"/><path d="M1639,368L1644,252L1504,364Z" fill="#b0a8a5" stroke="#b0a8a5" stroke-width="1.51"/><path d="M203,109L63,81L97,244Z" fill="#f98a4f" stroke="#f98a4f" stroke-width="1.51"/><path d="M352,-66L240,-50L371,103Z" fill="#f68b53" stroke="#f68b53" stroke-width="1.51"/><path d="M209,-203L240,-50L352,-66Z" fill="#ea7354" stroke="#ea7354" stroke-width="1.51"/><path d="M74,505L76,660L203,670Z" fill="#f0b36d" stroke="#f0b36d" stroke-width="1.51"/><path d="M64,788L76,660L-61,790Z" fill="#d29f75" stroke="#d29f75" stroke-width="1.51"/><path d="M514,-207L368,-196L489,-66Z" fill="#e58764" stroke="#e58764" stroke-width="1.51"/><path d="M1486,-37L1371,-198L1373,-39Z" fill="#af807e" stroke="#af807e" stroke-width="1.51"/><path d="M1232,-180L1371,-198L1058,-204Z" fill="#b18574" stroke="#b18574" stroke-width="1.51"/><path d="M1486,-37L1519,-195L1371,-198Z" fill="#a37180" stroke="#a37180" stroke-width="1.51"/><path d="M1644,252L1628,101L1510,235Z" fill="#b39492" stroke="#b39492" stroke-width="1.51"/><path d="M1636,937L1654,807L1489,789Z" fill="#679dad" stroke="#679dad" stroke-width="1.51"/><path d="M1786,656L1775,513L1656,513Z" fill="#ab9fa5" stroke="#ab9fa5" stroke-width="1.51"/><path d="M1636,937L1489,789L1499,951Z" fill="#549eb2" stroke="#549eb2" stroke-width="1.51"/><path d="M76,660L64,788L203,670Z" fill="#dfab72" stroke="#dfab72" stroke-width="1.51"/><path d="M215,933L218,1071L350,946Z" fill="#b69a89" stroke="#b69a89" stroke-width="1.51"/><path d="M-48,517L76,660L74,505Z" fill="#f0ac73" stroke="#f0ac73" stroke-width="1.51"/><path d="M72,936L218,1071L215,933Z" fill="#b78e82" stroke="#b78e82" stroke-width="1.51"/><path d="M63,-35L203,109L240,-50Z" fill="#f47347" stroke="#f47347" stroke-width="1.51"/><path d="M63,-35L63,81L203,109Z" fill="#f47346" stroke="#f47346" stroke-width="1.51"/><path d="M-56,362L-48,517L68,382Z" fill="#f5a77e" stroke="#f5a77e" stroke-width="1.51"/><path d="M68,382L-48,517L74,505Z" fill="#f8af7f" stroke="#f8af7f" stroke-width="1.51"/><path d="M1374,1085L1520,1086L1499,951Z" fill="#438bb8" stroke="#438bb8" stroke-width="1.51"/><path d="M1212,1096L1520,1086L1374,1085Z" fill="#5a90af" stroke="#5a90af" stroke-width="1.51"/><path d="M1520,1086L1636,937L1499,951Z" fill="#4188b9" stroke="#4188b9" stroke-width="1.51"/><path d="M1656,513L1789,387L1639,368Z" fill="#b2a4b0" stroke="#b2a4b0" stroke-width="1.51"/><path d="M1644,252L1803,220L1628,101Z" fill="#b6848b" stroke="#b6848b" stroke-width="1.51"/><path d="M1786,656L1656,513L1643,674Z" fill="#a3a0a3" stroke="#a3a0a3" stroke-width="1.51"/><path d="M1786,656L1643,674L1769,802Z" fill="#9096a4" stroke="#9096a4" stroke-width="1.51"/><path d="M-56,362L68,382L97,244Z" fill="#f7a36d" stroke="#f7a36d" stroke-width="1.51"/><path d="M-48,939L72,936L64,788Z" fill="#ba9377" stroke="#ba9377" stroke-width="1.51"/><path d="M64,788L72,936L237,822Z" fill="#c6a073" stroke="#c6a073" stroke-width="1.51"/><path d="M1775,513L1789,387L1656,513Z" fill="#b1a3b0" stroke="#b1a3b0" stroke-width="1.51"/><path d="M-52,229L-56,362L97,244Z" fill="#f39766" stroke="#f39766" stroke-width="1.51"/><path d="M1660,-67L1486,-37L1628,101Z" fill="#b16f7d" stroke="#b16f7d" stroke-width="1.51"/><path d="M1660,-67L1519,-195L1486,-37Z" fill="#a56882" stroke="#a56882" stroke-width="1.51"/><path d="M514,-207L209,-203L368,-196Z" fill="#db745a" stroke="#db745a" stroke-width="1.51"/><path d="M368,-196L209,-203L352,-66Z" fill="#e37356" stroke="#e37356" stroke-width="1.51"/><path d="M1769,802L1643,674L1654,807Z" fill="#8396a7" stroke="#8396a7" stroke-width="1.51"/><path d="M1775,513L1786,656L1789,387Z" fill="#aea1aa" stroke="#aea1aa" stroke-width="1.51"/><path d="M-48,517L-62,645L76,660Z" fill="#e7a671" stroke="#e7a671" stroke-width="1.51"/><path d="M-218,535L-62,645L-48,517Z" fill="#e39e74" stroke="#e39e74" stroke-width="1.51"/><path d="M76,-194L63,-35L240,-50Z" fill="#e85b49" stroke="#e85b49" stroke-width="1.51"/><path d="M63,81L-52,229L97,244Z" fill="#f48a58" stroke="#f48a58" stroke-width="1.51"/><path d="M-50,92L-52,229L63,81Z" fill="#ee7953" stroke="#ee7953" stroke-width="1.51"/><path d="M1781,-45L1660,-67L1628,101Z" fill="#b15e78" stroke="#b15e78" stroke-width="1.51"/><path d="M1787,940L1769,802L1654,807Z" fill="#708ba5" stroke="#708ba5" stroke-width="1.51"/><path d="M1787,940L1654,807L1636,937Z" fill="#6588a7" stroke="#6588a7" stroke-width="1.51"/><path d="M1786,656L1803,220L1789,387Z" fill="#b3a0ae" stroke="#b3a0ae" stroke-width="1.51"/><path d="M1789,387L1803,220L1644,252Z" fill="#b59198" stroke="#b59198" stroke-width="1.51"/><path d="M-62,645L-61,790L76,660Z" fill="#d79f75" stroke="#d79f75" stroke-width="1.51"/><path d="M-193,238L-197,393L-56,362Z" fill="#e4906e" stroke="#e4906e" stroke-width="1.51"/><path d="M-50,-32L-50,92L63,81Z" fill="#eb644a" stroke="#eb644a" stroke-width="1.51"/><path d="M-50,-32L63,81L63,-35Z" fill="#eb5f48" stroke="#eb5f48" stroke-width="1.51"/><path d="M1779,1093L1645,1093L1212,1096Z" fill="#4876b4" stroke="#4876b4" stroke-width="1.51"/><path d="M1212,1096L1645,1093L1520,1086Z" fill="#4e82b3" stroke="#4e82b3" stroke-width="1.51"/><path d="M1520,1086L1645,1093L1636,937Z" fill="#4679b5" stroke="#4679b5" stroke-width="1.51"/><path d="M1803,220L1799,99L1628,101Z" fill="#b67683" stroke="#b67683" stroke-width="1.51"/><path d="M72,936L78,1106L218,1071Z" fill="#b37a80" stroke="#b37a80" stroke-width="1.51"/><path d="M218,1071L78,1106L346,1079Z" fill="#b47d83" stroke="#b47d83" stroke-width="1.51"/><path d="M346,1079L78,1106L503,1078Z" fill="#b48a8b" stroke="#b48a8b" stroke-width="1.51"/><path d="M-48,939L78,1106L72,936Z" fill="#ae7b80" stroke="#ae7b80" stroke-width="1.51"/><path d="M1771,-177L1652,-188L1660,-67Z" fill="#9f4a79" stroke="#9f4a79" stroke-width="1.51"/><path d="M1660,-67L1652,-188L1519,-195Z" fill="#9e587d" stroke="#9e587d" stroke-width="1.51"/><path d="M209,-203L76,-194L240,-50Z" fill="#e05c4c" stroke="#e05c4c" stroke-width="1.51"/><path d="M-61,790L-48,939L64,788Z" fill="#be9477" stroke="#be9477" stroke-width="1.51"/><path d="M1645,1093L1787,940L1636,937Z" fill="#5376af" stroke="#5376af" stroke-width="1.51"/><path d="M1769,802L1787,940L1786,656Z" fill="#7c8fa5" stroke="#7c8fa5" stroke-width="1.51"/><path d="M1786,656L1787,940L1803,220Z" fill="#a69ea1" stroke="#a69ea1" stroke-width="1.51"/><path d="M-77,-180L-50,-32L63,-35Z" fill="#dd4c4c" stroke="#dd4c4c" stroke-width="1.51"/><path d="M-193,238L-56,362L-52,229Z" fill="#e98c68" stroke="#e98c68" stroke-width="1.51"/><path d="M-56,362L-197,393L-48,517Z" fill="#ed9f7f" stroke="#ed9f7f" stroke-width="1.51"/><path d="M1799,99L1781,-45L1628,101Z" fill="#b56379" stroke="#b56379" stroke-width="1.51"/><path d="M-193,238L-52,229L-50,92Z" fill="#e87c5b" stroke="#e87c5b" stroke-width="1.51"/><path d="M-62,645L-205,662L-61,790Z" fill="#ce9575" stroke="#ce9575" stroke-width="1.51"/><path d="M-61,790L-214,816L-48,939Z" fill="#b38a77" stroke="#b38a77" stroke-width="1.51"/><path d="M-223,84L-193,238L-50,92Z" fill="#de6b53" stroke="#de6b53" stroke-width="1.51"/><path d="M-223,84L-218,535L-197,393Z" fill="#db896d" stroke="#db896d" stroke-width="1.51"/><path d="M-197,393L-218,535L-48,517Z" fill="#e39b7e" stroke="#e39b7e" stroke-width="1.51"/><path d="M-218,535L-205,662L-62,645Z" fill="#d59671" stroke="#d59671" stroke-width="1.51"/><path d="M1645,1093L1779,1093L1787,940Z" fill="#5368ad" stroke="#5368ad" stroke-width="1.51"/><path d="M798,1102L1779,1093L1212,1096Z" fill="#6c99ab" stroke="#6c99ab" stroke-width="1.51"/><path d="M1799,99L1771,-177L1781,-45Z" fill="#ad5477" stroke="#ad5477" stroke-width="1.51"/><path d="M1781,-45L1771,-177L1660,-67Z" fill="#a74c78" stroke="#a74c78" stroke-width="1.51"/><path d="M-218,535L-214,816L-205,662Z" fill="#c48d71" stroke="#c48d71" stroke-width="1.51"/><path d="M-205,662L-214,816L-61,790Z" fill="#bd8c75" stroke="#bd8c75" stroke-width="1.51"/><path d="M-48,939L-74,1103L78,1106Z" fill="#a86a81" stroke="#a86a81" stroke-width="1.51"/><path d="M-221,953L-74,1103L-48,939Z" fill="#a06c82" stroke="#a06c82" stroke-width="1.51"/><path d="M-197,-36L-223,84L-50,92Z" fill="#db554a" stroke="#db554a" stroke-width="1.51"/><path d="M76,-194L-77,-180L63,-35Z" fill="#d9484c" stroke="#d9484c" stroke-width="1.51"/><path d="M-193,238L-223,84L-197,393Z" fill="#da7b5f" stroke="#da7b5f" stroke-width="1.51"/><path d="M-197,-36L-50,92L-50,-32Z" fill="#e0524a" stroke="#e0524a" stroke-width="1.51"/><path d="M-77,-180L-197,-36L-50,-32Z" fill="#d4414d" stroke="#d4414d" stroke-width="1.51"/><path d="M-223,84L-221,953L-218,535Z" fill="#d69376" stroke="#d69376" stroke-width="1.51"/><path d="M-218,535L-221,953L-214,816Z" fill="#b38573" stroke="#b38573" stroke-width="1.51"/><path d="M-214,816L-221,953L-48,939Z" fill="#a47d78" stroke="#a47d78" stroke-width="1.51"/><path d="M-77,-180L-199,-187L-197,-36Z" fill="#c6324c" stroke="#c6324c" stroke-width="1.51"/><path d="M-197,-36L-199,-187L-223,84Z" fill="#cb3c49" stroke="#cb3c49" stroke-width="1.51"/><path d="M76,-194L-199,-187L-77,-180Z" fill="#c9344c" stroke="#c9344c" stroke-width="1.51"/><path d="M209,-203L-199,-187L76,-194Z" fill="#cf4049" stroke="#cf4049" stroke-width="1.51"/><path d="M-221,953L-217,1092L-74,1103Z" fill="#965b7e" stroke="#965b7e" stroke-width="1.51"/></svg>