<svg xmlns="http://www.w3.org/2000/svg" width="1440" height="900"><path d="M763,488L758,426L662,482Z" fill="#3fb3c4" stroke="#3fb3c4" stroke-width="1.51"/><path d="M758,426L668,384L662,482Z" fill="#4bb8c3" stroke="#4bb8c3" stroke-width="1.51"/><path d="M662,482L662,579L763,488Z" fill="#40aec3" stroke="#40aec3" stroke-width="1.51"/><path d="M763,488L846,505L758,426Z" fill="#3badc3" stroke="#3badc3" stroke-width="1.51"/><path d="M794,595L846,505L763,488Z" fill="#35a5c3" stroke="#35a5c3" stroke-width="1.51"/><path d="M758,426L673,319L668,384Z" fill="#57bcc2" stroke="#57bcc2" stroke-width="1.51"/><path d="M790,291L673,319L758,426Z" fill="#5bbcc1" stroke="#5bbcc1" stroke-width="1.51"/><path d="M555,407L563,481L662,482Z" fill="#56bbc2" stroke="#56bbc2" stroke-width="1.51"/><path d="M662,482L565,576L662,579Z" fill="#4aaec2" stroke="#4aaec2" stroke-width="1.51"/><path d="M555,407L662,482L668,384Z" fill="#57bcc2" stroke="#57bcc2" stroke-width="1.51"/><path d="M662,579L794,595L763,488Z" fill="#36a7c3" stroke="#36a7c3" stroke-width="1.51"/><path d="M846,505L874,414L758,426Z" fill="#3badc3" stroke="#3badc3" stroke-width="1.51"/><path d="M544,296L555,407L668,384Z" fill="#69c3bf" stroke="#69c3bf" stroke-width="1.51"/><path d="M874,414L790,291L758,426Z" fill="#50b4c2" stroke="#50b4c2" stroke-width="1.51"/><path d="M563,481L565,576L662,482Z" fill="#52b4c1" stroke="#52b4c1" stroke-width="1.51"/><path d="M774,690L840,629L794,595Z" fill="#2e96bf" stroke="#2e96bf" stroke-width="1.51"/><path d="M485,487L565,576L563,481Z" fill="#5ab7c0" stroke="#5ab7c0" stroke-width="1.51"/><path d="M794,595L840,629L846,505Z" fill="#2d9dc2" stroke="#2d9dc2" stroke-width="1.51"/><path d="M846,505L946,519L874,414Z" fill="#34a4c2" stroke="#34a4c2" stroke-width="1.51"/><path d="M774,690L794,595L662,579Z" fill="#329ec1" stroke="#329ec1" stroke-width="1.51"/><path d="M565,576L657,676L662,579Z" fill="#46a6bf" stroke="#46a6bf" stroke-width="1.51"/><path d="M555,407L485,487L563,481Z" fill="#5fbec1" stroke="#5fbec1" stroke-width="1.51"/><path d="M555,407L497,373L485,487Z" fill="#67c2bf" stroke="#67c2bf" stroke-width="1.51"/><path d="M544,296L497,373L555,407Z" fill="#71c6be" stroke="#71c6be" stroke-width="1.51"/><path d="M580,223L544,296L673,319Z" fill="#79c9bd" stroke="#79c9bd" stroke-width="1.51"/><path d="M673,319L544,296L668,384Z" fill="#6ac3bf" stroke="#6ac3bf" stroke-width="1.51"/><path d="M657,676L774,690L662,579Z" fill="#3a9cbe" stroke="#3a9cbe" stroke-width="1.51"/><path d="M840,629L946,519L846,505Z" fill="#2c9cc1" stroke="#2c9cc1" stroke-width="1.51"/><path d="M874,414L888,270L790,291Z" fill="#5ab4c0" stroke="#5ab4c0" stroke-width="1.51"/><path d="M790,291L655,201L673,319Z" fill="#70c4bf" stroke="#70c4bf" stroke-width="1.51"/><path d="M999,326L888,270L874,414Z" fill="#54aebf" stroke="#54aebf" stroke-width="1.51"/><path d="M756,172L655,201L790,291Z" fill="#7cc8be" stroke="#7cc8be" stroke-width="1.51"/><path d="M840,629L979,581L946,519Z" fill="#2496c1" stroke="#2496c1" stroke-width="1.51"/><path d="M774,690L851,692L840,629Z" fill="#2d8fbc" stroke="#2d8fbc" stroke-width="1.51"/><path d="M655,201L580,223L673,319Z" fill="#7ecabd" stroke="#7ecabd" stroke-width="1.51"/><path d="M544,296L455,292L497,373Z" fill="#7bcbbc" stroke="#7bcbbc" stroke-width="1.51"/><path d="M565,576L561,690L657,676Z" fill="#4ca1bc" stroke="#4ca1bc" stroke-width="1.51"/><path d="M485,487L498,629L565,576Z" fill="#5ab2bf" stroke="#5ab2bf" stroke-width="1.51"/><path d="M946,519L986,418L874,414Z" fill="#33a4c2" stroke="#33a4c2" stroke-width="1.51"/><path d="M498,629L561,690L565,576Z" fill="#55a6bc" stroke="#55a6bc" stroke-width="1.51"/><path d="M657,676L661,801L774,690Z" fill="#3b8fb8" stroke="#3b8fb8" stroke-width="1.51"/><path d="M774,690L777,807L851,692Z" fill="#3186b7" stroke="#3186b7" stroke-width="1.51"/><path d="M851,692L979,581L840,629Z" fill="#268fbe" stroke="#268fbe" stroke-width="1.51"/><path d="M1088,497L1042,417L986,418Z" fill="#3799bd" stroke="#3799bd" stroke-width="1.51"/><path d="M869,193L756,172L790,291Z" fill="#7ac2be" stroke="#7ac2be" stroke-width="1.51"/><path d="M461,214L455,292L544,296Z" fill="#89d0bb" stroke="#89d0bb" stroke-width="1.51"/><path d="M497,373L375,424L485,487Z" fill="#71c5bf" stroke="#71c5bf" stroke-width="1.51"/><path d="M341,587L453,681L498,629Z" fill="#68acbb" stroke="#68acbb" stroke-width="1.51"/><path d="M888,270L869,193L790,291Z" fill="#6ebbbe" stroke="#6ebbbe" stroke-width="1.51"/><path d="M980,192L869,193L888,270Z" fill="#76b8bd" stroke="#76b8bd" stroke-width="1.51"/><path d="M986,418L999,326L874,414Z" fill="#47a7c0" stroke="#47a7c0" stroke-width="1.51"/><path d="M1042,417L999,326L986,418Z" fill="#48a0bd" stroke="#48a0bd" stroke-width="1.51"/><path d="M1088,497L986,418L946,519Z" fill="#3199be" stroke="#3199be" stroke-width="1.51"/><path d="M655,201L586,124L580,223Z" fill="#92d2bb" stroke="#92d2bb" stroke-width="1.51"/><path d="M580,223L461,214L544,296Z" fill="#8bd0bb" stroke="#8bd0bb" stroke-width="1.51"/><path d="M756,172L699,121L655,201Z" fill="#8dcfbd" stroke="#8dcfbd" stroke-width="1.51"/><path d="M791,90L699,121L756,172Z" fill="#92cebd" stroke="#92cebd" stroke-width="1.51"/><path d="M455,292L375,424L497,373Z" fill="#7ecbbd" stroke="#7ecbbd" stroke-width="1.51"/><path d="M498,629L453,681L561,690Z" fill="#5aa2b9" stroke="#5aa2b9" stroke-width="1.51"/><path d="M341,587L498,629L485,487Z" fill="#69b6be" stroke="#69b6be" stroke-width="1.51"/><path d="M375,424L371,481L485,487Z" fill="#75c4bf" stroke="#75c4bf" stroke-width="1.51"/><path d="M586,797L661,801L657,676Z" fill="#478cb5" stroke="#478cb5" stroke-width="1.51"/><path d="M586,797L657,676L561,690Z" fill="#4c94b7" stroke="#4c94b7" stroke-width="1.51"/><path d="M661,801L777,807L774,690Z" fill="#3786b5" stroke="#3786b5" stroke-width="1.51"/><path d="M851,692L965,723L979,581Z" fill="#2287bb" stroke="#2287bb" stroke-width="1.51"/><path d="M455,292L356,287L375,424Z" fill="#8bd0bb" stroke="#8bd0bb" stroke-width="1.51"/><path d="M493,100L461,214L580,223Z" fill="#9cd7b9" stroke="#9cd7b9" stroke-width="1.51"/><path d="M491,775L586,797L561,690Z" fill="#5491b3" stroke="#5491b3" stroke-width="1.51"/><path d="M699,121L586,124L655,201Z" fill="#97d3bb" stroke="#97d3bb" stroke-width="1.51"/><path d="M866,794L965,723L851,692Z" fill="#287eb6" stroke="#287eb6" stroke-width="1.51"/><path d="M979,581L1088,497L946,519Z" fill="#2a92be" stroke="#2a92be" stroke-width="1.51"/><path d="M777,807L866,794L851,692Z" fill="#307eb4" stroke="#307eb4" stroke-width="1.51"/><path d="M1085,626L1088,497L979,581Z" fill="#2789bb" stroke="#2789bb" stroke-width="1.51"/><path d="M1063,220L980,192L999,326Z" fill="#6cabba" stroke="#6cabba" stroke-width="1.51"/><path d="M869,193L873,118L756,172Z" fill="#88c4bc" stroke="#88c4bc" stroke-width="1.51"/><path d="M980,192L873,118L869,193Z" fill="#84bdbc" stroke="#84bdbc" stroke-width="1.51"/><path d="M1063,220L999,326L1095,270Z" fill="#64a4b8" stroke="#64a4b8" stroke-width="1.51"/><path d="M999,326L980,192L888,270Z" fill="#67b1bd" stroke="#67b1bd" stroke-width="1.51"/><path d="M873,118L791,90L756,172Z" fill="#90c9bc" stroke="#90c9bc" stroke-width="1.51"/><path d="M673,-23L555,18L586,124Z" fill="#aadbba" stroke="#aadbba" stroke-width="1.51"/><path d="M389,717L491,775L453,681Z" fill="#659bb4" stroke="#659bb4" stroke-width="1.51"/><path d="M453,681L491,775L561,690Z" fill="#5a99b5" stroke="#5a99b5" stroke-width="1.51"/><path d="M371,481L341,587L485,487Z" fill="#74bfbd" stroke="#74bfbd" stroke-width="1.51"/><path d="M290,492L341,587L371,481Z" fill="#80c2bd" stroke="#80c2bd" stroke-width="1.51"/><path d="M358,214L356,287L455,292Z" fill="#9bd7b9" stroke="#9bd7b9" stroke-width="1.51"/><path d="M375,424L290,492L371,481Z" fill="#81c9be" stroke="#81c9be" stroke-width="1.51"/><path d="M358,214L455,292L461,214Z" fill="#9bd7b9" stroke="#9bd7b9" stroke-width="1.51"/><path d="M1083,685L1085,626L979,581Z" fill="#227fb8" stroke="#227fb8" stroke-width="1.51"/><path d="M341,587L389,717L453,681Z" fill="#6fa9b8" stroke="#6fa9b8" stroke-width="1.51"/><path d="M965,723L1083,685L979,581Z" fill="#237eb8" stroke="#237eb8" stroke-width="1.51"/><path d="M866,794L980,784L965,723Z" fill="#2575b3" stroke="#2575b3" stroke-width="1.51"/><path d="M974,906L980,784L866,794Z" fill="#296daf" stroke="#296daf" stroke-width="1.51"/><path d="M586,124L493,100L580,223Z" fill="#a0d8b9" stroke="#a0d8b9" stroke-width="1.51"/><path d="M555,18L493,100L586,124Z" fill="#aadcb8" stroke="#aadcb8" stroke-width="1.51"/><path d="M1095,270L999,326L1042,417Z" fill="#53a0ba" stroke="#53a0ba" stroke-width="1.51"/><path d="M980,192L964,80L873,118Z" fill="#8abdbb" stroke="#8abdbb" stroke-width="1.51"/><path d="M260,387L290,492L375,424Z" fill="#8ccebc" stroke="#8ccebc" stroke-width="1.51"/><path d="M341,587L276,603L389,717Z" fill="#7ab2b9" stroke="#7ab2b9" stroke-width="1.51"/><path d="M1154,487L1042,417L1088,497Z" fill="#3490ba" stroke="#3490ba" stroke-width="1.51"/><path d="M1154,308L1095,270L1042,417Z" fill="#549ab7" stroke="#549ab7" stroke-width="1.51"/><path d="M1049,806L1083,685L965,723Z" fill="#236fb1" stroke="#236fb1" stroke-width="1.51"/><path d="M356,287L296,307L375,424Z" fill="#94d3ba" stroke="#94d3ba" stroke-width="1.51"/><path d="M362,84L358,214L461,214Z" fill="#b0dfb7" stroke="#b0dfb7" stroke-width="1.51"/><path d="M1142,582L1088,497L1085,626Z" fill="#2783b8" stroke="#2783b8" stroke-width="1.51"/><path d="M1142,582L1154,487L1088,497Z" fill="#2e85b8" stroke="#2e85b8" stroke-width="1.51"/><path d="M1149,674L1142,582L1085,626Z" fill="#2378b5" stroke="#2378b5" stroke-width="1.51"/><path d="M287,208L296,307L356,287Z" fill="#a6dbb8" stroke="#a6dbb8" stroke-width="1.51"/><path d="M791,90L775,11L699,121Z" fill="#99d0bc" stroke="#99d0bc" stroke-width="1.51"/><path d="M890,6L775,11L791,90Z" fill="#9dccbb" stroke="#9dccbb" stroke-width="1.51"/><path d="M890,6L791,90L873,118Z" fill="#96c7bb" stroke="#96c7bb" stroke-width="1.51"/><path d="M1097,121L964,80L980,192Z" fill="#89b4b8" stroke="#89b4b8" stroke-width="1.51"/><path d="M296,307L260,387L375,424Z" fill="#94d3ba" stroke="#94d3ba" stroke-width="1.51"/><path d="M290,492L276,603L341,587Z" fill="#83bfbc" stroke="#83bfbc" stroke-width="1.51"/><path d="M194,617L276,603L290,492Z" fill="#8ac0bc" stroke="#8ac0bc" stroke-width="1.51"/><path d="M491,775L555,894L586,797Z" fill="#5687ae" stroke="#5687ae" stroke-width="1.51"/><path d="M586,797L555,894L661,801Z" fill="#4f83af" stroke="#4f83af" stroke-width="1.51"/><path d="M661,801L690,922L777,807Z" fill="#3e7cb0" stroke="#3e7cb0" stroke-width="1.51"/><path d="M777,807L855,906L866,794Z" fill="#3474b0" stroke="#3474b0" stroke-width="1.51"/><path d="M460,920L555,894L491,775Z" fill="#5c83ab" stroke="#5c83ab" stroke-width="1.51"/><path d="M355,819L491,775L389,717Z" fill="#6c95b0" stroke="#6c95b0" stroke-width="1.51"/><path d="M555,894L690,922L661,801Z" fill="#4b7cad" stroke="#4b7cad" stroke-width="1.51"/><path d="M1063,220L1097,121L980,192Z" fill="#7fadb6" stroke="#7fadb6" stroke-width="1.51"/><path d="M1178,216L1097,121L1063,220Z" fill="#7ba4b4" stroke="#7ba4b4" stroke-width="1.51"/><path d="M1186,398L1154,308L1042,417Z" fill="#4b93b7" stroke="#4b93b7" stroke-width="1.51"/><path d="M777,928L855,906L777,807Z" fill="#3870ad" stroke="#3870ad" stroke-width="1.51"/><path d="M980,784L1049,806L965,723Z" fill="#256eb0" stroke="#256eb0" stroke-width="1.51"/><path d="M362,84L287,208L358,214Z" fill="#b9e3b6" stroke="#b9e3b6" stroke-width="1.51"/><path d="M673,-23L586,124L699,121Z" fill="#a1d7bb" stroke="#a1d7bb" stroke-width="1.51"/><path d="M690,922L777,928L777,807Z" fill="#3c73ad" stroke="#3c73ad" stroke-width="1.51"/><path d="M1154,487L1186,398L1042,417Z" fill="#3c8fb8" stroke="#3c8fb8" stroke-width="1.51"/><path d="M1253,377L1186,398L1261,502Z" fill="#4185b3" stroke="#4185b3" stroke-width="1.51"/><path d="M974,906L1049,806L980,784Z" fill="#2865ac" stroke="#2865ac" stroke-width="1.51"/><path d="M1083,685L1149,674L1085,626Z" fill="#2374b3" stroke="#2374b3" stroke-width="1.51"/><path d="M1147,771L1149,674L1083,685Z" fill="#236aae" stroke="#236aae" stroke-width="1.51"/><path d="M1261,502L1186,398L1154,487Z" fill="#3785b5" stroke="#3785b5" stroke-width="1.51"/><path d="M775,11L673,-23L699,121Z" fill="#a1d5bc" stroke="#a1d5bc" stroke-width="1.51"/><path d="M964,80L890,6L873,118Z" fill="#94c3bb" stroke="#94c3bb" stroke-width="1.51"/><path d="M775,11L684,-89L673,-23Z" fill="#a8d8c0" stroke="#a8d8c0" stroke-width="1.51"/><path d="M151,323L141,402L260,387Z" fill="#a4d8ba" stroke="#a4d8ba" stroke-width="1.51"/><path d="M358,214L287,208L356,287Z" fill="#aaddb7" stroke="#aaddb7" stroke-width="1.51"/><path d="M362,84L461,214L493,100Z" fill="#b0dfb7" stroke="#b0dfb7" stroke-width="1.51"/><path d="M555,18L458,24L493,100Z" fill="#b2dfb7" stroke="#b2dfb7" stroke-width="1.51"/><path d="M492,-86L458,24L555,18Z" fill="#bae2b8" stroke="#bae2b8" stroke-width="1.51"/><path d="M276,823L355,819L389,717Z" fill="#7897ae" stroke="#7897ae" stroke-width="1.51"/><path d="M1178,216L1063,220L1095,270Z" fill="#6ea0b4" stroke="#6ea0b4" stroke-width="1.51"/><path d="M964,80L969,-2L890,6Z" fill="#99c2bb" stroke="#99c2bb" stroke-width="1.51"/><path d="M1178,216L1095,270L1154,308Z" fill="#669ab3" stroke="#669ab3" stroke-width="1.51"/><path d="M458,24L362,84L493,100Z" fill="#b9e2b6" stroke="#b9e2b6" stroke-width="1.51"/><path d="M1049,806L1147,771L1083,685Z" fill="#2366ac" stroke="#2366ac" stroke-width="1.51"/><path d="M855,906L974,906L866,794Z" fill="#2f6aad" stroke="#2f6aad" stroke-width="1.51"/><path d="M889,995L974,906L855,906Z" fill="#2c62a3" stroke="#2c62a3" stroke-width="1.51"/><path d="M194,617L240,678L276,603Z" fill="#8ab7b9" stroke="#8ab7b9" stroke-width="1.51"/><path d="M276,603L240,678L389,717Z" fill="#80aeb7" stroke="#80aeb7" stroke-width="1.51"/><path d="M1297,291L1178,216L1154,308Z" fill="#6492b1" stroke="#6492b1" stroke-width="1.51"/><path d="M555,894L664,992L690,922Z" fill="#4773a4" stroke="#4773a4" stroke-width="1.51"/><path d="M690,922L664,992L777,928Z" fill="#3b70a3" stroke="#3b70a3" stroke-width="1.51"/><path d="M355,819L460,920L491,775Z" fill="#688aac" stroke="#688aac" stroke-width="1.51"/><path d="M1056,-2L969,-2L964,80Z" fill="#99bbb9" stroke="#99bbb9" stroke-width="1.51"/><path d="M792,-93L684,-89L775,11Z" fill="#a7d5c3" stroke="#a7d5c3" stroke-width="1.51"/><path d="M1261,502L1154,487L1142,582Z" fill="#307fb5" stroke="#307fb5" stroke-width="1.51"/><path d="M1179,895L1147,771L1049,806Z" fill="#2659a6" stroke="#2659a6" stroke-width="1.51"/><path d="M568,994L664,992L555,894Z" fill="#4a749e" stroke="#4a749e" stroke-width="1.51"/><path d="M794,1020L889,995L855,906Z" fill="#2d639c" stroke="#2d639c" stroke-width="1.51"/><path d="M154,471L194,617L290,492Z" fill="#91c7bc" stroke="#91c7bc" stroke-width="1.51"/><path d="M154,471L290,492L260,387Z" fill="#93d0bd" stroke="#93d0bd" stroke-width="1.51"/><path d="M276,823L389,717L240,678Z" fill="#7fa1b1" stroke="#7fa1b1" stroke-width="1.51"/><path d="M276,823L357,873L355,819Z" fill="#7a90ab" stroke="#7a90ab" stroke-width="1.51"/><path d="M355,819L357,873L460,920Z" fill="#7088aa" stroke="#7088aa" stroke-width="1.51"/><path d="M1186,398L1253,377L1154,308Z" fill="#4f8db3" stroke="#4f8db3" stroke-width="1.51"/><path d="M1261,502L1142,582L1251,611Z" fill="#2b77b3" stroke="#2b77b3" stroke-width="1.51"/><path d="M1251,611L1142,582L1149,674Z" fill="#2472b2" stroke="#2472b2" stroke-width="1.51"/><path d="M673,-23L577,-87L555,18Z" fill="#b2ddbd" stroke="#b2ddbd" stroke-width="1.51"/><path d="M792,-93L775,11L890,6Z" fill="#a3cfbe" stroke="#a3cfbe" stroke-width="1.51"/><path d="M474,980L555,894L460,920Z" fill="#5a7ba2" stroke="#5a7ba2" stroke-width="1.51"/><path d="M474,980L568,994L555,894Z" fill="#53769e" stroke="#53769e" stroke-width="1.51"/><path d="M1285,693L1251,611L1149,674Z" fill="#2668ad" stroke="#2668ad" stroke-width="1.51"/><path d="M869,-130L792,-93L890,6Z" fill="#a4ccc4" stroke="#a4ccc4" stroke-width="1.51"/><path d="M141,402L154,471L260,387Z" fill="#9cd5bb" stroke="#9cd5bb" stroke-width="1.51"/><path d="M794,1020L777,928L664,992Z" fill="#346a9c" stroke="#346a9c" stroke-width="1.51"/><path d="M794,1020L855,906L777,928Z" fill="#3268a1" stroke="#3268a1" stroke-width="1.51"/><path d="M974,906L1097,921L1049,806Z" fill="#295ba7" stroke="#295ba7" stroke-width="1.51"/><path d="M684,-89L577,-87L673,-23Z" fill="#b0dcc3" stroke="#b0dcc3" stroke-width="1.51"/><path d="M458,24L388,-16L362,84Z" fill="#c3e6b5" stroke="#c3e6b5" stroke-width="1.51"/><path d="M869,-130L577,-87L684,-89Z" fill="#abdac9" stroke="#abdac9" stroke-width="1.51"/><path d="M791,1089L794,1020L664,992Z" fill="#2d6590" stroke="#2d6590" stroke-width="1.51"/><path d="M161,780L276,823L240,678Z" fill="#88a0af" stroke="#88a0af" stroke-width="1.51"/><path d="M379,1003L474,980L460,920Z" fill="#607a9a" stroke="#607a9a" stroke-width="1.51"/><path d="M379,1003L460,920L357,873Z" fill="#6b80a1" stroke="#6b80a1" stroke-width="1.51"/><path d="M967,-100L869,-130L890,6Z" fill="#a2c8c4" stroke="#a2c8c4" stroke-width="1.51"/><path d="M1097,121L1056,-2L964,80Z" fill="#92b4b6" stroke="#92b4b6" stroke-width="1.51"/><path d="M1180,85L1056,-2L1097,121Z" fill="#90abb2" stroke="#90abb2" stroke-width="1.51"/><path d="M151,323L260,387L296,307Z" fill="#a3d9b9" stroke="#a3d9b9" stroke-width="1.51"/><path d="M151,323L296,307L287,208Z" fill="#acdeb7" stroke="#acdeb7" stroke-width="1.51"/><path d="M362,84L241,80L287,208Z" fill="#c7e9b5" stroke="#c7e9b5" stroke-width="1.51"/><path d="M492,-86L388,-16L458,24Z" fill="#c2e6b9" stroke="#c2e6b9" stroke-width="1.51"/><path d="M144,190L151,323L287,208Z" fill="#bae3b6" stroke="#bae3b6" stroke-width="1.51"/><path d="M387,-102L492,-86L577,-87Z" fill="#c0e5c2" stroke="#c0e5c2" stroke-width="1.51"/><path d="M577,-87L492,-86L555,18Z" fill="#b8e1be" stroke="#b8e1be" stroke-width="1.51"/><path d="M51,592L194,617L154,471Z" fill="#97c5bb" stroke="#97c5bb" stroke-width="1.51"/><path d="M51,592L172,699L194,617Z" fill="#93b9b8" stroke="#93b9b8" stroke-width="1.51"/><path d="M194,617L172,699L240,678Z" fill="#8db2b6" stroke="#8db2b6" stroke-width="1.51"/><path d="M1178,216L1180,85L1097,121Z" fill="#85a3b1" stroke="#85a3b1" stroke-width="1.51"/><path d="M1292,199L1180,85L1178,216Z" fill="#809aaf" stroke="#809aaf" stroke-width="1.51"/><path d="M978,1102L990,992L889,995Z" fill="#1d558e" stroke="#1d558e" stroke-width="1.51"/><path d="M889,995L990,992L974,906Z" fill="#255c9c" stroke="#255c9c" stroke-width="1.51"/><path d="M990,992L1097,921L974,906Z" fill="#26569e" stroke="#26569e" stroke-width="1.51"/><path d="M1147,771L1285,693L1149,674Z" fill="#2362aa" stroke="#2362aa" stroke-width="1.51"/><path d="M194,85L241,80L182,9Z" fill="#d8efb3" stroke="#d8efb3" stroke-width="1.51"/><path d="M277,-14L241,80L362,84Z" fill="#d0ecb4" stroke="#d0ecb4" stroke-width="1.51"/><path d="M1253,377L1297,291L1154,308Z" fill="#578bb0" stroke="#578bb0" stroke-width="1.51"/><path d="M1345,322L1297,291L1253,377Z" fill="#5785ae" stroke="#5785ae" stroke-width="1.51"/><path d="M1345,322L1253,377L1365,392Z" fill="#5180ae" stroke="#5180ae" stroke-width="1.51"/><path d="M792,-93L869,-130L684,-89Z" fill="#a9d4c9" stroke="#a9d4c9" stroke-width="1.51"/><path d="M967,-100L890,6L969,-2Z" fill="#9ec4be" stroke="#9ec4be" stroke-width="1.51"/><path d="M1056,-2L967,-100L969,-2Z" fill="#9dbdbc" stroke="#9dbdbc" stroke-width="1.51"/><path d="M1078,-108L967,-100L1056,-2Z" fill="#9eb9bf" stroke="#9eb9bf" stroke-width="1.51"/><path d="M1290,820L1285,693L1147,771Z" fill="#2456a5" stroke="#2456a5" stroke-width="1.51"/><path d="M1375,512L1365,392L1261,502Z" fill="#3b77af" stroke="#3b77af" stroke-width="1.51"/><path d="M141,402L94,386L154,471Z" fill="#a2d6bb" stroke="#a2d6bb" stroke-width="1.51"/><path d="M151,323L94,386L141,402Z" fill="#a9dab9" stroke="#a9dab9" stroke-width="1.51"/><path d="M92,318L94,386L151,323Z" fill="#aedcb9" stroke="#aedcb9" stroke-width="1.51"/><path d="M194,85L144,190L287,208Z" fill="#caeab4" stroke="#caeab4" stroke-width="1.51"/><path d="M794,1020L881,1084L889,995Z" fill="#255d8f" stroke="#255d8f" stroke-width="1.51"/><path d="M646,1104L791,1089L664,992Z" fill="#31668c" stroke="#31668c" stroke-width="1.51"/><path d="M646,1104L664,992L568,994Z" fill="#3e6c8f" stroke="#3e6c8f" stroke-width="1.51"/><path d="M1297,291L1292,199L1178,216Z" fill="#6e90ae" stroke="#6e90ae" stroke-width="1.51"/><path d="M1190,1019L1179,895L1097,921Z" fill="#224796" stroke="#224796" stroke-width="1.51"/><path d="M1097,921L1179,895L1049,806Z" fill="#2754a4" stroke="#2754a4" stroke-width="1.51"/><path d="M548,1088L646,1104L568,994Z" fill="#416b8b" stroke="#416b8b" stroke-width="1.51"/><path d="M279,992L379,1003L357,873Z" fill="#72809b" stroke="#72809b" stroke-width="1.51"/><path d="M259,920L357,873L276,823Z" fill="#7f8da9" stroke="#7f8da9" stroke-width="1.51"/><path d="M144,190L92,318L151,323Z" fill="#b7e1b6" stroke="#b7e1b6" stroke-width="1.51"/><path d="M172,699L161,780L240,678Z" fill="#8ca8b2" stroke="#8ca8b2" stroke-width="1.51"/><path d="M58,703L161,780L172,699Z" fill="#92a9b1" stroke="#92a9b1" stroke-width="1.51"/><path d="M277,-14L362,84L388,-16Z" fill="#cdebb4" stroke="#cdebb4" stroke-width="1.51"/><path d="M241,80L194,85L287,208Z" fill="#cdebb4" stroke="#cdebb4" stroke-width="1.51"/><path d="M296,-93L277,-14L388,-16Z" fill="#d5efb9" stroke="#d5efb9" stroke-width="1.51"/><path d="M791,1089L881,1084L794,1020Z" fill="#265d8c" stroke="#265d8c" stroke-width="1.51"/><path d="M990,992L1080,1004L1097,921Z" fill="#225095" stroke="#225095" stroke-width="1.51"/><path d="M1297,291L1355,186L1292,199Z" fill="#718bab" stroke="#718bab" stroke-width="1.51"/><path d="M1365,392L1253,377L1261,502Z" fill="#437fb0" stroke="#437fb0" stroke-width="1.51"/><path d="M192,898L259,920L276,823Z" fill="#868ea8" stroke="#868ea8" stroke-width="1.51"/><path d="M548,1088L568,994L492,1071Z" fill="#476d8a" stroke="#476d8a" stroke-width="1.51"/><path d="M791,1089L978,1102L881,1084Z" fill="#21598b" stroke="#21598b" stroke-width="1.51"/><path d="M492,1071L568,994L474,980Z" fill="#4e7291" stroke="#4e7291" stroke-width="1.51"/><path d="M379,1003L492,1071L474,980Z" fill="#587590" stroke="#587590" stroke-width="1.51"/><path d="M492,-86L387,-102L388,-16Z" fill="#c8e9be" stroke="#c8e9be" stroke-width="1.51"/><path d="M869,-130L387,-102L577,-87Z" fill="#b5dfc7" stroke="#b5dfc7" stroke-width="1.51"/><path d="M1375,512L1261,502L1251,611Z" fill="#3172b0" stroke="#3172b0" stroke-width="1.51"/><path d="M978,1102L1080,1004L990,992Z" fill="#1c4f8a" stroke="#1c4f8a" stroke-width="1.51"/><path d="M1377,610L1375,512L1251,611Z" fill="#2d6aad" stroke="#2d6aad" stroke-width="1.51"/><path d="M1293,-19L1172,-22L1180,85Z" fill="#96a2ad" stroke="#96a2ad" stroke-width="1.51"/><path d="M1180,85L1172,-22L1056,-2Z" fill="#96aab1" stroke="#96aab1" stroke-width="1.51"/><path d="M94,386L48,523L154,471Z" fill="#a0d3bc" stroke="#a0d3bc" stroke-width="1.51"/><path d="M-12,582L48,523L-59,477Z" fill="#a3cdbf" stroke="#a3cdbf" stroke-width="1.51"/><path d="M1172,-22L1078,-108L1056,-2Z" fill="#9bb0b8" stroke="#9bb0b8" stroke-width="1.51"/><path d="M967,-100L1078,-108L869,-130Z" fill="#a1c2c7" stroke="#a1c2c7" stroke-width="1.51"/><path d="M48,523L51,592L154,471Z" fill="#9dcabb" stroke="#9dcabb" stroke-width="1.51"/><path d="M1285,693L1377,610L1251,611Z" fill="#2964ab" stroke="#2964ab" stroke-width="1.51"/><path d="M1179,895L1290,820L1147,771Z" fill="#2550a2" stroke="#2550a2" stroke-width="1.51"/><path d="M1284,917L1290,820L1179,895Z" fill="#26459c" stroke="#26459c" stroke-width="1.51"/><path d="M1352,715L1377,610L1285,693Z" fill="#295ba7" stroke="#295ba7" stroke-width="1.51"/><path d="M161,780L192,898L276,823Z" fill="#8995ab" stroke="#8995ab" stroke-width="1.51"/><path d="M259,920L279,992L357,873Z" fill="#7c85a1" stroke="#7c85a1" stroke-width="1.51"/><path d="M379,1003L351,1106L492,1071Z" fill="#5b7488" stroke="#5b7488" stroke-width="1.51"/><path d="M86,884L192,898L161,780Z" fill="#8f94a9" stroke="#8f94a9" stroke-width="1.51"/><path d="M83,95L82,201L144,190Z" fill="#d3edb4" stroke="#d3edb4" stroke-width="1.51"/><path d="M144,190L82,201L92,318Z" fill="#c3e6b5" stroke="#c3e6b5" stroke-width="1.51"/><path d="M-25,371L48,523L94,386Z" fill="#a9d9bb" stroke="#a9d9bb" stroke-width="1.51"/><path d="M83,95L144,190L194,85Z" fill="#d6efb3" stroke="#d6efb3" stroke-width="1.51"/><path d="M158,998L279,992L259,920Z" fill="#7e8498" stroke="#7e8498" stroke-width="1.51"/><path d="M1290,820L1352,715L1285,693Z" fill="#2553a3" stroke="#2553a3" stroke-width="1.51"/><path d="M1292,199L1297,92L1180,85Z" fill="#8798ac" stroke="#8798ac" stroke-width="1.51"/><path d="M1172,-22L1192,-85L1078,-108Z" fill="#9cabb9" stroke="#9cabb9" stroke-width="1.51"/><path d="M1355,186L1297,92L1292,199Z" fill="#8191aa" stroke="#8191aa" stroke-width="1.51"/><path d="M1355,186L1297,291L1345,322Z" fill="#6786ab" stroke="#6786ab" stroke-width="1.51"/><path d="M1190,1019L1284,917L1179,895Z" fill="#224193" stroke="#224193" stroke-width="1.51"/><path d="M881,1084L978,1102L889,995Z" fill="#1e578b" stroke="#1e578b" stroke-width="1.51"/><path d="M1046,1124L978,1102L791,1089Z" fill="#1b558a" stroke="#1b558a" stroke-width="1.51"/><path d="M277,-14L182,9L241,80Z" fill="#daf0b3" stroke="#daf0b3" stroke-width="1.51"/><path d="M387,-102L296,-93L388,-16Z" fill="#d2edbe" stroke="#d2edbe" stroke-width="1.51"/><path d="M1367,104L1355,186L1450,215Z" fill="#7f88a7" stroke="#7f88a7" stroke-width="1.51"/><path d="M1450,215L1355,186L1345,322Z" fill="#6d83a8" stroke="#6d83a8" stroke-width="1.51"/><path d="M177,-94L182,9L277,-14Z" fill="#e1f4b6" stroke="#e1f4b6" stroke-width="1.51"/><path d="M51,592L58,703L172,699Z" fill="#97b5b6" stroke="#97b5b6" stroke-width="1.51"/><path d="M58,703L76,797L161,780Z" fill="#94a3af" stroke="#94a3af" stroke-width="1.51"/><path d="M265,1071L379,1003L279,992Z" fill="#6e7c8d" stroke="#6e7c8d" stroke-width="1.51"/><path d="M1293,-19L1180,85L1297,92Z" fill="#919cac" stroke="#919cac" stroke-width="1.51"/><path d="M1293,-19L1192,-85L1172,-22Z" fill="#9aa3b3" stroke="#9aa3b3" stroke-width="1.51"/><path d="M91,25L83,95L194,85Z" fill="#def2b2" stroke="#def2b2" stroke-width="1.51"/><path d="M-25,371L94,386L92,318Z" fill="#b1ddb9" stroke="#b1ddb9" stroke-width="1.51"/><path d="M91,25L194,85L182,9Z" fill="#dff3b3" stroke="#dff3b3" stroke-width="1.51"/><path d="M1290,820L1391,779L1352,715Z" fill="#264b9f" stroke="#264b9f" stroke-width="1.51"/><path d="M1190,1019L1097,921L1080,1004Z" fill="#1f4790" stroke="#1f4790" stroke-width="1.51"/><path d="M1149,1084L1190,1019L1080,1004Z" fill="#194184" stroke="#194184" stroke-width="1.51"/><path d="M51,592L-37,694L58,703Z" fill="#9cb7b8" stroke="#9cb7b8" stroke-width="1.51"/><path d="M58,703L-16,784L76,797Z" fill="#98a5af" stroke="#98a5af" stroke-width="1.51"/><path d="M48,523L-12,582L51,592Z" fill="#9fc7bc" stroke="#9fc7bc" stroke-width="1.51"/><path d="M-25,371L92,318L-42,326Z" fill="#b6e0bb" stroke="#b6e0bb" stroke-width="1.51"/><path d="M265,1071L351,1106L379,1003Z" fill="#677887" stroke="#677887" stroke-width="1.51"/><path d="M492,1071L351,1106L548,1088Z" fill="#527189" stroke="#527189" stroke-width="1.51"/><path d="M548,1088L351,1106L646,1104Z" fill="#4a6e89" stroke="#4a6e89" stroke-width="1.51"/><path d="M646,1104L1046,1124L791,1089Z" fill="#255d8c" stroke="#255d8c" stroke-width="1.51"/><path d="M265,1071L279,992L158,998Z" fill="#777f8d" stroke="#777f8d" stroke-width="1.51"/><path d="M978,1102L1046,1124L1080,1004Z" fill="#1a4b86" stroke="#1a4b86" stroke-width="1.51"/><path d="M351,1106L1046,1124L646,1104Z" fill="#34678c" stroke="#34678c" stroke-width="1.51"/><path d="M1355,186L1367,104L1297,92Z" fill="#8790a9" stroke="#8790a9" stroke-width="1.51"/><path d="M1446,323L1345,322L1365,392Z" fill="#557cab" stroke="#557cab" stroke-width="1.51"/><path d="M1446,323L1365,392L1492,417Z" fill="#4c76a5" stroke="#4c76a5" stroke-width="1.51"/><path d="M-42,326L92,318L82,201Z" fill="#bee4b6" stroke="#bee4b6" stroke-width="1.51"/><path d="M1484,479L1365,392L1375,512Z" fill="#3c72ab" stroke="#3c72ab" stroke-width="1.51"/><path d="M1484,479L1375,512L1481,628Z" fill="#3166a4" stroke="#3166a4" stroke-width="1.51"/><path d="M1461,710L1481,628L1377,610Z" fill="#2757a0" stroke="#2757a0" stroke-width="1.51"/><path d="M1356,898L1391,779L1290,820Z" fill="#26439a" stroke="#26439a" stroke-width="1.51"/><path d="M1383,-21L1293,-19L1297,92Z" fill="#9597a9" stroke="#9597a9" stroke-width="1.51"/><path d="M76,797L86,884L161,780Z" fill="#929bab" stroke="#929bab" stroke-width="1.51"/><path d="M-16,784L86,884L76,797Z" fill="#989cab" stroke="#989cab" stroke-width="1.51"/><path d="M158,998L259,920L192,898Z" fill="#84889e" stroke="#84889e" stroke-width="1.51"/><path d="M1046,1124L1149,1084L1080,1004Z" fill="#184583" stroke="#184583" stroke-width="1.51"/><path d="M1355,980L1356,898L1284,917Z" fill="#233790" stroke="#233790" stroke-width="1.51"/><path d="M-20,177L-42,326L82,201Z" fill="#c9e9b8" stroke="#c9e9b8" stroke-width="1.51"/><path d="M177,-94L91,25L182,9Z" fill="#e5f5b4" stroke="#e5f5b4" stroke-width="1.51"/><path d="M-25,371L-59,477L48,523Z" fill="#a7d7c0" stroke="#a7d7c0" stroke-width="1.51"/><path d="M-20,177L82,201L83,95Z" fill="#d8efb3" stroke="#d8efb3" stroke-width="1.51"/><path d="M1481,628L1375,512L1377,610Z" fill="#2d63a8" stroke="#2d63a8" stroke-width="1.51"/><path d="M296,-93L177,-94L277,-14Z" fill="#e0f3bb" stroke="#e0f3bb" stroke-width="1.51"/><path d="M387,-102L177,-94L296,-93Z" fill="#def2c0" stroke="#def2c0" stroke-width="1.51"/><path d="M61,-101L177,-94L387,-102Z" fill="#e6f5bf" stroke="#e6f5bf" stroke-width="1.51"/><path d="M-12,582L-37,694L51,592Z" fill="#9ebfbc" stroke="#9ebfbc" stroke-width="1.51"/><path d="M-127,489L-59,477L-136,395Z" fill="#aad9c9" stroke="#aad9c9" stroke-width="1.51"/><path d="M86,884L158,998L192,898Z" fill="#8b8aa0" stroke="#8b8aa0" stroke-width="1.51"/><path d="M1363,-87L1283,-124L1293,-19Z" fill="#9b9ab2" stroke="#9b9ab2" stroke-width="1.51"/><path d="M1446,323L1450,215L1345,322Z" fill="#607da6" stroke="#607da6" stroke-width="1.51"/><path d="M1549,194L1450,215L1446,323Z" fill="#667c9c" stroke="#667c9c" stroke-width="1.51"/><path d="M1461,710L1377,610L1352,715Z" fill="#2955a4" stroke="#2955a4" stroke-width="1.51"/><path d="M1284,917L1356,898L1290,820Z" fill="#263f99" stroke="#263f99" stroke-width="1.51"/><path d="M1297,1022L1284,917L1190,1019Z" fill="#1d3a88" stroke="#1d3a88" stroke-width="1.51"/><path d="M1484,479L1492,417L1365,392Z" fill="#4072a5" stroke="#4072a5" stroke-width="1.51"/><path d="M1484,479L1588,427L1492,417Z" fill="#376c9a" stroke="#376c9a" stroke-width="1.51"/><path d="M1461,710L1352,715L1391,779Z" fill="#264b9e" stroke="#264b9e" stroke-width="1.51"/><path d="M-110,590L-37,694L-12,582Z" fill="#9fc0c1" stroke="#9fc0c1" stroke-width="1.51"/><path d="M88,1111L188,1084L158,998Z" fill="#7a7e86" stroke="#7a7e86" stroke-width="1.51"/><path d="M-11,86L-20,177L83,95Z" fill="#dff3b5" stroke="#dff3b5" stroke-width="1.51"/><path d="M-11,86L83,95L91,25Z" fill="#e4f4b2" stroke="#e4f4b2" stroke-width="1.51"/><path d="M1458,779L1461,710L1391,779Z" fill="#234698" stroke="#234698" stroke-width="1.51"/><path d="M-37,694L-16,784L58,703Z" fill="#9aacb5" stroke="#9aacb5" stroke-width="1.51"/><path d="M1356,898L1458,779L1391,779Z" fill="#263f98" stroke="#263f98" stroke-width="1.51"/><path d="M1600,700L1579,574L1481,628Z" fill="#1f5391" stroke="#1f5391" stroke-width="1.51"/><path d="M1356,898L1483,926L1458,779Z" fill="#233691" stroke="#233691" stroke-width="1.51"/><path d="M1290,1102L1297,1022L1190,1019Z" fill="#17357c" stroke="#17357c" stroke-width="1.51"/><path d="M265,1071L188,1084L351,1106Z" fill="#707b87" stroke="#707b87" stroke-width="1.51"/><path d="M158,998L188,1084L265,1071Z" fill="#767d87" stroke="#767d87" stroke-width="1.51"/><path d="M41,993L158,998L86,884Z" fill="#8b899a" stroke="#8b899a" stroke-width="1.51"/><path d="M1192,-85L1283,-124L1078,-108Z" fill="#9da8bc" stroke="#9da8bc" stroke-width="1.51"/><path d="M1078,-108L1283,-124L869,-130Z" fill="#9fb5c3" stroke="#9fb5c3" stroke-width="1.51"/><path d="M1293,-19L1283,-124L1192,-85Z" fill="#9ba0b5" stroke="#9ba0b5" stroke-width="1.51"/><path d="M1383,-21L1297,92L1367,104Z" fill="#9092a8" stroke="#9092a8" stroke-width="1.51"/><path d="M-59,477L-25,371L-136,395Z" fill="#afdbc5" stroke="#afdbc5" stroke-width="1.51"/><path d="M-9,19L-11,86L91,25Z" fill="#e9f7b3" stroke="#e9f7b3" stroke-width="1.51"/><path d="M1467,22L1383,-21L1367,104Z" fill="#918ea5" stroke="#918ea5" stroke-width="1.51"/><path d="M1297,1022L1355,980L1284,917Z" fill="#1f3688" stroke="#1f3688" stroke-width="1.51"/><path d="M-130,811L-49,876L-16,784Z" fill="#9b9db3" stroke="#9b9db3" stroke-width="1.51"/><path d="M-59,477L-110,590L-12,582Z" fill="#a3cbc4" stroke="#a3cbc4" stroke-width="1.51"/><path d="M-127,489L-110,590L-59,477Z" fill="#a6d0c7" stroke="#a6d0c7" stroke-width="1.51"/><path d="M-25,371L-42,326L-136,395Z" fill="#b5dfc2" stroke="#b5dfc2" stroke-width="1.51"/><path d="M-103,218L-42,326L-20,177Z" fill="#cbeabe" stroke="#cbeabe" stroke-width="1.51"/><path d="M-115,112L-103,218L-20,177Z" fill="#dbf1be" stroke="#dbf1be" stroke-width="1.51"/><path d="M61,-101L-9,19L91,25Z" fill="#eef9b4" stroke="#eef9b4" stroke-width="1.51"/><path d="M1383,-21L1363,-87L1293,-19Z" fill="#9996ad" stroke="#9996ad" stroke-width="1.51"/><path d="M-115,112L-20,177L-11,86Z" fill="#e1f3ba" stroke="#e1f3ba" stroke-width="1.51"/><path d="M-143,294L-136,395L-42,326Z" fill="#bae2c5" stroke="#bae2c5" stroke-width="1.51"/><path d="M-15,981L41,993L86,884Z" fill="#908b9c" stroke="#908b9c" stroke-width="1.51"/><path d="M-49,876L86,884L-16,784Z" fill="#9998ad" stroke="#9998ad" stroke-width="1.51"/><path d="M869,-130L61,-101L387,-102Z" fill="#c8e9c4" stroke="#c8e9c4" stroke-width="1.51"/><path d="M177,-94L61,-101L91,25Z" fill="#ebf8b9" stroke="#ebf8b9" stroke-width="1.51"/><path d="M1149,1084L1290,1102L1190,1019Z" fill="#17397d" stroke="#17397d" stroke-width="1.51"/><path d="M1297,1022L1351,1104L1355,980Z" fill="#192f7b" stroke="#192f7b" stroke-width="1.51"/><path d="M1046,1124L1290,1102L1149,1084Z" fill="#163d7f" stroke="#163d7f" stroke-width="1.51"/><path d="M-131,706L-16,784L-37,694Z" fill="#9cacba" stroke="#9cacba" stroke-width="1.51"/><path d="M1383,-21L1488,-74L1363,-87Z" fill="#9890ab" stroke="#9890ab" stroke-width="1.51"/><path d="M1496,72L1467,22L1367,104Z" fill="#8a8a9f" stroke="#8a8a9f" stroke-width="1.51"/><path d="M1496,72L1367,104L1450,215Z" fill="#8288a1" stroke="#8288a1" stroke-width="1.51"/><path d="M1481,628L1579,574L1484,479Z" fill="#29609a" stroke="#29609a" stroke-width="1.51"/><path d="M1551,124L1496,72L1450,215Z" fill="#7c8398" stroke="#7c8398" stroke-width="1.51"/><path d="M1600,700L1481,628L1461,710Z" fill="#214e93" stroke="#214e93" stroke-width="1.51"/><path d="M1563,795L1461,710L1458,779Z" fill="#1f4290" stroke="#1f4290" stroke-width="1.51"/><path d="M1483,926L1356,898L1355,980Z" fill="#22318c" stroke="#22318c" stroke-width="1.51"/><path d="M-103,218L-143,294L-42,326Z" fill="#c3e7c2" stroke="#c3e7c2" stroke-width="1.51"/><path d="M-115,112L-143,294L-103,218Z" fill="#d4eec2" stroke="#d4eec2" stroke-width="1.51"/><path d="M1600,288L1446,323L1492,417Z" fill="#4c7399" stroke="#4c7399" stroke-width="1.51"/><path d="M1596,506L1588,427L1484,479Z" fill="#306796" stroke="#306796" stroke-width="1.51"/><path d="M1600,288L1549,194L1446,323Z" fill="#5c7895" stroke="#5c7895" stroke-width="1.51"/><path d="M-110,590L-131,706L-37,694Z" fill="#9fb9c1" stroke="#9fb9c1" stroke-width="1.51"/><path d="M-127,489L-131,706L-110,590Z" fill="#a2c6c9" stroke="#a2c6c9" stroke-width="1.51"/><path d="M-136,395L-131,706L-127,489Z" fill="#a6cfca" stroke="#a6cfca" stroke-width="1.51"/><path d="M-161,887L-131,706L-136,395Z" fill="#a1bac5" stroke="#a1bac5" stroke-width="1.51"/><path d="M1579,574L1596,506L1484,479Z" fill="#2b6295" stroke="#2b6295" stroke-width="1.51"/><path d="M-49,876L-15,981L86,884Z" fill="#968fa7" stroke="#968fa7" stroke-width="1.51"/><path d="M41,993L88,1111L158,998Z" fill="#80818a" stroke="#80818a" stroke-width="1.51"/><path d="M-114,1003L-15,981L-49,876Z" fill="#928ca3" stroke="#928ca3" stroke-width="1.51"/><path d="M1486,1020L1483,926L1355,980Z" fill="#1b2b7e" stroke="#1b2b7e" stroke-width="1.51"/><path d="M-106,17L-115,112L-11,86Z" fill="#e9f7bd" stroke="#e9f7bd" stroke-width="1.51"/><path d="M-106,17L-11,86L-9,19Z" fill="#ecf8b9" stroke="#ecf8b9" stroke-width="1.51"/><path d="M1545,-1L1488,-74L1467,22Z" fill="#8e8a9a" stroke="#8e8a9a" stroke-width="1.51"/><path d="M1549,194L1551,124L1450,215Z" fill="#737f96" stroke="#737f96" stroke-width="1.51"/><path d="M1677,191L1551,124L1549,194Z" fill="#6e7b8b" stroke="#6e7b8b" stroke-width="1.51"/><path d="M188,1084L88,1111L351,1106Z" fill="#757d87" stroke="#757d87" stroke-width="1.51"/><path d="M351,1106L88,1111L1046,1124Z" fill="#4c6f89" stroke="#4c6f89" stroke-width="1.51"/><path d="M-13,1073L88,1111L41,993Z" fill="#838187" stroke="#838187" stroke-width="1.51"/><path d="M1588,427L1600,288L1492,417Z" fill="#426e94" stroke="#426e94" stroke-width="1.51"/><path d="M1667,311L1600,288L1588,427Z" fill="#456c8b" stroke="#456c8b" stroke-width="1.51"/><path d="M1290,1102L1351,1104L1297,1022Z" fill="#173079" stroke="#173079" stroke-width="1.51"/><path d="M1046,1124L1351,1104L1290,1102Z" fill="#17377d" stroke="#17377d" stroke-width="1.51"/><path d="M61,-101L-22,-75L-9,19Z" fill="#f2fabb" stroke="#f2fabb" stroke-width="1.51"/><path d="M1483,926L1563,795L1458,779Z" fill="#1f388a" stroke="#1f388a" stroke-width="1.51"/><path d="M1579,574L1691,518L1596,506Z" fill="#245c8c" stroke="#245c8c" stroke-width="1.51"/><path d="M-161,887L-130,811L-131,706Z" fill="#9da2bb" stroke="#9da2bb" stroke-width="1.51"/><path d="M-131,706L-130,811L-16,784Z" fill="#9ca6ba" stroke="#9ca6ba" stroke-width="1.51"/><path d="M1699,374L1667,311L1588,427Z" fill="#3f6a8b" stroke="#3f6a8b" stroke-width="1.51"/><path d="M1563,795L1600,700L1461,710Z" fill="#1d438b" stroke="#1d438b" stroke-width="1.51"/><path d="M-22,-75L-106,17L-9,19Z" fill="#f2fabb" stroke="#f2fabb" stroke-width="1.51"/><path d="M-115,112L-105,-96L-143,294Z" fill="#e7f6c0" stroke="#e7f6c0" stroke-width="1.51"/><path d="M1545,-1L1467,22L1496,72Z" fill="#898897" stroke="#898897" stroke-width="1.51"/><path d="M1467,22L1488,-74L1383,-21Z" fill="#948da1" stroke="#948da1" stroke-width="1.51"/><path d="M1363,-87L1551,-87L1283,-124Z" fill="#9b92b1" stroke="#9b92b1" stroke-width="1.51"/><path d="M-114,1003L-13,1073L-15,981Z" fill="#898694" stroke="#898694" stroke-width="1.51"/><path d="M-15,981L-13,1073L41,993Z" fill="#898591" stroke="#898591" stroke-width="1.51"/><path d="M1551,124L1545,-1L1496,72Z" fill="#838493" stroke="#838493" stroke-width="1.51"/><path d="M1673,92L1545,-1L1551,124Z" fill="#7d808b" stroke="#7d808b" stroke-width="1.51"/><path d="M1674,819L1697,726L1600,700Z" fill="#163d7f" stroke="#163d7f" stroke-width="1.51"/><path d="M1483,926L1589,890L1563,795Z" fill="#1c3182" stroke="#1c3182" stroke-width="1.51"/><path d="M1351,1104L1486,1020L1355,980Z" fill="#182978" stroke="#182978" stroke-width="1.51"/><path d="M1600,288L1677,191L1549,194Z" fill="#60768a" stroke="#60768a" stroke-width="1.51"/><path d="M1691,518L1588,427L1596,506Z" fill="#2a628c" stroke="#2a628c" stroke-width="1.51"/><path d="M-130,811L-161,887L-49,876Z" fill="#9c99b6" stroke="#9c99b6" stroke-width="1.51"/><path d="M-143,294L-161,887L-136,395Z" fill="#a7d0cb" stroke="#a7d0cb" stroke-width="1.51"/><path d="M1544,1018L1589,890L1483,926Z" fill="#182977" stroke="#182977" stroke-width="1.51"/><path d="M1698,574L1691,518L1579,574Z" fill="#21598b" stroke="#21598b" stroke-width="1.51"/><path d="M1698,574L1579,574L1600,700Z" fill="#1a5289" stroke="#1a5289" stroke-width="1.51"/><path d="M1667,311L1677,191L1600,288Z" fill="#567288" stroke="#567288" stroke-width="1.51"/><path d="M1691,518L1699,374L1588,427Z" fill="#30668c" stroke="#30668c" stroke-width="1.51"/><path d="M-161,887L-114,1003L-49,876Z" fill="#9890ae" stroke="#9890ae" stroke-width="1.51"/><path d="M-22,-75L-105,-96L-106,17Z" fill="#f5fbc3" stroke="#f5fbc3" stroke-width="1.51"/><path d="M-106,17L-105,-96L-115,112Z" fill="#f2fabf" stroke="#f2fabf" stroke-width="1.51"/><path d="M61,-101L-105,-96L-22,-75Z" fill="#f5fbc3" stroke="#f5fbc3" stroke-width="1.51"/><path d="M869,-130L-105,-96L61,-101Z" fill="#e0f3c1" stroke="#e0f3c1" stroke-width="1.51"/><path d="M1691,518L1698,574L1699,374Z" fill="#29618c" stroke="#29618c" stroke-width="1.51"/><path d="M1697,726L1698,574L1600,700Z" fill="#194a85" stroke="#194a85" stroke-width="1.51"/><path d="M1498,1121L1544,1018L1486,1020Z" fill="#102266" stroke="#102266" stroke-width="1.51"/><path d="M1486,1020L1544,1018L1483,926Z" fill="#162773" stroke="#162773" stroke-width="1.51"/><path d="M1699,374L1677,191L1667,311Z" fill="#4e7089" stroke="#4e7089" stroke-width="1.51"/><path d="M1545,-1L1551,-87L1488,-74Z" fill="#8e8899" stroke="#8e8899" stroke-width="1.51"/><path d="M1488,-74L1551,-87L1363,-87Z" fill="#948da6" stroke="#948da6" stroke-width="1.51"/><path d="M1674,-16L1551,-87L1545,-1Z" fill="#87848e" stroke="#87848e" stroke-width="1.51"/><path d="M1674,819L1563,795L1589,890Z" fill="#18327b" stroke="#18327b" stroke-width="1.51"/><path d="M1674,819L1600,700L1563,795Z" fill="#173a7f" stroke="#173a7f" stroke-width="1.51"/><path d="M1647,909L1674,819L1589,890Z" fill="#172c77" stroke="#172c77" stroke-width="1.51"/><path d="M1665,989L1647,909L1589,890Z" fill="#142670" stroke="#142670" stroke-width="1.51"/><path d="M1351,1104L1498,1121L1486,1020Z" fill="#14266f" stroke="#14266f" stroke-width="1.51"/><path d="M1046,1124L1498,1121L1351,1104Z" fill="#17317a" stroke="#17317a" stroke-width="1.51"/><path d="M1699,374L1673,92L1677,191Z" fill="#617688" stroke="#617688" stroke-width="1.51"/><path d="M1677,191L1673,92L1551,124Z" fill="#727b87" stroke="#727b87" stroke-width="1.51"/><path d="M1665,989L1589,890L1544,1018Z" fill="#12246b" stroke="#12246b" stroke-width="1.51"/><path d="M-161,887L-137,1090L-114,1003Z" fill="#908aa0" stroke="#908aa0" stroke-width="1.51"/><path d="M-114,1003L-137,1090L-13,1073Z" fill="#878390" stroke="#878390" stroke-width="1.51"/><path d="M-13,1073L-137,1090L88,1111Z" fill="#84828b" stroke="#84828b" stroke-width="1.51"/><path d="M1673,92L1674,-16L1545,-1Z" fill="#808086" stroke="#808086" stroke-width="1.51"/><path d="M1699,374L1674,-16L1673,92Z" fill="#707b87" stroke="#707b87" stroke-width="1.51"/><path d="M1583,1124L1665,989L1544,1018Z" fill="#0a1e5c" stroke="#0a1e5c" stroke-width="1.51"/><path d="M1647,909L1665,989L1674,819Z" fill="#162874" stroke="#162874" stroke-width="1.51"/><path d="M1674,819L1665,989L1697,726Z" fill="#173079" stroke="#173079" stroke-width="1.51"/><path d="M1498,1121L1583,1124L1544,1018Z" fill="#0d2162" stroke="#0d2162" stroke-width="1.51"/><path d="M1046,1124L1583,1124L1498,1121Z" fill="#172a76" stroke="#172a76" stroke-width="1.51"/><path d="M1674,-16L1658,-118L1551,-87Z" fill="#86838e" stroke="#86838e" stroke-width="1.51"/><path d="M1551,-87L1658,-118L1283,-124Z" fill="#928ba4" stroke="#928ba4" stroke-width="1.51"/><path d="M1583,1124L1681,1127L1665,989Z" fill="#081d58" stroke="#081d58" stroke-width="1.51"/><path d="M1665,989L1681,1127L1697,726Z" fill="#12256c" stroke="#12256c" stroke-width="1.51"/><path d="M1046,1124L1681,1127L1583,1124Z" fill="#142670" stroke="#142670" stroke-width="1.51"/></svg>